<svg preserveAspectRatio="none" width="100%" height="100%" overflow="visible" style="display: block;" viewBox="0 0 559.229 557.446" fill="none" xmlns="http://www.w3.org/2000/svg">
<g id="Group">
<path id="Vector" d="M302.872 547.881C290.085 560.635 269.15 560.635 256.355 547.881L9.60242 301.914C-3.20081 289.16 -3.20081 268.284 9.60242 255.538L256.355 9.57254C269.15 -3.19085 290.085 -3.19085 302.872 9.57254L549.633 255.539C562.428 268.285 562.428 289.16 549.633 301.915L302.872 547.881Z" fill="var(--fill-0, #C3161C)"/>
<path id="Vector_2" d="M127.389 308.317C127.389 280.389 145.311 265.355 173.816 265.355H204.904C214.563 265.355 221.885 257.588 221.885 247.96C221.885 238.809 214.364 230.812 205.169 230.812H127.389V204.975H201.14C233.912 204.975 247.797 224.699 247.797 248.454C247.797 269.099 235.084 291.168 201.14 291.168H169.342C160.146 291.168 153.319 299.405 153.319 308.81V352.494H127.389V308.317ZM266.651 204.975H292.572V352.496H266.651V204.975ZM354.073 230.813H431.835V204.975H358.076C326.022 204.975 311.427 223.069 311.427 248.454V308.81C311.427 330.418 323.678 352.494 358.076 352.494H431.835V326.649H354.296C344.167 326.649 337.331 319.129 337.331 308.316C337.331 299.158 344.876 291.168 354.073 291.168H431.835V265.356H354.296C344.167 265.356 337.331 257.59 337.331 247.961C337.331 238.811 344.876 230.813 354.073 230.813Z" fill="var(--fill-0, white)"/>
</g>
</svg>
