<svg width="69" height="69" viewBox="0 0 69 69" fill="none" xmlns="http://www.w3.org/2000/svg">
<path fill-rule="evenodd" clip-rule="evenodd" d="M50.7445 23.5435C51.3182 24.1172 51.7316 24.8312 51.9435 25.6143C53.1638 30.5263 52.8818 38.2841 51.9672 43.3856C51.7553 44.1688 51.3419 44.8828 50.7682 45.4565C50.1944 46.0302 49.4804 46.4436 48.6973 46.6556C45.8302 47.4375 34.2907 47.4375 34.2907 47.4375C34.2907 47.4375 22.7512 47.4375 19.8841 46.6556C19.1009 46.4436 18.3869 46.0302 17.8132 45.4565C17.2395 44.8828 16.8261 44.1688 16.6142 43.3856C15.3868 38.495 15.7232 30.7325 16.5905 25.6381C16.8024 24.8549 17.2158 24.1409 17.7895 23.5672C18.3632 22.9935 19.0772 22.5801 19.8604 22.3681C22.7275 21.5862 34.267 21.5625 34.267 21.5625C34.267 21.5625 45.8065 21.5625 48.6736 22.3444C49.4567 22.5564 50.1707 22.9698 50.7445 23.5435ZM40.167 34.5L30.5942 40.0446V28.9553L40.167 34.5Z" fill="white"/>
</svg>
