<svg width="54" height="54" viewBox="0 0 54 54" fill="none" xmlns="http://www.w3.org/2000/svg">
<circle cx="27" cy="27" r="27" fill="#C93131"/>
<path d="M32.0836 30.0753C35.1889 31.8976 37.484 34.3968 38.1561 38.1132C38.2873 38.8412 38.8709 39.7709 37.6163 40.0677C36.5643 40.3169 36.0936 39.8567 35.8104 38.7265C34.6468 34.0804 31.5564 31.4837 27.4509 31.5023C23.3224 31.5208 20.4242 34.0062 19.1144 38.7647C18.8658 39.6666 18.5919 40.2346 17.5445 40.1094C16.2543 39.9552 16.5639 39.0719 16.7112 38.3034C17.4317 34.5313 19.6462 31.8616 22.9092 30.0684C21.9297 27.6282 20.3402 27.6306 18.356 28.5347C15.6178 29.7832 14.0099 31.9208 13.4079 34.7933C13.1938 35.8169 13.0339 36.5251 11.8184 36.3315C10.2209 36.0777 11.0691 34.9022 11.1819 34.2334C11.7022 31.1534 13.3642 28.7434 16.0114 27.1472C17.1681 26.4493 17.1428 26.0656 16.4016 24.9771C14.1883 21.7314 14.628 18.1819 17.3201 15.7661C19.8396 13.5056 23.5284 13.4477 26.331 15.8461C27.253 16.6355 27.5603 16.792 28.58 15.9052C31.4298 13.4291 34.9967 13.4801 37.568 15.7429C40.2992 18.1483 40.8264 21.7429 38.582 24.9238C37.6416 26.2557 38.1181 26.5954 39.1321 27.2677C41.7943 29.0309 43.4356 31.5127 43.8454 34.7295C43.9236 35.3416 44.3092 36.2261 43.1122 36.3315C42.1615 36.415 41.7541 36.138 41.578 35.0622C41.083 32.0378 39.3992 29.8458 36.5862 28.5417C34.6146 27.6271 33.0101 27.6317 32.0836 30.0753ZM27.3577 29.1398C29.7356 29.2094 31.8534 27.2538 31.9927 24.8624C32.1365 22.3712 30.1074 20.1711 27.5925 20.0911C25.2157 20.0146 23.1049 21.9551 22.961 24.3488C22.8114 26.8261 24.8693 29.068 27.3589 29.1398H27.3577ZM17.3074 20.9651C17.3512 22.1684 17.7172 23.2418 18.5942 24.0915C19.0373 24.5216 19.5035 25.0606 20.1687 24.94C21.0573 24.7801 20.6625 23.935 20.7753 23.3983C21.1183 21.7673 21.924 20.4667 23.121 19.3156C23.7114 18.7487 25.2157 18.6769 24.8175 17.6649C24.4492 16.7294 23.1325 16.4442 22.0575 16.3445C19.5115 16.1069 17.2671 18.3175 17.3086 20.9663L17.3074 20.9651ZM29.8645 18.0091C32.0744 19.3109 33.9367 20.9083 34.168 23.6464C34.3349 25.6263 35.2108 25.078 36.1592 24.277C37.9489 22.7677 38.1607 19.8674 36.6472 17.9976C34.9023 15.8414 32.4646 15.8009 29.8645 18.0091Z" fill="white"/>
</svg>
