<svg width="202" height="70" viewBox="0 0 202 70" fill="none" xmlns="http://www.w3.org/2000/svg">
<path d="M88.7106 32.4396H94.007L95.7825 46.432L100.063 32.4396H106.588L97.3048 58.4963H91.9018L89.9431 43.4414L84.1404 58.4963H78.7374L76.1259 32.4396H82.6547L83.3076 46.432L88.7106 32.4396Z" fill="#232323"/>
<path d="M110.399 58.4963C107.281 58.4963 104.996 56.9845 105.429 53.6496L107.025 41.0344H112.791L111.375 52.2067C111.302 52.8593 111.555 53.2397 112.718 53.2397L112.065 58.4995H110.396L110.399 58.4963ZM111.015 32.7839C112.937 32.7839 114.28 34.2268 114.027 36.05C113.81 37.9061 112.105 39.3161 110.183 39.3161C108.261 39.3161 106.918 37.9061 107.135 36.05C107.388 34.2268 109.057 32.7839 111.015 32.7839Z" fill="#232323"/>
<path d="M119.826 41.0344L119.936 41.5853C121.678 40.795 123.96 40.4179 125.739 40.4179C131.468 40.4179 132.557 43.4086 132.048 47.2256L130.669 58.2241H124.829L126.172 47.5338C126.352 46.3664 125.735 45.6778 124.36 45.6778C122.984 45.6778 121.458 46.0549 121.168 46.1926L119.646 58.2241H113.807L115.982 41.0377H119.826V41.0344Z" fill="#232323"/>
<path d="M138.793 58.2208H132.664L135.965 32.4396H145.249C152.61 32.4396 154.496 35.5319 153.88 40.4474C153.443 43.6447 152.357 45.9467 149.456 47.3207L154.136 58.2175H146.774L143.004 48.557H140.029L138.796 58.2175L138.793 58.2208ZM140.752 42.8905H144.343C146.808 42.8905 147.281 41.8247 147.461 40.4507C147.607 39.1095 147.424 38.0799 144.959 38.0799H141.368L140.752 42.8937V42.8905Z" fill="#232323"/>
<path d="M162.51 53.5807C164.506 53.7184 167.48 53.3741 170.055 52.7216L169.402 57.9126C167.081 58.6701 163.963 58.8406 162.184 58.8406C155.655 58.8406 154.169 55.0596 154.859 49.6293C155.548 44.1989 158.376 40.4179 164.542 40.4179C171.468 40.4179 172.014 43.8546 171.687 46.5697C171.324 49.4227 169.982 51.5542 163.093 51.5542H160.372C160.518 52.8265 161.061 53.4791 162.51 53.5807ZM164.069 45.504C162.4 45.504 161.458 46.3632 160.915 47.7044H163.779C165.302 47.7044 165.701 47.2912 165.811 46.6058C165.885 45.9172 165.595 45.5073 164.069 45.5073" fill="#232323"/>
<path d="M186.844 46.9797C185.648 46.4287 182.527 45.6745 180.788 45.6745C179.229 45.6745 178.539 46.1205 178.503 46.6025C178.429 47.0157 178.866 47.2912 180.062 47.36C185.501 47.8421 187.313 49.1472 186.844 52.7216C186.407 56.0205 183.799 58.8406 177.923 58.8406C175.928 58.8406 172.483 58.2208 171.468 57.706L172.194 52.1707C173.679 52.8232 176.727 53.5807 178.829 53.5807C180.388 53.5807 181.078 53.1347 181.114 52.6527C181.188 52.2395 180.751 51.9641 179.555 51.8952C174.116 51.4132 172.304 50.108 172.773 46.5337C173.21 43.2348 175.821 40.4147 181.694 40.4147C183.579 40.4147 186.444 40.9295 187.57 41.4115L186.844 46.9797Z" fill="#232323"/>
<path d="M199.102 58.529C198.303 58.7356 197.033 58.8373 196.454 58.8373C191.377 58.8373 189.598 56.6369 190.108 52.5806L190.941 46.1172H188.003L188.546 42.028L191.59 41.2017L192.027 37.6601L198.009 36.0795L197.357 41.0279H202L201.347 46.1139H196.704L195.941 52.2657C195.831 53.056 196.267 53.5381 197.173 53.5381C197.716 53.5381 198.879 53.4692 199.785 53.2626L199.095 58.5225L199.102 58.529Z" fill="#232323"/>
<path d="M54.6105 41.2621C52.0589 43.0526 49.5107 44.8529 46.9591 46.6499C49.5107 44.8529 52.0589 43.0526 54.6105 41.2654C55.1135 40.9112 55.5499 40.4259 55.9197 39.875C55.5532 40.4226 55.1135 40.9112 54.6105 41.2621Z" fill="#6692C8"/>
<path d="M52.4154 12.9625C54.0643 21.4491 55.0269 26.204 56.9323 35.6186C56.9823 35.8612 57.0089 36.1105 57.0122 36.3662C57.0056 36.1105 56.9789 35.858 56.9323 35.6153C54.6272 24.2364 52.3654 12.8247 50.1569 1.377C49.8671 -0.137996 48.3848 -0.442963 46.8692 0.662133C38.2017 6.9943 32.9953 11.595 27.6389 17.0254C32.1625 20.1964 36.6861 23.3642 41.223 26.5188C44.7406 21.9934 48.4314 17.5271 52.4154 12.9592" fill="#2393D0"/>
<path d="M52.4154 12.9625C48.4314 17.5337 44.7406 21.9967 41.223 26.522C43.0118 27.7649 44.7872 29.0241 46.5793 30.2669C48.1616 31.3622 48.5114 33.5035 47.3588 35.0021C45.2103 37.7993 43.0784 40.603 40.9399 43.4067C42.8619 44.5512 44.7906 45.6825 46.7159 46.8204C46.7959 46.7646 46.8791 46.7056 46.9591 46.6499C49.5107 44.8529 52.0589 43.0526 54.6105 41.2621C55.1135 40.9112 55.5499 40.4226 55.9197 39.875C56.6158 38.8322 57.0422 37.5435 57.0156 36.3662C57.0089 36.1105 56.9823 35.858 56.9356 35.6186C55.0303 26.204 54.0676 21.4491 52.4187 12.9625" fill="#0F68B3"/>
<path d="M19.8742 38.6223C19.7843 35.1988 19.8176 31.7229 19.9075 27.7681C19.9409 26.2859 20.7803 24.2463 21.8129 23.1412C23.8782 20.9277 25.7669 18.9307 27.6389 17.032C24.6876 14.9628 21.7196 12.9133 18.775 10.8375C17.5558 9.97511 15.7337 10.4276 14.7144 11.8213C7.08629 22.1968 4.18494 28.0731 0.614038 36.7138C0.943813 35.9203 1.22362 35.2841 1.67998 34.2643C7.95903 35.2415 13.9649 36.7827 19.8742 38.6191" fill="#F9D51E"/>
<path d="M23.2486 62.1048H23.2419C23.1353 62.0392 23.0254 61.9802 22.9222 61.9081C19.2014 59.2093 16.2267 56.8712 13.6551 54.6643C16.2267 56.8712 19.198 59.2093 22.9188 61.9081C23.0288 61.9868 23.1487 62.0491 23.2619 62.1147C23.2619 62.1147 23.2519 62.1081 23.2486 62.1048Z" fill="#EBD14A"/>
<path d="M19.9075 27.7681C19.8176 31.7229 19.781 35.1988 19.8742 38.6223C23.2752 39.6815 26.6463 40.8293 30.0107 42.0459C33.6348 36.645 37.3223 31.5458 41.223 26.5253C36.6861 23.374 32.1625 20.203 27.6389 17.032C25.7669 18.9307 23.8748 20.9277 21.8129 23.1412C20.7803 24.2463 19.9409 26.2859 19.9075 27.7681Z" fill="#3E7B3B"/>
<path d="M34.6308 42.2131C35.3004 41.2129 36.7194 40.9047 37.7787 41.5376C38.8313 42.1672 39.8906 42.7804 40.9432 43.4067C43.0817 40.603 45.2136 37.7993 47.3622 35.0021C48.5147 33.5002 48.1649 31.3589 46.5827 30.2669C44.7906 29.0274 43.0151 27.7681 41.2263 26.522C37.3257 31.5425 33.6382 36.6417 30.014 42.0426C31.2798 42.4984 32.5423 42.9673 33.8081 43.4362C34.0812 43.0263 34.361 42.623 34.6342 42.2131" fill="#1E5229"/>
<path d="M23.2453 62.1015C23.2253 62.0851 23.2053 62.072 23.1853 62.0556C23.1054 61.99 23.0321 61.9212 22.9621 61.8392C22.9155 61.7867 22.8755 61.7343 22.8355 61.6785C22.7989 61.6261 22.7589 61.5801 22.7256 61.5244C22.659 61.4129 22.6024 61.2981 22.5624 61.1834C22.4658 60.9571 22.3825 60.7112 22.3292 60.4259C22.3092 60.3209 22.2926 60.2225 22.2726 60.1143C21.9528 58.3468 21.7796 57.3565 21.4798 55.4939V55.4874C20.4538 48.9716 20.0141 43.8593 19.8742 38.6256C13.9649 36.7893 7.9557 35.248 1.67998 34.2708C1.22362 35.2907 0.947144 35.9268 0.617369 36.7204C0.490788 37.0254 0.364208 37.3271 0.237628 37.6419C-0.248707 38.8257 0.0344329 40.5407 0.877191 41.5245C5.18425 46.5482 8.64523 50.3619 13.6585 54.6708C16.2301 56.8778 19.2014 59.2125 22.9255 61.9146C23.0288 61.99 23.1387 62.0458 23.2453 62.1081" fill="#F29820"/>
<path d="M19.8742 38.6223C20.0141 43.856 20.4538 48.9683 21.4831 55.4841C24.3379 50.7391 27.1559 46.299 30.0107 42.0459C26.6463 40.8293 23.2752 39.6815 19.8742 38.6223Z" fill="#4B5F2B"/>
<path d="M21.4765 55.4906C21.7763 57.3532 21.9495 58.3436 22.2693 60.1111C21.9761 58.4879 21.713 56.9466 21.4798 55.4841V55.4906" fill="#DDA532"/>
<path d="M22.5557 61.167C22.4092 60.7341 22.4458 60.2717 22.709 59.8881C26.4364 54.4216 30.1339 48.9355 33.8081 43.4362C32.5423 42.9673 31.2765 42.4984 30.014 42.0426C27.1593 46.299 24.3412 50.7358 21.4865 55.4808C21.7196 56.9433 21.9828 58.4878 22.2759 60.1078C22.2959 60.2094 22.3126 60.3078 22.3326 60.416C22.3825 60.6948 22.4658 60.9374 22.5624 61.1637" fill="#2B431D"/>
<path d="M56.5026 52.6049C53.2315 50.6899 49.9804 48.7486 46.7193 46.8204C41.3562 50.5981 35.9966 54.3888 30.6402 58.1927C37.8886 58.8486 44.9671 59.7799 52.2122 61.1998C49.3375 64.4429 47.6653 66.1383 45.3135 68.2534C49.4774 64.5282 52.3954 61.4818 56.8424 55.1168C57.4753 54.215 57.3287 53.0837 56.5026 52.6017" fill="#DD4132"/>
<path d="M30.6369 58.196C35.9932 54.3921 41.3529 50.6013 46.7159 46.8237C41.3529 50.6013 35.9932 54.3921 30.6336 58.196" fill="#C0573E"/>
<path d="M30.6369 58.196C35.9932 54.3888 41.3529 50.5981 46.7193 46.8237C44.7939 45.6858 42.8652 44.5512 40.9432 43.41C37.2091 48.3059 33.4916 53.2083 29.7875 58.1239C30.0706 58.1501 30.3571 58.173 30.6402 58.196" fill="#271927"/>
<path d="M34.6308 42.2131C34.3577 42.623 34.0779 43.0263 33.8047 43.4362C35.6401 44.1183 37.4789 44.8069 39.3276 45.5054C35.1571 50.9784 32.6955 54.2347 29.7708 58.1173H29.7841C33.4883 53.205 37.2091 48.2993 40.9399 43.4034C39.8873 42.7771 38.828 42.1606 37.7754 41.5343C36.7161 40.9047 35.2971 41.2097 34.6275 42.2098" fill="#29130C"/>
<path d="M22.709 59.8881C23.2952 59.0289 23.595 58.5862 24.2113 57.6812C26.08 57.8123 27.9287 57.9599 29.7675 58.1206C32.6922 54.2347 35.1538 50.9817 39.3243 45.5087C37.4789 44.8102 35.6401 44.1216 33.8014 43.4395C30.1272 48.9388 26.4298 54.4216 22.7023 59.8913C22.4392 60.275 22.4025 60.7374 22.5491 61.1702C22.3992 60.7374 22.4358 60.2783 22.7023 59.8913" fill="#29130C"/>
<path d="M28.6816 59.5831V59.5897C29.3311 59.124 29.9873 58.6616 30.6402 58.196C29.9873 58.6584 29.3378 59.1207 28.6849 59.5831" fill="#A91F23"/>
<path d="M28.6816 59.5831C29.3344 59.1207 29.984 58.6584 30.6369 58.196C30.3538 58.1698 30.0706 58.1468 29.7841 58.1239C29.4177 58.6125 29.048 59.0978 28.6782 59.5864" fill="#3A2A27"/>
<path d="M29.6176 64.1019C30.1839 63.3509 30.7535 62.6 31.3198 61.849C31.3131 61.8556 31.3064 61.8589 31.2998 61.8654C30.7635 62.5803 30.2072 63.3214 29.6209 64.1019" fill="#A91F23"/>
<path d="M31.2998 61.8622C31.2998 61.8622 31.3131 61.8589 31.3198 61.8523C31.3198 61.8523 31.3064 61.8556 31.2998 61.8622Z" fill="#A91F23"/>
<path d="M29.7708 58.1206C29.4077 58.6026 29.0413 59.0912 28.6616 59.5962L28.6816 59.5831C29.048 59.0945 29.4177 58.6092 29.7875 58.1206C29.7841 58.1206 29.7775 58.1206 29.7742 58.1206" fill="#A91F23"/>
<path d="M30.6402 58.196C29.9873 58.6616 29.3311 59.124 28.6782 59.5897C28.1586 60.2783 27.6389 60.9637 27.1193 61.6523C27.6556 60.9374 28.1653 60.2586 28.6582 59.6061C27.5224 60.4127 26.3865 61.2162 25.2506 62.0228C25.0007 62.1999 24.7542 62.2983 24.5111 62.3573C24.2846 62.4131 24.0614 62.436 23.8515 62.3934C24.3045 62.5606 24.7709 62.6426 25.2173 62.6164C25.9767 62.5738 26.6663 62.2557 27.1093 61.6654C26.6663 62.2557 25.9734 62.5738 25.2173 62.6164C24.7709 62.6426 24.3045 62.5606 23.8482 62.3934C23.7149 62.3672 23.585 62.318 23.4618 62.2524C23.4884 62.2688 23.5118 62.2917 23.5417 62.3081C31.1166 66.6105 35.2071 68.0336 41.4995 69.9061C42.3156 70.1487 43.4515 69.9061 44.0811 69.3519C44.3442 69.1223 44.5974 68.8961 44.8472 68.6731C44.8972 68.6272 44.9505 68.5813 45.0004 68.5387C45.107 68.4436 45.207 68.3517 45.3102 68.2599C47.6619 66.1415 49.3341 64.4462 52.2088 61.2063C44.9638 59.7831 37.8853 58.8551 30.6369 58.1993" fill="#A41E21"/>
<path d="M24.2146 57.6812C23.595 58.5895 23.2952 59.0289 22.7123 59.8881C22.4458 60.275 22.4092 60.7374 22.5591 61.1702C22.6124 61.2949 22.6657 61.4195 22.729 61.5244C22.7523 61.5638 22.7823 61.5965 22.8089 61.6326C22.8622 61.708 22.9155 61.7769 22.9721 61.8425C23.0354 61.9114 23.0987 61.9737 23.172 62.036C23.2053 62.0655 23.2386 62.0884 23.2752 62.1147C23.4618 62.2229 23.655 62.3114 23.8515 62.3836C24.0614 62.4262 24.2846 62.4032 24.5144 62.3475C24.7576 62.2885 25.0041 62.1901 25.2539 62.013C26.3898 61.203 27.529 60.3996 28.6649 59.5897C29.0446 59.0847 29.4144 58.5928 29.7742 58.114C27.9354 57.9533 26.0867 57.8058 24.2179 57.6746" fill="#12090A"/>
</svg>
