<svg width="54" height="54" viewBox="0 0 54 54" fill="none" xmlns="http://www.w3.org/2000/svg">
<circle cx="27" cy="27" r="27" fill="#C93131"/>
<path d="M21.5604 39.2105C22.1933 40.6341 22.7744 42.0096 23.4245 43.353C23.5792 43.6726 23.9645 43.8851 24.2438 44.1469C24.509 43.8716 24.8834 43.64 25.0201 43.3131C25.5032 42.1573 25.8982 40.9665 26.3405 39.7939C26.5271 39.2989 26.6264 38.8015 26.0001 38.5906C25.3684 38.3779 25.1424 38.86 24.9667 39.34C24.7223 40.008 24.4723 40.6742 24.1624 41.5093C23.6366 40.3296 23.1668 39.3345 22.7499 38.3187C22.4944 37.6958 22.1018 37.5404 21.4747 37.7501C20.5521 38.0585 19.6191 38.337 18.5353 38.677C18.8348 37.8237 19.0822 37.1088 19.3364 36.3964C19.8225 35.0343 20.3248 33.6779 20.7924 32.3099C20.9281 31.9129 21.1645 31.8353 21.5618 31.7183C23.212 31.2325 24.3805 31.6831 25.5535 32.944C26.1552 33.5909 26.5972 34.187 26.8518 34.9845C27.672 37.5544 28.5033 40.1208 29.3303 42.6885C29.3745 42.826 29.3807 42.9963 29.4698 43.0946C29.68 43.3269 29.9213 43.6806 30.1659 43.6934C30.4136 43.7064 30.792 43.4239 30.9206 43.1752C31.6294 41.8045 32.2792 40.4046 32.9838 38.943C34.1686 39.3779 35.322 39.8342 36.5012 40.2135C36.853 40.3267 37.4222 40.3715 37.6278 40.1783C37.8327 39.9855 37.8107 39.4255 37.7084 39.0773C37.1726 37.2527 36.5729 35.4461 36.0108 33.6286C35.8578 33.1344 35.6175 32.7459 35.0328 32.923C34.4449 33.101 34.4806 33.5563 34.6384 34.0466C35.1011 35.4846 35.5423 36.9293 36.0482 38.5518C35.2011 38.2418 34.5043 37.9885 33.8086 37.7321C32.2518 37.1586 32.2521 37.1581 31.5521 38.6017C31.1944 39.3397 30.8374 40.0782 30.4757 40.8143C30.4583 40.8498 30.3983 40.8651 30.2954 40.9287C30.2017 40.6593 30.1078 40.4037 30.0239 40.1449C29.3546 38.0834 28.6938 36.0191 28.0133 33.9611C27.88 33.5578 27.9868 33.3383 28.2639 32.9836C29.2916 31.6676 30.4741 31.2926 32.1492 31.6965C33.4437 32.0088 34.3647 31.2848 34.4193 29.9698C34.4844 28.399 35.198 27.5666 36.632 26.9861C37.9436 26.4551 38.3117 25.384 37.5543 24.2012C36.7026 22.8709 36.7126 21.7735 37.5645 20.4446C38.3195 19.2668 37.9337 18.2014 36.6009 17.6878C35.1287 17.1205 34.5035 16.2138 34.3929 14.6881C34.2929 13.3077 33.4312 12.6682 32.0477 12.9881C30.5027 13.3454 29.428 13.0409 28.4011 11.8249C27.4967 10.754 26.2524 10.7808 25.3413 11.8662C24.378 13.0136 23.3807 13.342 21.8991 13.0045C20.3414 12.6495 19.5547 13.3399 19.3134 14.8894C19.3061 14.9369 19.2935 14.9852 19.2953 15.0325C19.3462 16.339 18.6823 17.0471 17.4514 17.5321C15.8013 18.1821 15.4464 19.2692 16.3805 20.7695C17.0611 21.8625 17.2275 22.8101 16.3854 23.8561C16.1806 24.1105 16.0691 24.4569 15.9824 24.7786C15.7745 25.55 15.9882 26.2116 16.6471 26.698C16.9 26.8847 17.1743 27.0826 17.4708 27.1668C18.7297 27.5239 19.3297 28.3235 19.2907 29.599C19.2878 29.6939 19.2888 29.8031 19.3317 29.8831C19.9313 31.0014 19.4 32.0047 19.0243 33.0337C18.2721 35.0937 17.5244 37.1556 16.8194 39.2313C16.7119 39.5479 16.7073 40.0788 16.9008 40.2623C17.0987 40.4501 17.6251 40.4245 17.9614 40.3315C19.1384 40.006 20.2955 39.6108 21.5604 39.2105ZM21.5795 30.3479C21.0959 30.4126 20.8243 30.2198 20.7646 29.7398C20.732 29.4774 20.6563 29.2175 20.6491 28.955C20.6102 27.54 19.8962 26.6519 18.5622 26.1128C17.0905 25.518 17.069 25.4437 17.9017 24.0934C18.6431 22.8912 18.645 21.779 17.9044 20.5767C17.0798 19.2379 17.1016 19.168 18.5663 18.566C19.891 18.0215 20.5602 17.1335 20.6571 15.72C20.7598 14.2214 20.8948 14.143 22.367 14.4787C23.7064 14.7841 24.7982 14.5458 25.7318 13.4787C26.849 12.2014 26.9204 12.2093 28.057 13.4736C28.9006 14.4119 29.8676 14.8308 31.1266 14.5272C31.3408 14.4755 31.5598 14.4427 31.7766 14.4008C32.7959 14.2037 32.9238 14.2896 33.0846 15.2812C33.1078 15.4238 33.1473 15.566 33.1506 15.7092C33.1839 17.1601 33.9506 18.0468 35.298 18.5923C36.6873 19.1548 36.7231 19.2517 35.9261 20.5201C35.1604 21.7386 35.134 22.873 35.8876 24.1025C36.7116 25.4467 36.6963 25.5242 35.2326 26.1134C33.8928 26.6526 33.2396 27.5458 33.1413 28.9546C33.0363 30.4576 32.9459 30.503 31.4215 30.1894C30.216 29.9416 29.1616 30.0176 28.2639 30.9924C26.8558 32.5216 26.9971 32.5698 25.5274 30.9962C24.8063 30.2242 23.953 29.8791 22.8832 30.1164C22.4529 30.2117 22.0144 30.2718 21.5795 30.3479Z" fill="white"/>
<path d="M26.9244 28.2947C30.4394 28.2875 33.2355 25.3592 32.9836 21.9489C32.7266 18.469 29.5889 15.9684 26.0643 16.4545C25.5853 16.5205 25.1158 16.6745 24.6524 16.8199C24.2255 16.954 23.9924 17.221 24.1593 17.6985C24.3409 18.2181 24.7112 18.2128 25.1679 18.1047C25.7368 17.97 26.3172 17.7922 26.893 17.7908C29.5949 17.7838 31.6735 19.9573 31.5512 22.603C31.4348 25.123 29.1517 27.0537 26.4982 26.8759C23.9354 26.7042 22.0181 24.4145 22.259 21.8192C22.2807 21.5854 22.3581 21.2956 22.2521 21.1268C22.1201 20.9165 21.7785 20.6421 21.6096 20.6876C21.3405 20.7603 21 21.039 20.9332 21.2922C20.6417 22.3972 20.8154 23.4922 21.2395 24.5427C22.1686 26.8446 24.3859 28.2999 26.9244 28.2947Z" fill="white"/>
</svg>
