<svg width="54" height="54" viewBox="0 0 54 54" fill="none" xmlns="http://www.w3.org/2000/svg">
<circle cx="27" cy="27" r="27" fill="#C93131"/>
<path d="M42.2868 41.1369H12.5359C12.1622 41.1369 11.8598 40.833 11.8598 40.4585C11.8598 40.0841 12.1622 39.7802 12.5359 39.7802H42.2868C42.6605 39.7802 42.9629 40.0836 42.9629 40.4585C42.9629 40.8334 42.6605 41.1369 42.2868 41.1369Z" fill="white"/>
<path d="M15.2404 38.4234C14.8668 38.4234 14.5643 38.1195 14.5643 37.7451V34.3533C14.5643 33.9784 14.8668 33.6749 15.2404 33.6749C15.6141 33.6749 15.9166 33.9784 15.9166 34.3533V37.7451C15.9166 38.1195 15.6141 38.4234 15.2404 38.4234Z" fill="white"/>
<path d="M19.2974 38.4234C18.9237 38.4234 18.6212 38.1199 18.6212 37.745V33.6749C18.6212 33.3 18.9237 32.9965 19.2974 32.9965C19.6711 32.9965 19.9735 33.3 19.9735 33.6749V37.745C19.9735 38.1195 19.6711 38.4234 19.2974 38.4234Z" fill="white"/>
<path d="M23.3543 38.4234C22.9806 38.4234 22.6782 38.12 22.6782 37.7451V32.3182C22.6782 31.9433 22.9806 31.6399 23.3543 31.6399C23.728 31.6399 24.0305 31.9433 24.0305 32.3182V37.7451C24.0305 38.1195 23.728 38.4234 23.3543 38.4234Z" fill="white"/>
<path d="M27.4112 38.4234C27.0376 38.4234 26.7351 38.1199 26.7351 37.745V29.6047C26.7351 29.2298 27.0376 28.9264 27.4112 28.9264C27.7849 28.9264 28.0874 29.2298 28.0874 29.6047V37.745C28.0874 38.1195 27.7849 38.4234 27.4112 38.4234Z" fill="white"/>
<path d="M31.4682 38.4234C31.0945 38.4234 30.792 38.12 30.792 37.7451V26.213C30.792 25.8381 31.0945 25.5346 31.4682 25.5346C31.8419 25.5346 32.1443 25.8381 32.1443 26.213V37.7451C32.1443 38.1195 31.8419 38.4234 31.4682 38.4234Z" fill="white"/>
<path d="M35.5251 38.4234C35.1514 38.4234 34.849 38.1199 34.849 37.745V21.4644C34.849 21.0895 35.1514 20.7861 35.5251 20.7861C35.8988 20.7861 36.2013 21.0895 36.2013 21.4644V37.745C36.2013 38.1195 35.8988 38.4234 35.5251 38.4234Z" fill="white"/>
<path d="M39.582 38.4235C39.2084 38.4235 38.9059 38.1201 38.9059 37.7451V14.6809C38.9059 14.306 39.2084 14.0026 39.582 14.0026C39.9557 14.0026 40.2582 14.306 40.2582 14.6809V37.7451C40.2582 38.1196 39.9557 38.4235 39.582 38.4235Z" fill="white"/>
<path d="M42.2869 17.3944C42.1138 17.3944 41.9407 17.3284 41.8086 17.1959L39.5823 14.9618L37.3559 17.1954C37.0918 17.4604 36.664 17.4604 36.3998 17.1954C36.1357 16.9309 36.1357 16.5008 36.3998 16.2362L39.5823 13.0434L42.7652 16.2367C43.0293 16.5012 43.0293 16.9313 42.7652 17.1959C42.6331 17.3279 42.46 17.3944 42.2869 17.3944Z" fill="white"/>
<path d="M19.9738 30.2832C16.2454 30.2832 13.2122 27.2401 13.2122 23.4996C13.2122 20.9169 14.6425 18.5919 16.945 17.4328C17.2791 17.265 17.6852 17.4002 17.8529 17.7349C18.0206 18.07 17.8853 18.4775 17.5518 18.6457C15.709 19.5732 14.5645 21.4329 14.5645 23.4996C14.5645 26.4921 16.991 28.9265 19.9738 28.9265C21.0966 28.9265 22.1731 28.585 23.0868 27.9383C23.392 27.7226 23.8134 27.7959 24.0289 28.102C24.2439 28.4082 24.1709 28.8315 23.8657 29.0472C22.723 29.8554 21.377 30.2832 19.9738 30.2832Z" fill="white"/>
<path d="M25.4119 26.9198C25.3095 26.9198 25.2059 26.8963 25.1089 26.8474L19.6704 24.1055C19.4418 23.9906 19.2976 23.7559 19.2976 23.4995V17.3943C19.2976 17.0194 19.6001 16.7159 19.9738 16.7159C23.7021 16.7159 26.7353 19.759 26.7353 23.4995C26.7353 24.5709 26.4933 25.5961 26.0163 26.5462C25.8978 26.7832 25.6593 26.9198 25.4119 26.9198ZM20.6499 23.0812L25.0747 25.3116C25.2798 24.7337 25.383 24.1268 25.383 23.4995C25.383 20.7368 23.3144 18.4498 20.6499 18.1147V23.0812Z" fill="white"/>
</svg>
