<svg width="54" height="54" viewBox="0 0 54 54" fill="none" xmlns="http://www.w3.org/2000/svg">
<circle cx="27" cy="27" r="27" fill="#C93131"/>
<path d="M34.4315 24.5534C35.8154 27.5566 35.8144 28.5816 34.4335 31.6578C35.3608 32.3346 36.2982 33.0193 37.2366 33.703C38.003 34.2614 38.7785 34.8089 39.5328 35.3831C39.8184 35.6012 40.0387 35.6298 40.3786 35.4611C41.318 34.9934 42.4827 35.2065 43.2139 35.9189C43.93 36.6164 44.1503 37.7006 43.7601 38.6014C43.3467 39.5544 42.3811 40.1622 41.3281 40.1099C40.1041 40.0497 38.7935 39.0286 39.0037 37.3948C39.0641 36.9242 38.9243 36.6618 38.5381 36.3904C36.9731 35.2874 35.4312 34.1548 33.8924 33.0173C33.6078 32.8072 33.4247 32.7647 33.128 33.0272C32.251 33.8016 31.1999 34.2525 30.0473 34.4932C29.8784 34.5288 29.643 34.6708 29.6058 34.808C29.5374 35.0586 29.5294 35.3239 29.8904 35.4936C30.9163 35.9751 31.3961 36.7989 31.3206 37.9256C31.2442 39.0661 30.3169 40.026 29.1854 40.1217C27.8356 40.2362 26.7263 39.512 26.4386 38.3291C26.155 37.161 26.6398 36.0659 27.7491 35.5292C28.1172 35.3516 28.2319 35.1079 28.1213 34.7981C28.069 34.6521 27.8004 34.5317 27.6083 34.4893C26.1087 34.1548 24.8163 33.4761 23.8306 32.303C23.5782 32.0021 23.3931 31.9646 23.0461 32.1688C20.4472 33.699 17.8392 35.2134 15.2232 36.715C14.8833 36.9104 14.7857 37.1215 14.8119 37.5033C14.9074 38.927 13.958 40.0379 12.6193 40.1257C11.1156 40.2233 9.93486 39.2752 9.85741 37.824C9.80913 36.9153 10.2044 36.1547 11.005 35.6545C11.8187 35.1464 12.6897 35.0882 13.5245 35.5647C13.8986 35.7788 14.146 35.7215 14.4739 35.5292C17.0618 34.0128 19.6537 32.5023 22.2556 31.0106C22.6348 30.7926 22.7655 30.6081 22.6006 30.1661C22.0917 28.7937 22.1118 27.3987 22.6036 26.0234C22.7394 25.6446 22.6841 25.4532 22.3159 25.242C19.6547 23.7178 17.0054 22.1747 14.3613 20.6228C14.0766 20.4561 13.8745 20.465 13.5898 20.6258C12.6957 21.128 11.7895 21.0856 10.9396 20.5183C10.1571 19.9964 9.77795 19.2239 9.86546 18.3162C9.96704 17.2665 10.5554 16.5187 11.6065 16.1783C13.2439 15.6485 14.8963 16.8709 14.8098 18.5944C14.7837 19.1094 14.9557 19.3501 15.3791 19.5919C17.9398 21.056 20.4884 22.5408 23.03 24.0364C23.366 24.2347 23.5561 24.2278 23.8186 23.919C24.8173 22.7381 26.1097 22.0238 27.6435 21.7298C27.8648 21.6874 28.1354 21.7357 28.1464 21.3874C28.1555 21.0984 28.1374 20.8853 27.8024 20.7185C26.2354 19.9372 25.8583 18.0814 26.9988 16.8689C27.734 16.0875 28.6563 15.8872 29.6601 16.2039C30.6186 16.5058 31.1839 17.1905 31.3056 18.183C31.4383 19.2752 31.0008 20.095 30.0433 20.6692C29.8582 20.7807 29.6611 20.9691 29.5988 21.1615C29.4942 21.4871 29.6319 21.6775 30.0413 21.7397C31.1899 21.9133 32.2188 22.3918 33.0878 23.1475C33.4086 23.4267 33.6188 23.405 33.9427 23.1643C35.5057 22.0041 37.0827 20.8616 38.6658 19.727C38.9504 19.5228 39.0721 19.3334 39.0148 18.9604C38.7231 17.0534 40.3022 16.0776 41.486 16.1003C42.8378 16.126 43.9904 17.2665 43.9662 18.5806C43.9421 19.9224 42.8528 20.9948 41.484 20.9632C41.0646 20.9534 40.6502 20.7797 40.2308 20.6949C40.0839 20.6653 39.8798 20.614 39.7832 20.683C37.997 21.9587 36.2238 23.2501 34.4305 24.5504L34.4315 24.5534ZM28.8756 23.039C26.0132 23.0331 23.6717 25.2953 23.6597 28.0775C23.6476 30.835 25.986 33.1673 28.771 33.1762C31.6686 33.185 34.0382 30.9613 34.0272 28.1308C34.0151 24.9776 31.3689 22.9897 28.8756 23.039ZM12.3507 19.5554C12.9069 19.5593 13.4209 19.0709 13.4299 18.5293C13.44 17.9906 12.9431 17.4835 12.3879 17.4648C11.8146 17.446 11.2836 17.9541 11.2876 18.5165C11.2916 19.0591 11.7955 19.5514 12.3507 19.5554ZM28.8565 19.5554C29.4217 19.5524 29.9085 19.0749 29.9146 18.5175C29.9206 17.9689 29.4288 17.4727 28.8716 17.4638C28.2983 17.4539 27.7713 17.9689 27.7823 18.5273C27.7934 19.068 28.3063 19.5583 28.8565 19.5554ZM12.3477 36.6618C11.7925 36.6677 11.2896 37.162 11.2876 37.7036C11.2856 38.2659 11.8187 38.7731 12.391 38.7523C12.9471 38.7316 13.442 38.2235 13.4299 37.6848C13.4179 37.1422 12.9029 36.6568 12.3477 36.6618ZM29.9146 37.7075C29.9146 37.1531 29.4288 36.6697 28.8655 36.6618C28.2953 36.6539 27.7662 37.1758 27.7823 37.7312C27.7984 38.2738 28.3104 38.7582 28.8635 38.7543C29.4187 38.7504 29.9156 38.2571 29.9156 37.7085L29.9146 37.7075ZM42.5219 18.5648C42.528 18.0291 42.0271 17.5279 41.4719 17.5181C40.9087 17.5072 40.4048 17.9719 40.3796 18.5254C40.3545 19.0779 40.8876 19.6096 41.4568 19.6017C42.0221 19.5938 42.5149 19.1144 42.5209 18.5658L42.5219 18.5648ZM42.5219 37.6414C42.5079 37.0949 42.006 36.6154 41.4458 36.6144C40.8986 36.6144 40.3817 37.1156 40.3776 37.6543C40.3736 38.2156 40.9016 38.7158 41.483 38.6991C42.0362 38.6833 42.535 38.1752 42.5219 37.6414Z" fill="white"/>
</svg>
