<svg width="54" height="54" viewBox="0 0 54 54" fill="none" xmlns="http://www.w3.org/2000/svg">
<circle cx="27" cy="27" r="27" fill="#C93131"/>
<path fill-rule="evenodd" clip-rule="evenodd" d="M15.8731 16.5969C15.8731 16.2967 16.1165 16.0534 16.4166 16.0534H37.0686C37.3688 16.0534 37.6121 16.2967 37.6121 16.5969V28.5533C37.6121 28.8535 37.3688 29.0968 37.0686 29.0968C36.7685 29.0968 36.5252 28.8535 36.5252 28.5533V17.1404H16.9601V36.7055H28.3731C28.6732 36.7055 28.9165 36.9488 28.9165 37.2489C28.9165 37.5491 28.6732 37.7924 28.3731 37.7924H16.4166C16.1165 37.7924 15.8731 37.5491 15.8731 37.2489V16.5969Z" fill="white"/>
<path fill-rule="evenodd" clip-rule="evenodd" d="M19.134 19.8577C19.134 19.5576 19.3773 19.3143 19.6775 19.3143H28.3731C28.6732 19.3143 28.9165 19.5576 28.9165 19.8577C28.9165 20.1579 28.6732 20.4012 28.3731 20.4012H19.6775C19.3773 20.4012 19.134 20.1579 19.134 19.8577Z" fill="white"/>
<path fill-rule="evenodd" clip-rule="evenodd" d="M19.134 22.0316C19.134 21.7315 19.3773 21.4882 19.6775 21.4882H30.5469C30.8471 21.4882 31.0904 21.7315 31.0904 22.0316C31.0904 22.3318 30.8471 22.5751 30.5469 22.5751H19.6775C19.3773 22.5751 19.134 22.3318 19.134 22.0316Z" fill="white"/>
<path fill-rule="evenodd" clip-rule="evenodd" d="M19.134 24.2055C19.134 23.9054 19.3773 23.6621 19.6775 23.6621H28.3731C28.6732 23.6621 28.9165 23.9054 28.9165 24.2055C28.9165 24.5057 28.6732 24.749 28.3731 24.749H19.6775C19.3773 24.749 19.134 24.5057 19.134 24.2055Z" fill="white"/>
<path fill-rule="evenodd" clip-rule="evenodd" d="M19.134 26.3794C19.134 26.0793 19.3773 25.836 19.6775 25.836H24.0253C24.3254 25.836 24.5687 26.0793 24.5687 26.3794C24.5687 26.6796 24.3254 26.9229 24.0253 26.9229H19.6775C19.3773 26.9229 19.134 26.6796 19.134 26.3794Z" fill="white"/>
<path fill-rule="evenodd" clip-rule="evenodd" d="M19.134 28.5533C19.134 28.2532 19.3773 28.0099 19.6775 28.0099H24.0253C24.3254 28.0099 24.5687 28.2532 24.5687 28.5533C24.5687 28.8535 24.3254 29.0968 24.0253 29.0968H19.6775C19.3773 29.0968 19.134 28.8535 19.134 28.5533Z" fill="white"/>
<path fill-rule="evenodd" clip-rule="evenodd" d="M19.134 30.7272C19.134 30.4271 19.3773 30.1838 19.6775 30.1838H24.0253C24.3254 30.1838 24.5687 30.4271 24.5687 30.7272C24.5687 31.0274 24.3254 31.2707 24.0253 31.2707H19.6775C19.3773 31.2707 19.134 31.0274 19.134 30.7272Z" fill="white"/>
<path fill-rule="evenodd" clip-rule="evenodd" d="M26.3583 26.5386C26.507 26.39 26.728 26.3404 26.9259 26.4113L40.8432 31.3968C41.035 31.4655 41.1722 31.6356 41.1988 31.8375C41.2253 32.0395 41.1368 32.2393 40.9693 32.3552L37.3577 34.8556L41.8007 39.2983C41.9027 39.4002 41.9599 39.5385 41.9599 39.6826C41.9599 39.8268 41.9027 39.965 41.8008 40.0669L39.8866 41.981C39.7847 42.083 39.6465 42.1402 39.5023 42.1402C39.3582 42.1402 39.22 42.083 39.118 41.981L34.6753 37.5379L32.175 41.1496C32.059 41.317 31.8592 41.4056 31.6572 41.3791C31.4553 41.3525 31.2852 41.2153 31.2165 41.0235L26.231 27.1062C26.1601 26.9083 26.2097 26.6873 26.3583 26.5386ZM27.6422 27.8224L31.8832 39.6615L34.1523 36.3838C34.244 36.2513 34.3898 36.1663 34.5503 36.1519C34.7108 36.1374 34.8695 36.1949 34.9834 36.3089L39.5024 40.8281L40.6479 39.6826L36.1286 35.1637C36.0146 35.0498 35.9571 34.8911 35.9716 34.7306C35.9861 34.5701 36.071 34.4243 36.2035 34.3326L39.4812 32.0634L27.6422 27.8224Z" fill="white"/>
</svg>
