<svg width="27" height="24" viewBox="0 0 27 24" fill="none" xmlns="http://www.w3.org/2000/svg">
<path d="M11.2066 16.2913C10.6549 16.2592 10.1035 16.222 9.55136 16.2004C9.46793 16.1972 9.36529 16.2491 9.29875 16.3054C7.86018 17.5223 6.28595 18.5288 4.48729 19.1832C4.20205 19.287 3.89715 19.345 3.59742 19.4063C3.32575 19.4618 3.09063 19.3764 2.92999 19.1548C2.76736 18.9304 2.78891 18.7004 2.9322 18.4668C3.38237 17.7329 3.81722 16.9895 4.08271 16.1712C4.18285 15.8625 4.22826 15.5372 4.29513 15.2187C4.32268 15.0877 4.27021 15.0085 4.14058 14.9382C1.78021 13.6564 0.502242 11.6661 0.0943879 9.12474C-0.328049 6.49194 0.687849 4.39103 2.73353 2.70239C4.31304 1.39851 6.17265 0.644688 8.19702 0.271135C10.8739 -0.222813 13.5076 -0.0565027 16.0637 0.890728C17.7873 1.52941 19.2777 2.49346 20.4414 3.90033C22.6142 6.52722 22.2551 10.127 20.4133 12.4527C19.144 14.0555 17.4402 15.0399 15.478 15.6464C14.0908 16.0752 12.6616 16.2487 11.2066 16.2913ZM5.38616 17.0932C5.69719 16.8823 5.96693 16.7229 6.20911 16.531C7.00451 15.901 7.78866 15.2577 8.58143 14.6245C8.6519 14.5682 8.75375 14.5162 8.84041 14.5171C9.10105 14.5198 9.3623 14.5422 9.62179 14.5701C11.5505 14.7769 13.4448 14.6435 15.2777 13.9997C16.9451 13.414 18.3669 12.4932 19.315 11.0113C20.7029 8.84213 20.6394 6.19936 18.4781 4.20114C17.5698 3.3614 16.5073 2.76588 15.3328 2.35193C13.2747 1.62644 11.1553 1.46636 8.99884 1.78208C7.27517 2.03439 5.65967 2.58289 4.24806 3.59574C2.32448 4.97597 1.3353 6.75831 1.8025 9.12212C2.20062 11.1363 3.26493 12.697 5.19861 13.6452C5.41767 13.7526 5.6402 13.8543 5.85285 13.9724C5.91229 14.0054 5.98538 14.0928 5.97892 14.1471C5.90859 14.7417 5.84546 15.3384 5.73494 15.9266C5.66457 16.3012 5.518 16.6624 5.38616 17.0932Z" fill="white"/>
<path d="M9.63747 17.9624C10.5091 17.9624 11.3259 18.003 12.1371 17.9549C14.7827 17.7981 17.298 17.1998 19.5404 15.7694C21.3578 14.6102 22.668 13.0411 23.4625 11.0893C23.6813 10.5518 23.7746 9.96691 23.9385 9.35496C24.3257 9.63691 24.7454 9.9076 25.1236 10.2244C26.3008 11.2107 26.8819 12.4828 26.9819 13.9692C27.0856 15.5103 26.7541 16.931 25.709 18.1475C25.1014 18.8548 24.3496 19.3895 23.5153 19.8186C23.3598 19.8986 23.3159 19.983 23.3305 20.1462C23.4252 21.2054 23.7114 22.2142 24.1753 23.1761C24.2774 23.3877 24.3109 23.5868 24.1618 23.7829C24.0138 23.9775 23.8042 24.0262 23.5668 23.9879C22.7997 23.8643 22.1301 23.5185 21.4886 23.1195C20.6261 22.5832 19.8361 21.9586 19.1327 21.2367C19.0308 21.1322 18.9358 21.137 18.8069 21.1454C16.045 21.3253 13.4177 20.9525 11.1231 19.3225C10.65 18.9864 10.2455 18.5605 9.81182 18.1735C9.75796 18.1254 9.71878 18.0619 9.63747 17.9624Z" fill="white"/>
<path d="M6.48331 10.0584C5.42459 10.0602 4.61271 9.30589 4.60989 8.31782C4.60708 7.32814 5.416 6.5636 6.469 6.5607C7.51914 6.55786 8.34565 7.32352 8.35059 8.30389C8.35552 9.28365 7.53289 10.0566 6.48331 10.0584Z" fill="white"/>
<path d="M13.2135 8.30284C13.2187 9.26506 12.4202 10.0471 11.4242 10.0553C10.4141 10.0637 9.59844 9.28918 9.59581 8.31908C9.59318 7.35125 10.3852 6.57504 11.3838 6.56672C12.3941 6.55831 13.2082 7.33074 13.2135 8.30284Z" fill="white"/>
<path d="M18.0556 8.3057C18.059 9.26886 17.2617 10.0476 16.264 10.0554C15.255 10.0633 14.4415 9.28795 14.4393 8.31633C14.4372 7.35028 15.2322 6.5735 16.2298 6.56678C17.2402 6.55993 18.0521 7.33324 18.0556 8.3057Z" fill="white"/>
</svg>
