<svg width="69" height="69" viewBox="0 0 69 69" fill="none" xmlns="http://www.w3.org/2000/svg">
<path fill-rule="evenodd" clip-rule="evenodd" d="M26.9887 20.5331C26.9887 22.3229 25.6259 23.7714 23.4947 23.7714C21.4466 23.7714 20.0838 22.3229 20.126 20.5331C20.0838 18.6563 21.4465 17.25 23.5355 17.25C25.6259 17.25 26.9478 18.6563 26.9887 20.5331ZM20.2973 47.1774V26.3296H26.7765V47.1761H20.2973V47.1774Z" fill="white"/>
<path fill-rule="evenodd" clip-rule="evenodd" d="M31.9702 32.9836C31.9702 30.3833 31.8845 28.1664 31.7988 26.3331H37.4266L37.7258 29.1892H37.8536C38.7064 27.8673 40.8376 25.8652 44.2907 25.8652C48.553 25.8652 51.7505 28.6791 51.7505 34.8156V47.1809H45.2712V35.6275C45.2712 32.9402 44.3342 31.1082 41.9895 31.1082C40.1983 31.1082 39.1334 32.3444 38.7077 33.5372C38.5364 33.9642 38.452 34.5599 38.452 35.1583V47.1809H31.9728V32.9836H31.9702Z" fill="white"/>
</svg>
