<svg width="69" height="69" viewBox="0 0 69 69" fill="none" xmlns="http://www.w3.org/2000/svg">
<path d="M34.5 20.3581C39.1059 20.3581 39.6515 20.3757 41.4705 20.4587C43.1523 20.5354 44.0657 20.8164 44.6736 21.0526C45.4787 21.3655 46.0534 21.7393 46.657 22.3429C47.2606 22.9466 47.6344 23.5212 47.9474 24.3264C48.1836 24.9343 48.4646 25.8476 48.5413 27.5295C48.6243 29.3484 48.6419 29.894 48.6419 34.4999C48.6419 39.1059 48.6243 39.6515 48.5413 41.4704C48.4646 43.1523 48.1836 44.0656 47.9474 44.6735C47.6344 45.4786 47.2606 46.0533 46.657 46.6569C46.0534 47.2605 45.4787 47.6343 44.6736 47.9473C44.0657 48.1835 43.1523 48.4645 41.4705 48.5412C39.6518 48.6242 39.1063 48.6418 34.5 48.6418C29.8937 48.6418 29.3483 48.6242 27.5295 48.5412C25.8477 48.4645 24.9343 48.1835 24.3264 47.9473C23.5213 47.6343 22.9466 47.2605 22.343 46.6569C21.7394 46.0533 21.3656 45.4786 21.0526 44.6735C20.8164 44.0656 20.5354 43.1523 20.4587 41.4704C20.3757 39.6515 20.3581 39.1059 20.3581 34.4999C20.3581 29.894 20.3757 29.3484 20.4587 27.5295C20.5354 25.8476 20.8164 24.9343 21.0526 24.3264C21.3656 23.5212 21.7394 22.9466 22.343 22.343C22.9466 21.7393 23.5213 21.3655 24.3264 21.0526C24.9343 20.8164 25.8477 20.5354 27.5295 20.4587C29.3485 20.3757 29.8941 20.3581 34.5 20.3581ZM34.5 17.25C29.8152 17.25 29.2277 17.2699 27.3878 17.3538C25.5518 17.4375 24.2978 17.7292 23.2006 18.1556C22.0663 18.5964 21.1043 19.1862 20.1452 20.1452C19.1862 21.1043 18.5964 22.0662 18.1556 23.2006C17.7292 24.2978 17.4376 25.5518 17.3538 27.3878C17.2699 29.2277 17.25 29.8151 17.25 34.4999C17.25 39.1847 17.2699 39.7722 17.3538 41.6121C17.4376 43.4481 17.7292 44.7021 18.1556 45.7993C18.5964 46.9336 19.1862 47.8956 20.1452 48.8547C21.1043 49.8137 22.0663 50.4035 23.2006 50.8442C24.2978 51.2707 25.5518 51.5623 27.3878 51.6461C29.2277 51.73 29.8152 51.7499 34.5 51.7499C39.1848 51.7499 39.7723 51.73 41.6121 51.6461C43.4482 51.5623 44.7022 51.2707 45.7994 50.8442C46.9337 50.4035 47.8957 49.8137 48.8548 48.8547C49.8138 47.8956 50.4036 46.9336 50.8444 45.7993C51.2708 44.7021 51.5624 43.4481 51.6462 41.6121C51.7301 39.7722 51.75 39.1847 51.75 34.4999C51.75 29.8151 51.7301 29.2277 51.6462 27.3878C51.5624 25.5518 51.2708 24.2978 50.8444 23.2006C50.4036 22.0662 49.8138 21.1043 48.8548 20.1452C47.8957 19.1862 46.9337 18.5964 45.7994 18.1556C44.7022 17.7292 43.4482 17.4375 41.6121 17.3538C39.7723 17.2699 39.1848 17.25 34.5 17.25Z" fill="white"/>
<path d="M34.5085 25.6504C29.6163 25.6504 25.6504 29.6163 25.6504 34.5084C25.6504 39.4007 29.6163 43.3665 34.5085 43.3665C39.4007 43.3665 43.3666 39.4007 43.3666 34.5084C43.3666 29.6163 39.4007 25.6504 34.5085 25.6504ZM34.5085 40.2584C31.3328 40.2584 28.7585 37.6841 28.7585 34.5084C28.7585 31.3328 31.3328 28.7585 34.5085 28.7585C37.6841 28.7585 40.2585 31.3328 40.2585 34.5084C40.2585 37.6841 37.6841 40.2584 34.5085 40.2584Z" fill="white"/>
<path d="M45.7845 25.2946C45.7845 26.4378 44.8577 27.3646 43.7145 27.3646C42.5713 27.3646 41.6445 26.4378 41.6445 25.2946C41.6445 24.1514 42.5713 23.2246 43.7145 23.2246C44.8577 23.2246 45.7845 24.1514 45.7845 25.2946Z" fill="white"/>
</svg>
