<svg width="54" height="54" viewBox="0 0 54 54" fill="none" xmlns="http://www.w3.org/2000/svg">
<path d="M54 27C54 41.9117 41.9117 54 27 54C12.0883 54 0 41.9117 0 27C0 12.0883 12.0883 0 27 0C41.9117 0 54 12.0883 54 27Z" fill="#C93131"/>
<path d="M41.9589 39.6005C41.7424 40.0251 41.3893 40.1355 40.9213 40.1335C37.6106 40.1183 34.3008 40.1264 30.99 40.1244C30.8535 40.1244 30.7119 40.1264 30.5836 40.091C30.2388 39.9947 30.0161 39.6502 30.0612 39.3148C30.1074 38.9703 30.3958 38.7017 30.754 38.6764C30.8515 38.6693 30.95 38.6734 31.0475 38.6734C34.3388 38.6734 37.629 38.6805 40.9203 38.6653C41.3873 38.6632 41.7413 38.7737 41.9599 39.1952V39.6015L41.9589 39.6005Z" fill="white"/>
<path d="M17.7736 30.4242C19.3017 30.4242 20.8298 30.4232 22.358 30.4242C22.9655 30.4242 23.2508 30.7069 23.2508 31.3138C23.2529 33.0354 23.2529 34.757 23.2508 36.4786C23.2508 37.0926 22.9553 37.3814 22.3323 37.3824C19.3058 37.3835 16.2793 37.3835 13.2528 37.3824C12.6463 37.3824 12.3466 37.0896 12.3456 36.4978C12.3435 34.7671 12.3435 33.0354 12.3456 31.3047C12.3456 30.7049 12.6339 30.4252 13.2477 30.4252C14.7563 30.4242 16.2649 30.4252 17.7725 30.4252L17.7736 30.4242ZM21.7514 35.9111V31.8985H13.8429V35.9111H21.7514Z" fill="white"/>
<path d="M35.9942 30.4242C37.512 30.4242 39.0299 30.4242 40.5488 30.4242C41.1481 30.4242 41.4324 30.7028 41.4335 31.2865C41.4345 33.0273 41.4345 34.7681 41.4335 36.509C41.4335 37.0906 41.142 37.3814 40.5519 37.3814C37.5059 37.3834 34.4599 37.3834 31.4139 37.3814C30.8392 37.3814 30.5467 37.0916 30.5456 36.5262C30.5436 34.7763 30.5436 33.0253 30.5456 31.2753C30.5456 30.7049 30.8309 30.4252 31.4118 30.4252C32.94 30.4232 34.4681 30.4252 35.9952 30.4252L35.9942 30.4242ZM32.0296 35.902H39.9402V31.8995H32.0296V35.902Z" fill="white"/>
<path d="M26.9146 15.0505C28.4233 15.0505 29.9319 15.0505 31.4395 15.0505C32.0563 15.0505 32.3334 15.3231 32.3344 15.9321C32.3365 17.6628 32.3365 19.3945 32.3344 21.1252C32.3344 21.7281 32.0481 22.0098 31.4375 22.0098C28.411 22.0098 25.3845 22.0098 22.358 22.0098C21.7309 22.0098 21.4456 21.7261 21.4446 21.108C21.4446 19.3773 21.4446 17.6456 21.4446 15.9149C21.4446 15.3343 21.736 15.0505 22.3303 15.0505C23.8584 15.0495 25.3865 15.0505 26.9146 15.0505ZM22.9275 20.6094H30.8392V16.5228H22.9275V20.6105V20.6094Z" fill="white"/>
<path d="M26.8828 24.8409C25.1987 24.8409 23.5146 24.843 21.8305 24.8399C21.2947 24.8389 20.9632 24.5491 20.9663 24.1023C20.9694 23.7537 21.229 23.4527 21.5821 23.399C21.6878 23.3828 21.7966 23.3808 21.9043 23.3808C25.2428 23.3808 28.5813 23.3808 31.9209 23.3788C32.2369 23.3788 32.5264 23.4173 32.7234 23.699C33.0231 24.1245 32.7983 24.7041 32.2842 24.8116C32.1518 24.8389 32.0122 24.8399 31.8757 24.8399C30.2111 24.842 28.5464 24.8409 26.8828 24.8409Z" fill="white"/>
<path d="M17.8238 40.1264C16.1202 40.1264 14.4166 40.1355 12.713 40.1153C12.4923 40.1122 12.2388 39.9998 12.0644 39.8599C11.8601 39.6978 11.8068 39.4323 11.9135 39.1699C12.0284 38.8872 12.2368 38.7159 12.5467 38.6774C12.6144 38.6693 12.6832 38.6724 12.752 38.6724C16.1305 38.6724 19.508 38.6734 22.8865 38.6693C23.1544 38.6693 23.3945 38.7149 23.5782 38.9166C23.7701 39.1273 23.8338 39.3796 23.727 39.6441C23.6141 39.9228 23.3986 40.1062 23.0835 40.1193C22.712 40.1345 22.3395 40.1254 21.968 40.1254C20.5876 40.1254 19.2062 40.1254 17.8259 40.1254L17.8238 40.1264Z" fill="white"/>
<path d="M15.7436 22.0777C15.7487 22.4648 15.4028 22.8083 14.9954 22.8184C14.588 22.8285 14.2278 22.5023 14.2154 22.1132C14.2031 21.6987 14.5387 21.3674 14.9739 21.3654C15.3926 21.3643 15.7374 21.6825 15.7436 22.0767V22.0777Z" fill="white"/>
<path d="M38.837 21.3664C39.2608 21.3623 39.6015 21.6724 39.6098 22.0706C39.619 22.4769 39.267 22.8215 38.8452 22.8194C38.4398 22.8174 38.0847 22.48 38.0826 22.0929C38.0796 21.6987 38.4203 21.3704 38.837 21.3664Z" fill="white"/>
<path d="M14.9769 25.8026C14.5551 25.8026 14.2185 25.4864 14.2154 25.0872C14.2124 24.6808 14.5695 24.3414 14.9923 24.3505C15.3998 24.3586 15.7477 24.6991 15.7436 25.0872C15.7395 25.4824 15.3967 25.8026 14.978 25.8026H14.9769Z" fill="white"/>
<path d="M38.8606 25.8026C38.4388 25.8076 38.0929 25.4955 38.0816 25.0993C38.0703 24.7001 38.4295 24.3485 38.8493 24.3495C39.2618 24.3495 39.6067 24.6788 39.6098 25.073C39.6128 25.4742 39.2813 25.7965 38.8606 25.8015V25.8026Z" fill="white"/>
<path d="M18.9835 19.1878C18.9784 19.584 18.6336 19.9052 18.2169 19.9032C17.8074 19.9012 17.4564 19.5668 17.4544 19.1777C17.4523 18.7774 17.8187 18.438 18.2415 18.4491C18.6582 18.4592 18.9887 18.7886 18.9835 19.1878Z" fill="white"/>
<path d="M35.6083 19.9022C35.1916 19.9042 34.8478 19.583 34.8417 19.1868C34.8355 18.7764 35.1834 18.443 35.6124 18.4481C36.0239 18.4521 36.3718 18.7875 36.3698 19.1777C36.3677 19.5668 36.0167 19.9001 35.6073 19.9022H35.6083Z" fill="white"/>
<path d="M14.9718 27.3509C15.3895 27.3488 15.7364 27.668 15.7436 28.0612C15.7518 28.4635 15.3926 28.807 14.9698 28.8029C14.5541 28.7989 14.2154 28.4716 14.2154 28.0733C14.2154 27.6731 14.55 27.3529 14.9718 27.3509Z" fill="white"/>
<path d="M38.8441 27.3509C39.267 27.3498 39.6046 27.665 39.6098 28.0642C39.6149 28.4746 39.2649 28.809 38.8359 28.8029C38.4264 28.7968 38.0785 28.4594 38.0816 28.0703C38.0837 27.6771 38.4285 27.3519 38.8441 27.3509Z" fill="white"/>
<path d="M15.7436 19.1685C15.7467 19.5597 15.4028 19.8951 14.9913 19.9022C14.5767 19.9093 14.2257 19.5901 14.2154 19.1959C14.2052 18.7855 14.549 18.4481 14.978 18.4481C15.3905 18.4481 15.7395 18.7774 15.7436 19.1685Z" fill="white"/>
<path d="M38.8585 19.9022C38.447 19.9082 38.0919 19.583 38.0816 19.1918C38.0714 18.8017 38.4111 18.4603 38.8226 18.4481C39.2506 18.4349 39.6087 18.7653 39.6098 19.1716C39.6108 19.5688 39.2742 19.8961 38.8575 19.9022H38.8585Z" fill="white"/>
<path d="M25.2859 33.5005C25.7108 33.4995 26.0454 33.8096 26.0505 34.2108C26.0557 34.6192 25.7026 34.9586 25.2788 34.9526C24.8744 34.9465 24.5193 34.602 24.5214 34.2189C24.5234 33.8258 24.8682 33.5015 25.2849 33.5005H25.2859Z" fill="white"/>
<path d="M28.5444 33.5005C28.9611 33.5036 29.3049 33.8309 29.3038 34.224C29.3038 34.608 28.9457 34.9495 28.5413 34.9536C28.1185 34.9566 27.7665 34.6151 27.7747 34.2068C27.7829 33.8055 28.1175 33.4985 28.5444 33.5005Z" fill="white"/>
</svg>
