<svg width="255" height="69" viewBox="0 0 255 69" fill="none" xmlns="http://www.w3.org/2000/svg">
<path d="M105.253 34.8231H104.284V29.8843C102.974 33.1243 100.117 35.1358 96.4474 35.1358C91.4938 35.1358 87.4576 30.9019 87.4576 25.6789C87.4576 20.4784 91.4938 16.2466 96.4474 16.2466C100.484 16.2466 103.602 18.521 104.888 22.2812H103.838C102.632 19.1197 99.9339 17.213 96.4474 17.213C92.018 17.213 88.4273 21.0273 88.4273 25.6788C88.4273 30.3804 92.0178 34.1682 96.4474 34.1682C100.746 34.1682 103.865 31.0341 104.257 26.4876H96.6294V25.5211H105.253V34.8231Z" fill="white"/>
<path d="M121.657 34.8225H120.661C120.425 34.3245 120.293 33.6992 120.293 32.8618V30.2238C120.293 27.3507 118.197 26.7221 116.441 26.7221H109.705V34.8224H108.735V16.6899H116.389C119.743 16.6899 121.814 18.624 121.814 21.7061C121.814 23.8755 120.634 25.5205 118.775 26.2509C120.372 26.8538 121.264 28.2116 121.264 30.224V32.6267C121.264 33.307 121.448 34.2992 121.657 34.8225ZM120.818 21.7061C120.818 19.1456 119.22 17.6566 116.389 17.6566H109.705V25.7824H116.493C118.643 25.7823 120.818 24.5019 120.818 21.7061Z" fill="white"/>
<path d="M138.742 28.3427C138.742 32.3404 135.886 35.1597 131.771 35.1597C127.681 35.1597 124.798 32.3404 124.798 28.3427V16.6899H125.768V28.3427C125.768 31.8169 128.206 34.1676 131.771 34.1676C135.362 34.1676 137.773 31.8169 137.773 28.3427V16.6899H138.742V28.3427Z" fill="white"/>
<path d="M150.142 26.7488H143.776V34.8225H142.805V16.6899H150.064C153.395 16.6899 155.464 18.624 155.464 21.7061C155.464 24.6843 153.289 26.7488 150.142 26.7488ZM150.064 17.6566H143.776V25.7824H150.142C152.319 25.7824 154.494 24.5021 154.494 21.7063C154.494 19.1456 152.87 17.6566 150.064 17.6566Z" fill="white"/>
<path d="M174.909 25.6789C174.909 30.9019 170.873 35.1358 165.919 35.1358C160.964 35.1358 156.928 30.9019 156.928 25.6789C156.928 20.4784 160.964 16.2466 165.919 16.2466C170.978 16.2464 174.909 20.3745 174.909 25.6789ZM173.913 25.6789C173.913 20.9225 170.402 17.2132 165.919 17.2132C161.49 17.2132 157.899 21.0274 157.899 25.6789C157.899 30.3806 161.49 34.1683 165.919 34.1683C170.349 34.1683 173.913 30.3559 173.913 25.6789Z" fill="white"/>
<path d="M185.101 28.3428H180.829V34.8227H177.37V16.6899H185.024C188.824 16.6899 191.027 18.9887 191.027 22.5433C191.027 25.9117 188.693 28.3428 185.101 28.3428ZM180.829 19.9034V25.1813H184.998C186.596 25.1813 187.566 24.3706 187.566 22.5433C187.566 20.7142 186.596 19.9032 184.998 19.9032H180.829V19.9034Z" fill="white"/>
<path d="M196.892 34.8225H193.433V16.6899H196.892V34.8225Z" fill="white"/>
<path d="M213.77 34.8225H200.299V16.6899H213.587V19.9032H203.758V23.7716H212.145V26.984H203.758V31.6071H213.77V34.8225Z" fill="white"/>
<path d="M95.6892 50.9667H91.5682V57.2144H88.233V39.7316H95.6124C99.2766 39.7316 101.399 41.948 101.399 45.3752C101.399 48.6231 99.1499 50.9667 95.6892 50.9667ZM91.5682 42.8309V47.9184H95.587C97.1279 47.9184 98.0638 47.1372 98.0638 45.375C98.0638 43.611 97.1279 42.8309 95.587 42.8309H91.5682Z" fill="white"/>
<path d="M120.023 48.3972C120.023 53.4867 116.411 57.516 111.457 57.516C106.478 57.516 102.864 53.4867 102.864 48.3972C102.864 43.3352 106.478 39.3038 111.457 39.3038C116.411 39.3037 120.023 43.335 120.023 48.3972ZM116.663 48.3972C116.663 45.1482 114.338 42.4531 111.456 42.4531C108.549 42.4531 106.226 45.1482 106.226 48.3972C106.226 51.6737 108.549 54.3666 111.456 54.3666C114.338 54.3666 116.663 51.6737 116.663 48.3972Z" fill="white"/>
<path d="M136.373 57.2146H132.988C132.785 56.7347 132.633 56.1053 132.633 55.2987V52.6281C132.633 51.1442 131.926 50.4617 130.359 50.4617H125.812V57.2144H122.474V39.7316H130.485C134.15 39.7316 136.499 41.6708 136.499 44.9453C136.499 46.9355 135.566 48.2208 134.049 48.9267C135.286 49.6059 135.969 50.816 135.969 52.6544V55.0978C135.969 55.7256 136.172 56.7094 136.373 57.2146ZM130.561 47.4653C130.991 47.4653 133.165 47.2881 133.165 45.1217C133.165 44.5443 133.165 42.8312 130.485 42.8312H125.811V47.4653H130.561Z" fill="white"/>
<path d="M145.903 42.831V57.2146H142.565V42.831H137.867V39.7316H150.602V42.831H145.903Z" fill="white"/>
<path d="M165.991 50.2875C165.991 54.7444 163.639 57.5149 159.218 57.5149C154.797 57.5149 152.471 54.7445 152.471 50.2875V39.7316H155.806V50.3882C155.806 52.9825 156.943 54.2912 159.218 54.2912C161.493 54.2912 162.63 52.9825 162.63 50.3882V39.7316H165.991V50.2875H165.991Z" fill="white"/>
<path d="M185.065 57.2155H181.982V55.3251C180.82 56.7102 178.951 57.516 176.777 57.516C172.001 57.516 168.261 53.5366 168.261 48.4227C168.261 43.3097 172.001 39.3038 176.777 39.3038C180.668 39.3038 183.65 41.4967 184.736 45.1227H181.151C180.465 43.5879 178.799 42.328 176.777 42.328C173.871 42.328 171.597 45.0984 171.597 48.4228C171.597 51.7228 173.946 54.4922 176.928 54.4922C179.43 54.4922 181.377 52.7811 182.008 50.5893H177.257V47.491H185.065V57.2155H185.065Z" fill="white"/>
<path d="M191.209 53.7127L190.021 57.2144H186.484L192.599 39.7316H196.82L202.935 57.2144H199.398L198.21 53.7127H191.209ZM194.697 43.434L192.246 50.6144H197.148L194.697 43.434Z" fill="white"/>
<path d="M208.166 54.114H216.884V57.2144H204.805V39.7316H208.166V54.114Z" fill="white"/>
<path d="M230.706 44.4435H229.772C229.772 41.8727 227.825 40.186 224.818 40.186C221.812 40.186 219.815 41.6965 219.815 43.9394C219.815 45.8531 221.28 46.885 225.02 47.6426C228.963 48.4473 231.237 49.5056 231.237 52.5274C231.237 55.5759 228.684 57.5416 224.742 57.5416C221.685 57.5416 218.399 55.7511 218.399 51.8991H219.335C219.335 55.1227 222.063 56.5832 224.742 56.5832C228.179 56.5832 230.302 55.0472 230.302 52.5274C230.302 50.361 228.939 49.3803 224.843 48.548C221.735 47.9451 218.881 46.9358 218.881 43.9392C218.881 41.1412 221.256 39.2785 224.818 39.2785C228.887 39.2786 230.706 41.8727 230.706 44.4435Z" fill="white"/>
<path d="M234.568 57.2153H233.634V54.8707H234.568V57.2153Z" fill="white"/>
<path d="M240.029 51.1929L237.704 57.2144H236.694L243.416 39.7316H244.452L251.173 57.2144H250.164L247.838 51.1929H240.029ZM243.921 41.0159L240.383 50.26H247.483L243.921 41.0159Z" fill="white"/>
<path d="M254.255 57.2153H253.32V54.8707H254.255V57.2153Z" fill="white"/>
<path d="M37.4893 67.8161C35.9065 69.3948 33.3151 69.3948 31.7313 67.8161L1.18858 37.3706C-0.396193 35.792 -0.396193 33.2079 1.18858 31.6302L31.7313 1.18488C33.3151 -0.39496 35.9065 -0.39496 37.4893 1.18488L68.033 31.6304C69.6168 33.2081 69.6168 35.792 68.033 37.3708L37.4893 67.8161Z" fill="#C3161C"/>
<path d="M15.768 38.1615C15.768 34.7046 17.9864 32.8437 21.5147 32.8437H25.3628C26.5583 32.8437 27.4647 31.8823 27.4647 30.6905C27.4647 29.5579 26.5337 28.5679 25.3955 28.5679H15.768V25.3699H24.8969C28.9533 25.3699 30.672 27.8113 30.672 30.7517C30.672 33.3071 29.0984 36.0387 24.8969 36.0387H20.9609C19.8227 36.0387 18.9776 37.0583 18.9776 38.2225V43.6297H15.768V38.1615ZM33.0058 25.3699H36.2142V43.6299H33.0058V25.3699ZM43.8268 28.5681H53.4521V25.3699H44.3223C40.3546 25.3699 38.5481 27.6096 38.5481 30.7517V38.2225C38.5481 40.8971 40.0645 43.6297 44.3223 43.6297H53.4521V40.4306H43.8543C42.6006 40.4306 41.7545 39.4997 41.7545 38.1613C41.7545 37.0277 42.6884 36.0387 43.8268 36.0387H53.4521V32.8438H43.8543C42.6006 32.8438 41.7545 31.8825 41.7545 30.6907C41.7545 29.5581 42.6884 28.5681 43.8268 28.5681Z" fill="white"/>
</svg>
