<svg width="190" height="52" viewBox="0 0 190 52" fill="none" xmlns="http://www.w3.org/2000/svg">
<g id="Logo">
<g id="Group">
<path id="Vector" d="M78.6542 26.0231H77.9296V22.3325C76.9506 24.7536 74.8158 26.2568 72.0738 26.2568C68.372 26.2568 65.3558 23.0929 65.3558 19.1898C65.3558 15.3036 68.372 12.1412 72.0738 12.1412C75.0899 12.1412 77.4203 13.8409 78.3809 16.6507H77.5967C76.6957 14.2882 74.6791 12.8634 72.0738 12.8634C68.7637 12.8634 66.0805 15.7137 66.0805 19.1897C66.0805 22.7031 68.7636 25.5337 72.0738 25.5337C75.286 25.5337 77.6165 23.1917 77.9097 19.7941H72.2097V19.0719H78.6542V26.0231Z" fill="#0F0F0F"/>
<path id="Vector_2" d="M90.9129 26.0231H90.1684C89.992 25.6509 89.8935 25.1837 89.8935 24.5579V22.5866C89.8935 20.4396 88.3274 19.9698 87.0148 19.9698H81.9813V26.023H81.2566V12.473H86.9758C89.4826 12.473 91.0296 13.9183 91.0296 16.2215C91.0296 17.8426 90.1484 19.0719 88.7587 19.6177C89.9521 20.0683 90.6188 21.0829 90.6188 22.5867V24.3822C90.6189 24.8906 90.7563 25.632 90.9129 26.0231ZM90.2859 16.2215C90.2859 14.308 89.0918 13.1953 86.9759 13.1953H81.9813V19.2677H87.0537C88.6603 19.2675 90.2859 18.3107 90.2859 16.2215Z" fill="#0F0F0F"/>
<path id="Vector_3" d="M103.681 21.1808C103.681 24.1683 101.546 26.2751 98.4715 26.2751C95.4149 26.2751 93.261 24.1683 93.261 21.1808V12.473H93.9855V21.1808C93.9855 23.7771 95.8074 25.5337 98.4715 25.5337C101.155 25.5337 102.957 23.7771 102.957 21.1808V12.473H103.681V21.1808Z" fill="#0F0F0F"/>
<path id="Vector_4" d="M112.199 19.9898H107.441V26.0231H106.716V12.473H112.14C114.63 12.473 116.176 13.9183 116.176 16.2215C116.176 18.447 114.55 19.9898 112.199 19.9898ZM112.14 13.1953H107.441V19.2677H112.199C113.826 19.2677 115.451 18.3109 115.451 16.2216C115.451 14.308 114.237 13.1953 112.14 13.1953Z" fill="#0F0F0F"/>
<path id="Vector_5" d="M130.706 19.1898C130.706 23.0929 127.69 26.2568 123.988 26.2568C120.286 26.2568 117.27 23.0929 117.27 19.1898C117.27 15.3036 120.286 12.1412 123.988 12.1412C127.769 12.1411 130.706 15.226 130.706 19.1898ZM129.962 19.1898C129.962 15.6355 127.338 12.8636 123.988 12.8636C120.678 12.8636 117.995 15.7139 117.995 19.1898C117.995 22.7033 120.678 25.5338 123.988 25.5338C127.299 25.5338 129.962 22.6849 129.962 19.1898Z" fill="#0F0F0F"/>
<path id="Vector_6" d="M138.322 21.181H135.129V26.0232H132.545V12.473H138.264C141.103 12.473 142.75 14.1908 142.75 16.8471C142.75 19.3642 141.006 21.181 138.322 21.181ZM135.129 14.8743V18.8184H138.245C139.439 18.8184 140.163 18.2126 140.163 16.8471C140.163 15.4802 139.439 14.8742 138.245 14.8742H135.129V14.8743Z" fill="#0F0F0F"/>
<path id="Vector_7" d="M147.134 26.0231H144.549V12.473H147.134V26.0231Z" fill="#0F0F0F"/>
<path id="Vector_8" d="M159.747 26.0231H149.68V12.473H159.611V14.8742H152.265V17.765H158.533V20.1656H152.265V23.6203H159.747V26.0231Z" fill="#0F0F0F"/>
<path id="Vector_9" d="M71.5087 38.0871H68.4292V42.7559H65.9368V29.6913H71.4513C74.1895 29.6913 75.7754 31.3476 75.7754 33.9087C75.7756 36.3358 74.0949 38.0871 71.5087 38.0871ZM68.4292 32.0074V35.8091H71.4323C72.5839 35.8091 73.2832 35.2254 73.2832 33.9086C73.2832 32.5904 72.5839 32.0074 71.4323 32.0074H68.4292Z" fill="#0F0F0F"/>
<path id="Vector_10" d="M89.6916 36.1662C89.6916 39.9694 86.9923 42.9805 83.2898 42.9805C79.5697 42.9805 76.8689 39.9694 76.8689 36.1662C76.8689 32.3834 79.5697 29.3709 83.2898 29.3709C86.9923 29.3708 89.6916 32.3833 89.6916 36.1662ZM87.1802 36.1662C87.1802 33.7382 85.443 31.7243 83.2897 31.7243C81.1174 31.7243 79.381 33.7382 79.381 36.1662C79.381 38.6146 81.1174 40.627 83.2897 40.627C85.443 40.627 87.1802 38.6146 87.1802 36.1662Z" fill="#0F0F0F"/>
<path id="Vector_11" d="M101.91 42.756H99.3802C99.2289 42.3974 99.1152 41.9271 99.1152 41.3243V39.3286C99.1152 38.2198 98.5868 37.7097 97.4155 37.7097H94.0176V42.7559H91.5237V29.6913H97.5102C100.249 29.6913 102.004 31.1405 102.004 33.5875C102.004 35.0747 101.307 36.0352 100.173 36.5627C101.098 37.0702 101.608 37.9745 101.608 39.3483V41.1742C101.608 41.6433 101.76 42.3785 101.91 42.756ZM97.5666 35.4706C97.8881 35.4706 99.513 35.3382 99.513 33.7193C99.513 33.2877 99.513 32.0076 97.5102 32.0076H94.0175V35.4706H97.5666Z" fill="#0F0F0F"/>
<path id="Vector_12" d="M109.03 32.0075V42.756H106.536V32.0075H103.026V29.6913H112.542V32.0075H109.03Z" fill="#0F0F0F"/>
<path id="Vector_13" d="M124.042 37.5795C124.042 40.9101 122.285 42.9804 118.981 42.9804C115.677 42.9804 113.939 40.9102 113.939 37.5795V29.6913H116.431V37.6548C116.431 39.5935 117.281 40.5714 118.981 40.5714C120.681 40.5714 121.531 39.5935 121.531 37.6548V29.6913H124.042V37.5795H124.042Z" fill="#0F0F0F"/>
<path id="Vector_14" d="M138.297 42.756H135.993V41.3433C135.124 42.3783 133.728 42.9805 132.104 42.9805C128.534 42.9805 125.739 40.0068 125.739 36.1852C125.739 32.3644 128.534 29.3709 132.104 29.3709C135.011 29.3709 137.24 31.0096 138.051 33.7192H135.372C134.86 32.5722 133.614 31.6308 132.104 31.6308C129.932 31.6308 128.233 33.701 128.233 36.1853C128.233 38.6514 129.988 40.7208 132.216 40.7208C134.086 40.7208 135.541 39.4422 136.013 37.8043H132.462V35.489H138.297V42.756H138.297Z" fill="#0F0F0F"/>
<path id="Vector_15" d="M142.886 40.1391L141.999 42.7559H139.356L143.926 29.6913H147.08L151.649 42.7559H149.006L148.118 40.1391H142.886ZM145.493 32.4581L143.661 37.8239H147.325L145.493 32.4581Z" fill="#0F0F0F"/>
<path id="Vector_16" d="M155.559 40.439H162.073V42.7559H153.046V29.6913H155.559V40.439Z" fill="#0F0F0F"/>
<path id="Vector_17" d="M172.401 33.2119H171.703C171.703 31.2908 170.249 30.0303 168.002 30.0303C165.755 30.0303 164.263 31.1591 164.263 32.8351C164.263 34.2652 165.358 35.0363 168.153 35.6025C171.099 36.2038 172.798 36.9946 172.798 39.2528C172.798 41.5308 170.891 42.9998 167.945 42.9998C165.66 42.9998 163.205 41.6618 163.205 38.7833H163.904C163.904 41.1922 165.943 42.2836 167.945 42.2836C170.514 42.2836 172.099 41.1358 172.099 39.2528C172.099 37.6339 171.081 36.901 168.02 36.2791C165.698 35.8285 163.565 35.0742 163.565 32.835C163.565 30.7441 165.34 29.3521 168.001 29.3521C171.042 29.3522 172.401 31.2908 172.401 33.2119Z" fill="#0F0F0F"/>
<path id="Vector_18" d="M175.289 42.7561H174.59V41.004H175.289V42.7561Z" fill="#0F0F0F"/>
<path id="Vector_19" d="M179.369 38.2561L177.631 42.7559H176.877L181.9 29.6913H182.674L187.697 42.7559H186.942L185.205 38.2561H179.369ZM182.277 30.6511L179.634 37.559H184.939L182.277 30.6511Z" fill="#0F0F0F"/>
<path id="Vector_20" d="M190 42.7561H189.301V41.004H190V42.7561Z" fill="#0F0F0F"/>
</g>
<g id="Group_2">
<path id="Vector_21" d="M28.015 50.6777C26.8322 51.8574 24.8957 51.8574 23.7122 50.6777L0.888201 27.9263C-0.296067 26.7466 -0.296067 24.8156 0.888201 23.6366L23.7122 0.885437C24.8957 -0.295146 26.8322 -0.295146 28.015 0.885437L50.8397 23.6368C52.0232 24.8157 52.0232 26.7466 50.8397 27.9265L28.015 50.6777Z" fill="#C3161C"/>
<path id="Vector_22" d="M11.7832 28.5185C11.7832 25.9352 13.4409 24.5446 16.0775 24.5446H18.9532C19.8465 24.5446 20.5238 23.8262 20.5238 22.9355C20.5238 22.0892 19.8282 21.3494 18.9776 21.3494H11.7832V18.9595H18.605C21.6363 18.9595 22.9206 20.784 22.9206 22.9813C22.9206 24.8909 21.7447 26.9322 18.605 26.9322H15.6637C14.8131 26.9322 14.1816 27.6941 14.1816 28.5641V32.6048H11.7832V28.5185ZM24.6646 18.9595H27.0622V32.6049H24.6646V18.9595ZM32.7509 21.3495H39.9437V18.9595H33.1212C30.1563 18.9595 28.8063 20.6332 28.8063 22.9813V28.5641C28.8063 30.5627 29.9394 32.6048 33.1212 32.6048H39.9437V30.2142H32.7715C31.8346 30.2142 31.2023 29.5185 31.2023 28.5183C31.2023 27.6712 31.9002 26.9322 32.7509 26.9322H39.9437V24.5447H32.7715C31.8346 24.5447 31.2023 23.8263 31.2023 22.9357C31.2023 22.0893 31.9002 21.3495 32.7509 21.3495Z" fill="white"/>
</g>
</g>
</svg>
