<svg xmlns="http://www.w3.org/2000/svg" viewBox="0 0 151.748 51.563" fill="none">
  <!-- Diamond with white PIE -->
  <g>
    <path d="M28.015 50.6778C26.8323 51.8575 24.8958 51.8575 23.7123 50.6778L0.888203 27.9264C-0.296068 26.7467 -0.296068 24.8157 0.888203 23.6367L23.7123 0.88544C24.8958 -0.295147 26.8323 -0.295147 28.015 0.88544L50.8398 23.6368C52.0234 24.8158 52.0234 26.7467 50.8398 27.9265L28.015 50.6778Z" fill="#C3161C"/>
    <path d="M11.7832 28.5185C11.7832 25.9353 13.441 24.5446 16.0776 24.5446H18.9532C19.8466 24.5446 20.5239 23.8262 20.5239 22.9356C20.5239 22.0892 19.8282 21.3495 18.9777 21.3495H11.7832V18.9596H18.605C21.6363 18.9596 22.9207 20.784 22.9207 22.9814C22.9207 24.891 21.7448 26.9323 18.605 26.9323H15.6638C14.8132 26.9323 14.1817 27.6942 14.1817 28.5642V32.6048H11.7832V28.5185ZM24.6647 18.9596H27.0623V32.605H24.6647V18.9596ZM32.751 21.3496H39.9439V18.9596H33.1213C30.1563 18.9596 28.8063 20.6333 28.8063 22.9814V28.5642C28.8063 30.5628 29.9395 32.6048 33.1213 32.6048H39.9439V30.2142H32.7716C31.8347 30.2142 31.2024 29.5186 31.2024 28.5184C31.2024 27.6713 31.9003 26.9323 32.751 26.9323H39.9439V24.5448H32.7716C31.8347 24.5448 31.2024 23.8264 31.2024 22.9357C31.2024 22.0894 31.9003 21.3496 32.751 21.3496Z" fill="#FFFFFF"/>
  </g>
  <!-- GRUPOPIE (top) -->
  <g transform="translate(56.5, 8)">
    <g fill="#0F0F0F">
      <path d="M13.2984 13.8819H12.5738V10.1913C11.5949 12.6124 9.46003 14.1156 6.71798 14.1156C3.01619 14.1156 0 10.9517 0 7.04865C0 3.16241 3.01619 0 6.71798 0C9.73417 0 12.0645 1.69966 13.0251 4.50955H12.2409C11.34 2.14702 9.32333 0.722226 6.71798 0.722226C3.40793 0.722226 0.724677 3.57255 0.724677 7.04853C0.724677 10.562 3.4078 13.3925 6.71798 13.3925C9.93029 13.3925 12.2607 11.0505 12.554 7.65292H6.85394V6.93069H13.2984V13.8819V13.8819Z"/>
      <path d="M25.5571 13.8819H24.8126C24.6362 13.5097 24.5377 13.0425 24.5377 12.4167V10.4454C24.5377 8.29835 22.9716 7.82861 21.6591 7.82861H16.6255V13.8818H15.9009V0.331737H21.62C24.1269 0.331737 25.6739 1.77705 25.6739 4.08024C25.6739 5.70138 24.7926 6.93068 23.403 7.47646C24.5964 7.92703 25.263 8.94169 25.263 10.4455V12.241C25.2632 12.7494 25.4006 13.4908 25.5571 13.8819ZM24.9302 4.08024C24.9302 2.16679 23.736 1.05409 21.6202 1.05409H16.6255V7.12642H21.6979C23.3046 7.12629 24.9302 6.16951 24.9302 4.08024Z"/>
      <path d="M38.3249 9.03961C38.3249 12.0271 36.1907 14.1339 33.1158 14.1339C30.0592 14.1339 27.9052 12.0271 27.9052 9.03961V0.331737H28.6298V9.03961C28.6298 11.6358 30.4517 13.3925 33.1158 13.3925C35.7991 13.3925 37.6011 11.6358 37.6011 9.03961V0.331737H38.3249V9.03961Z"/>
      <path d="M46.8435 7.84852H42.0857V13.8819H41.3603V0.331737H46.7847C49.2739 0.331737 50.8203 1.77705 50.8203 4.08024C50.8202 6.30577 49.1945 7.84852 46.8435 7.84852ZM46.7847 1.05409H42.0857V7.12642H46.8435C48.47 7.12642 50.0956 6.16963 50.0956 4.08036C50.0955 2.16679 48.8815 1.05409 46.7847 1.05409Z"/>
      <path d="M65.3506 7.04865C65.3506 10.9517 62.3345 14.1156 58.6326 14.1156C54.9301 14.1156 51.914 10.9517 51.914 7.04865C51.914 3.16241 54.9301 3.71688e-09 58.6326 3.71688e-09C62.4132 -0.000123644 65.3506 3.08476 65.3506 7.04865ZM64.6062 7.04865C64.6062 3.49428 61.9825 0.72235 58.6327 0.72235C55.3227 0.72235 52.6394 3.57267 52.6394 7.04865C52.6394 10.5621 55.3225 13.3926 58.6327 13.3926C61.9429 13.3926 64.6062 10.5437 64.6062 7.04865Z"/>
      <path d="M72.9661 9.03974H69.7736V13.882H67.1889V0.331737H72.908C75.7477 0.331737 77.394 2.04957 77.394 4.70589C77.394 7.22298 75.6501 9.03974 72.9661 9.03974ZM69.7736 2.7331V6.6772H72.8889C74.0832 6.6772 74.8078 6.07133 74.8078 4.70589C74.8078 3.33897 74.0832 2.73297 72.8889 2.73297H69.7736V2.7331Z"/>
      <path d="M81.778 13.8819H79.1932V0.331737H81.778V13.8819Z"/>
      <path d="M94.3918 13.8819H84.3249V0.331737H94.2552V2.73297H86.9096V5.62373H93.1778V8.02434H86.9096V11.4791H94.3918V13.8819V13.8819Z"/>
    </g>
  </g>
  <!-- ANGOLA (bottom) -->
  <g transform="translate(56.5, 27)">
    <g fill="#232021">
      <path d="M53.6412 0.077767C56.0194 -0.0195737 58.2256 -0.0841381 60.2936 1.28252C61.5932 2.14195 62.5552 3.33723 62.9281 4.86123C62.9434 4.92149 63.2134 4.99478 63.2351 5.22925C63.2946 5.85488 63.2271 6.4581 63.3517 7.07916L63.338 7.0622L63.5848 7.01415C63.7841 7.32769 63.6707 9.08439 63.6217 9.51942L63.4457 9.47145C63.3557 9.53807 63.3452 9.51685 63.342 9.63409C63.2721 12.3072 61.7539 14.8138 59.2447 15.8413C58.8019 16.0226 58.3872 16.0419 57.9982 16.3686C57.7 16.4733 54.76 16.4625 54.3204 16.4411C52.8094 16.3431 50.7181 15.3714 49.7344 14.2265C46.7173 10.7048 47.0613 3.08901 51.5918 0.919394C52.1045 0.674041 52.5771 0.508335 53.1277 0.38308C53.1799 0.371075 53.5199 0.135983 53.6412 0.077767ZM56.9148 13.6925C57.1269 13.5894 57.1374 13.4472 57.2821 13.3534C57.4492 13.2447 57.7032 13.2098 57.8872 13.0995C58.74 12.5887 59.3773 11.667 59.6972 10.7411C60.2944 9.01456 60.263 6.83801 59.4561 5.18546C58.9546 4.16007 57.9805 3.33376 56.9027 2.96759C56.1528 2.71294 55.3732 2.75698 54.596 2.81241C54.1299 3.08739 53.0095 3.61338 52.7644 3.85994C50.5172 6.12383 50.7125 12.8135 54.4538 13.65C55.0509 13.7836 56.3313 13.7102 56.9148 13.6925Z"/>
      <path d="M37.2361 0.0655261C38.0824 0.0513918 39.0008 0.013497 39.8297 0.0336578C41.8436 0.0826255 44.1719 1.03093 45.3437 2.71914C45.6877 3.21519 45.3172 3.55101 45.9111 3.94215C46.1056 4.53042 45.6315 5.01054 45.3043 5.47506C42.7076 6.91155 42.8249 3.93372 40.8968 3.07786C38.8323 2.16162 35.981 3.024 35.0882 5.10367C34.0384 7.54908 34.1204 11.9755 36.8561 13.3345C38.0545 13.9298 39.8318 13.7564 41.1451 13.6588C41.33 13.645 41.3613 13.4734 41.4321 13.3517C42.0164 13.1915 42.763 13.1362 43.1416 12.5944C43.2404 12.1582 43.2589 10.9986 43.1134 10.5875C42.5356 10.0302 39.5632 11.1149 38.9664 9.63523C38.4533 8.70441 39.3449 7.71991 40.2916 7.75125C41.9087 7.80485 43.5426 7.71839 45.1549 7.79054C45.5262 7.80718 45.9674 8.56837 46.1667 8.87066L46.3106 8.84832C46.53 9.17359 46.3387 11.9785 46.4078 12.5653C46.7036 15.0666 42.8595 16.0332 41.0093 16.4131C40.4411 16.5298 38.7786 16.4518 38.0292 16.4547C36.1696 16.4619 34.1321 15.3805 32.8848 14.0121C29.5453 10.0928 30.4262 2.52448 35.6541 0.613363C36.4589 0.319155 36.5084 0.753886 37.2361 0.0655261Z"/>
      <path d="M19.1485 15.4648C18.5618 16.1334 18.7555 16.489 17.6768 16.4436C17.2766 16.4267 16.9502 16.486 16.5327 16.3761C16.4002 16.1181 16.0283 15.3264 16.0238 15.0446C15.9573 10.837 16.0063 6.62155 15.9987 2.41195C15.9743 1.78733 16.1604 0.977889 16.6151 0.509675C17.1043 0.00595204 18.0587 0.0290778 18.6775 0.0620792C18.9331 0.271948 19.4137 0.557791 19.5656 0.800548C19.9622 1.4344 20.365 2.05191 20.7834 2.67247L23.7274 7.08607C24.2294 7.83473 25.3669 9.42807 25.6629 10.1762C25.8906 10.2474 26.1047 10.6065 26.2479 10.8022C26.264 10.789 26.2591 10.7936 26.2763 10.7762C26.5834 10.4646 26.4419 2.4245 26.4226 1.42659C26.511 0.0562455 27.9193 -0.419586 28.9495 0.408919C29.2518 0.651989 29.1549 0.67939 29.2685 1.05829C29.1559 2.48555 29.1402 4.2669 29.1931 5.70648C29.2967 8.52505 29.0175 11.6542 29.2211 14.4372C29.2407 14.713 29.298 14.9849 29.3913 15.2453C28.9881 16.2933 28.4513 16.6164 27.2767 16.5102C26.9823 16.4835 26.5115 16.3714 26.2915 16.1733C25.2361 15.222 24.5491 13.8821 23.7647 12.7101C22.6032 10.9855 21.4984 9.3036 20.3712 7.5653C20.1274 7.18925 19.8665 6.81986 19.6279 6.44196C19.5391 6.30134 19.6004 6.261 19.4424 6.05417C19.4003 6.05449 19.3247 6.04219 19.296 6.07201C19.0312 6.34649 19.1489 14.4328 19.1485 15.4648Z"/>
      <path d="M2.37414 16.4297C1.38236 16.4685 0.0224844 16.5935 0.000703872 15.246C-0.00693138 14.7731 0.047158 14.1796 0.182181 13.7151C0.832383 11.9889 1.58385 10.089 2.30478 8.40316C3.18123 6.35381 4.47569 2.2715 5.57661 0.58307C6.46246 0.0518828 6.87532 -0.13089 7.96258 0.113594C8.37834 0.207078 8.61077 0.46777 8.96617 0.586276C9.57065 1.44459 10.2176 3.18394 10.6323 4.19369L13.0329 10.0887C13.5378 11.3069 14.051 12.5141 14.5819 13.7211C14.7238 14.3319 14.6937 15.0107 14.6762 15.6176C14.657 16.287 12.9345 16.6101 12.5523 16.47C11.6459 16.1375 11.1536 14.3783 10.8288 13.5313C10.7081 13.2164 10.5624 12.8767 10.4329 12.5533L10.3849 12.4335C9.85018 12.3082 4.74372 12.3078 4.27974 12.4787L4.19648 12.6617C3.63058 13.3471 3.3144 15.2385 2.37414 16.4297ZM5.26083 9.30545C5.15032 9.59031 5.0861 9.75833 5.01489 10.0585C5.62057 10.0656 9.04615 10.1922 9.38837 9.9294C9.44061 9.65516 9.36602 9.5155 9.23333 9.2394C9.08489 8.45017 7.91661 5.78628 7.62117 4.82725C7.58508 4.71026 7.15076 4.14538 7.04338 4.00912C6.74311 5.55132 6.19828 6.89411 5.59493 8.33197C5.45846 8.65732 5.46328 8.857 5.26083 9.30545Z"/>
      <path d="M84.1236 0.0597845C84.7183 0.0532357 85.3693 0.0321429 85.9593 0.0680129C86.3643 0.484101 86.9872 0.855192 87.2484 1.38365C87.4919 1.876 87.7419 2.53628 87.9492 3.05195L89.3662 6.61993C90.3797 9.15904 91.5812 11.6074 92.4131 14.2277C92.8615 15.6405 92.0916 16.5632 90.62 16.4722C89.322 16.3919 88.9788 14.3162 88.5335 13.3665C88.4098 13.1028 88.2129 12.7714 88.1446 12.5539C88.1454 12.4725 88.1341 12.4864 88.0682 12.4069C87.1705 12.3813 82.6841 12.2425 82.0564 12.4789L81.9865 12.6459C81.1989 13.7276 81.3218 14.8801 80.1838 16.4368L78.5515 16.4455C78.0733 15.888 77.673 15.7721 77.7269 14.9C77.7502 14.5236 77.812 14.0922 77.8627 13.715C78.271 13.3773 78.5265 12.2192 78.7572 11.6404L81.1531 5.67851C81.7583 4.14072 82.4438 2.19875 83.2508 0.76947C83.3858 0.528995 83.8624 0.313494 84.1236 0.0597845ZM83.2572 9.01102C82.9678 9.18459 82.7589 9.56948 82.7999 9.9056C82.9695 10.0888 83.2717 10.0752 83.5216 10.0705C84.1332 10.0588 86.8329 10.1508 87.2693 9.96547C87.3256 9.71171 87.2219 9.54007 87.0258 9.37117C86.767 8.54216 85.4336 4.51635 84.8799 4.19239C84.8084 4.25374 83.3448 8.57221 83.2572 9.01102Z"/>
      <path d="M65.3923 0.834796C65.5233 0.107915 66.5882 -0.075244 67.1886 0.0645396C67.6604 0.174416 67.8581 0.364501 68.223 0.654643L68.2519 0.943611C68.2849 2.55881 68.1137 12.6081 68.4134 13.3209C68.7799 13.6433 69.4936 13.7107 69.9654 13.6994C71.6556 13.659 73.4439 13.7623 75.1252 13.6551C75.3141 13.644 75.5022 13.6241 75.6894 13.5953L76.3163 13.7783L76.7214 14.902C76.5044 15.4799 76.4827 15.8276 75.8574 16.0654C73.1907 15.8965 68.8073 15.9108 66.1373 16.0548C66.0682 16.0356 65.9991 16.0136 65.9308 15.989C65.6431 15.8833 65.5265 15.7205 65.4028 15.4519C65.316 14.7537 65.3087 15.1396 65.4003 14.3864C65.4662 13.8548 65.5 13.3198 65.5008 12.7841L65.5024 4.31127C65.5016 3.71279 65.3087 1.12204 65.3923 0.834796Z"/>
    </g>
  </g>
</svg>
