<svg xmlns="http://www.w3.org/2000/svg" viewBox="0 0 51.7275 51.5626" fill="none">
  <path d="M28.015 50.6778C26.8323 51.8575 24.8958 51.8575 23.7123 50.6778L0.888203 27.9264C-0.296068 26.7467 -0.296068 24.8157 0.888203 23.6367L23.7123 0.88544C24.8958 -0.295147 26.8323 -0.295147 28.015 0.88544L50.8398 23.6368C52.0234 24.8158 52.0234 26.7467 50.8398 27.9265L28.015 50.6778Z" fill="#C3161C"/>
  <path d="M11.7832 28.5185C11.7832 25.9353 13.441 24.5446 16.0776 24.5446H18.9532C19.8466 24.5446 20.5239 23.8262 20.5239 22.9356C20.5239 22.0892 19.8282 21.3495 18.9777 21.3495H11.7832V18.9596H18.605C21.6363 18.9596 22.9207 20.784 22.9207 22.9814C22.9207 24.891 21.7448 26.9323 18.605 26.9323H15.6638C14.8132 26.9323 14.1817 27.6942 14.1817 28.5642V32.6048H11.7832V28.5185ZM24.6647 18.9596H27.0623V32.605H24.6647V18.9596ZM32.751 21.3496H39.9439V18.9596H33.1213C30.1563 18.9596 28.8063 20.6333 28.8063 22.9814V28.5642C28.8063 30.5628 29.9395 32.6048 33.1213 32.6048H39.9439V30.2142H32.7716C31.8347 30.2142 31.2024 29.5186 31.2024 28.5184C31.2024 27.6713 31.9003 26.9323 32.751 26.9323H39.9439V24.5448H32.7716C31.8347 24.5448 31.2024 23.8264 31.2024 22.9357C31.2024 22.0894 31.9003 21.3496 32.751 21.3496Z" fill="#FFFFFF"/>
</svg>
