<svg width="46" height="40" viewBox="0 0 46 40" fill="none" xmlns="http://www.w3.org/2000/svg">
<path d="M30.4973 0.182468C32.6632 -0.0758891 37.1888 -0.0328281 39.4106 0.143716C42.976 0.427908 45.6026 3.47221 45.8265 6.94711C46.3734 15.3609 45.4174 24.3862 45.805 32.8603C45.5466 35.7539 43.3376 38.415 40.5086 39.0996C38.6528 39.5475 33.0594 39.4441 30.9753 39.2977C28.0171 39.091 25.3345 36.8347 24.6499 33.9583C24.3269 32.6106 24.2279 27.9171 24.4431 26.5349C24.7403 24.5972 27.8233 24.3216 28.0688 27.1721C28.3444 30.3715 26.7511 35.3922 31.4963 35.8013C33.2747 35.9563 37.3954 35.995 39.1135 35.7625C40.6723 35.5515 41.8779 34.4018 42.1837 32.8689L42.2009 6.81793C42.0459 5.1257 40.6637 3.85544 39.0059 3.66167C37.2361 3.45499 33.3048 3.48513 31.4963 3.64445C29.8816 3.78224 28.297 4.88887 28.0774 6.5768C27.9051 7.8772 28.551 10.3574 26.6779 10.7493C24.1547 11.2746 24.3054 8.35946 24.4389 6.69737C24.6972 3.51527 27.2765 0.570007 30.5016 0.186778L30.4973 0.182468Z" fill="#C93131"/>
<path d="M8.61899 3.64824C5.8029 3.72144 3.91261 4.21232 3.6887 7.46762C3.12893 15.5197 4.10637 24.2264 3.71022 32.3474C4.19249 35.3702 5.9493 35.7276 8.61899 35.7965C10.406 35.8438 12.9163 35.9687 14.6473 35.7965C16.1286 35.65 17.6098 34.5865 17.894 33.0794C18.1481 31.7316 17.4031 29.1007 19.3451 28.6959C21.7866 28.1878 21.7005 30.8403 21.5885 32.4938C21.3904 35.5295 19.3494 38.2939 16.3697 39.069C14.5784 39.5383 8.64052 39.4565 6.60812 39.2972C3.20211 39.0259 0.377427 36.0117 0.192271 32.623C0.665925 24.2178 -0.419174 15.1451 0.192271 6.81742C0.411874 3.8334 2.49595 1.12926 5.41108 0.371417C7.15929 -0.0850134 13.3211 -0.0290338 15.2975 0.151816C17.8725 0.388643 20.3872 2.43827 21.201 4.87544C21.6876 6.32655 21.8124 11.3516 21.5541 12.8845C21.2096 14.9384 18.2169 14.9987 17.9586 12.3936C17.6744 9.57323 19.104 5.12518 15.6937 3.89799C14.2986 3.3985 10.2983 3.60088 8.6233 3.64394L8.61899 3.64824Z" fill="#C93131"/>
<path d="M20.6719 21.5355C22.7 23.0856 20.9087 26.1514 18.7342 24.7003C18.196 24.3386 15.311 21.4494 14.8976 20.8896C14.256 20.0198 14.2948 18.8701 15.2292 18.2328C15.3239 18.1682 15.8837 17.9013 15.9354 17.9013H25.3352C24.6161 17.0874 24.121 16.4243 24.6377 15.322C25.0554 14.4307 26.3084 14.0733 27.1437 14.6029C27.6475 14.9172 30.6746 17.9874 31.1052 18.5471C31.6392 19.2404 31.7339 19.8863 31.2774 20.67C31.1009 20.9714 30.3861 21.5312 30.0675 21.5312H20.6676L20.6719 21.5355Z" fill="#1E1E1E"/>
<path d="M9.48877 28.6962C9.96673 28.5972 11.6805 28.5972 12.1714 28.6747C13.7603 28.9201 14.0703 31.2927 12.6407 31.9774C12.1025 32.2357 10.2251 32.253 9.59642 32.1582C7.79653 31.8783 7.76639 29.045 9.48877 28.6962Z" fill="#C93131"/>
<path d="M33.7303 28.6962C34.2083 28.5972 35.9221 28.5972 36.4129 28.6747C38.0018 28.9201 38.3119 31.2927 36.8823 31.9774C36.344 32.2357 34.4666 32.253 33.838 32.1582C32.0381 31.8783 32.0079 29.045 33.7303 28.6962Z" fill="#C93131"/>
</svg>
