<svg width="26" height="39" viewBox="0 0 26 39" fill="none" xmlns="http://www.w3.org/2000/svg">
<path d="M19.7964 37.4508V32.915H5.788V37.4508H3.52595V31.5336C3.52595 31.1245 4.33675 30.537 4.76599 30.5929C9.92375 30.8902 15.5039 30.1977 20.614 30.5894C20.9513 30.6139 21.3498 30.6524 21.6326 30.8727C21.7348 30.9531 22.0653 31.4637 22.0653 31.5336V37.4508H19.7964Z" fill="#C93131"/>
<path d="M8.41116 7.46288C8.41116 8.61343 7.50158 9.54367 6.38418 9.54367C5.26678 9.54367 4.35718 8.60993 4.35718 7.46288C4.35718 6.31582 5.26678 5.38208 6.38418 5.38208C7.50158 5.38208 8.41116 6.31582 8.41116 7.46288ZM7.0587 7.46638C7.0587 7.08169 6.75551 6.77044 6.38077 6.77044C6.00603 6.77044 5.70284 7.08169 5.70284 7.46638C5.70284 7.85106 6.00603 8.1623 6.38077 8.1623C6.75551 8.1623 7.0587 7.85106 7.0587 7.46638Z" fill="#C93131"/>
<path d="M21.0398 5.9696C22.239 7.16562 21.5577 9.24291 19.9463 9.52618L11.4159 9.51919C9.1913 9.00861 9.22877 5.8612 11.4568 5.40307H19.902C20.2904 5.43804 20.7639 5.69333 21.0398 5.9696ZM12.6082 8.17279C14.9554 8.21126 17.3095 8.14132 19.6601 8.17279C20.4982 8.06788 20.4982 6.86486 19.6601 6.75995C17.3095 6.79142 14.9589 6.72148 12.6082 6.75995C12.0632 6.77044 11.1263 6.61657 11.1025 7.44888C11.0786 8.2812 12.07 8.1623 12.6082 8.17279Z" fill="#C93131"/>
<path d="M8.40776 13.0128C8.40776 14.1599 7.50158 15.0936 6.38077 15.0936C5.25996 15.0936 4.35377 14.1634 4.35377 13.0128C4.35377 11.8623 5.25996 10.932 6.38077 10.932C7.50158 10.932 8.40776 11.8623 8.40776 13.0128ZM7.0587 13.0128C7.0587 12.6281 6.75551 12.3204 6.38418 12.3204C6.01285 12.3204 5.70965 12.6316 5.70965 13.0128C5.70965 13.394 6.01285 13.7053 6.38418 13.7053C6.75551 13.7053 7.0587 13.394 7.0587 13.0128Z" fill="#1E1E1E"/>
<path d="M21.0398 11.516C22.239 12.7121 21.5577 14.7894 19.9463 15.0726L11.4159 15.0656C9.1913 14.5551 9.22877 11.4076 11.4568 10.9495H19.902C20.2904 10.9845 20.7639 11.2398 21.0398 11.516ZM12.6082 13.7192C14.9554 13.7577 17.3095 13.6878 19.6601 13.7192C20.4982 13.6143 20.4982 12.4113 19.6601 12.3064C17.3095 12.3379 14.9589 12.2679 12.6082 12.3064C12.0632 12.3169 11.1263 12.163 11.1025 12.9953C11.0786 13.8277 12.07 13.7088 12.6082 13.7192Z" fill="#1E1E1E"/>
<path d="M21.0398 17.066C22.239 18.262 21.5577 20.3393 19.9463 20.6226L11.4159 20.6156C9.1913 20.105 9.22877 16.9576 11.4568 16.4995H19.902C20.2904 16.5344 20.7639 16.7897 21.0398 17.066ZM12.6082 19.2657C14.9554 19.3042 17.3095 19.2342 19.6601 19.2657C20.4982 19.1608 20.4982 17.9578 19.6601 17.8528C17.3095 17.8843 14.9589 17.8144 12.6082 17.8528C12.0632 17.8633 11.1263 17.7095 11.1025 18.5418C11.0786 19.3741 12.07 19.2552 12.6082 19.2657Z" fill="#C93131"/>
<path d="M8.41116 18.5593C8.41116 19.7098 7.50158 20.6401 6.38418 20.6401C5.26678 20.6401 4.35718 19.7063 4.35718 18.5593C4.35718 17.4122 5.26678 16.4785 6.38418 16.4785C7.50158 16.4785 8.41116 17.4122 8.41116 18.5593ZM7.0587 18.5593C7.0587 18.1746 6.75551 17.8633 6.38077 17.8633C6.00603 17.8633 5.70284 18.1746 5.70284 18.5593C5.70284 18.944 6.00603 19.2552 6.38077 19.2552C6.75551 19.2552 7.0587 18.944 7.0587 18.5593Z" fill="#C93131"/>
<path d="M5.0215 25.4311L20.3449 25.4067C22.0823 25.585 22.0823 27.5504 20.3449 27.7288H5.23952C3.6043 27.5609 3.47485 25.7948 5.0215 25.4311Z" fill="#C93131"/>
<path d="M23.0736 39H2.92636C1.31158 39 0 37.6536 0 35.996V3.00403C0 1.34639 1.31158 0 2.92636 0H23.0736C24.6884 0 26 1.34639 26 3.00403V35.996C26 37.6536 24.6884 39 23.0736 39ZM2.92977 1.54573C2.14623 1.54573 1.51258 2.19969 1.51258 3.00053V35.9925C1.51258 36.7968 2.14964 37.4473 2.92977 37.4473H23.077C23.8606 37.4473 24.4942 36.7933 24.4942 35.9925V3.00053C24.4942 2.19619 23.8572 1.54573 23.077 1.54573H2.92977Z" fill="#C93131"/>
</svg>
