<svg width="32" height="42" viewBox="0 0 32 42" fill="none" xmlns="http://www.w3.org/2000/svg">
<path d="M5.53771 38.6255C3.42189 38.7966 0.95816 38.5725 0.553606 36.0384L0.537421 3.34822C0.581922 1.85712 1.77131 0.712319 3.21962 0.541208L24.3737 0.55343C26.9993 1.03009 27.1247 3.18526 26.9427 5.45044H28.7874C29.9768 5.45044 31.5344 7.27969 31.4615 8.50598L31.4292 30.7503C31.15 33.1214 29.0908 33.9566 26.9427 33.7162C26.8941 35.2684 27.3027 36.8166 25.9313 37.9084C24.8147 38.8006 23.4109 38.6295 22.0678 38.6255C22.0678 38.0103 22.0637 37.3218 22.0678 36.7106C22.9133 36.5925 24.8916 37.1384 25.0453 35.9366L24.9765 2.93675C24.6246 2.46009 24.1148 2.37453 23.5565 2.32971C17.1848 1.85305 10.2386 2.70045 3.80217 2.32971C3.30861 2.35416 2.80293 2.52935 2.49951 2.93675L2.44692 35.9244C2.6411 37.1506 4.65174 36.5884 5.53367 36.7106C5.52558 37.3462 5.52963 37.9899 5.53367 38.6255H5.53771ZM28.6701 7.36525C28.1725 7.27562 27.4726 7.43043 26.9467 7.36525V31.7973C27.9986 31.8136 29.3376 32.0092 29.5642 30.6607V8.49783C29.544 8.05376 29.0949 7.43858 28.6701 7.36117V7.36525Z" fill="#C93131"/>
<path d="M24.4218 0.0123118L24.4692 0.0210327C25.195 0.152819 25.7828 0.407416 26.244 0.778724C26.7068 1.15147 27.0148 1.6202 27.2123 2.13713C27.5317 2.97313 27.5653 3.95297 27.5159 4.90935H28.7874C29.2161 4.90935 29.6334 5.07131 29.9957 5.29256C30.3628 5.51678 30.7084 5.82272 31.0028 6.16259C31.5628 6.80903 32.033 7.69459 31.9982 8.50646L31.9987 8.50698L31.9666 30.7509V30.7827L31.9625 30.814C31.8032 32.1674 31.1217 33.1198 30.1552 33.6811C29.3728 34.1354 28.4326 34.3177 27.4788 34.2941C27.4825 34.4778 27.4889 34.6645 27.494 34.8579C27.5041 35.2401 27.5093 35.6446 27.4675 36.0419C27.3816 36.8605 27.0935 37.6719 26.2648 38.3319C25.6 38.8632 24.8602 39.0667 24.1396 39.1414C23.4438 39.2135 22.6929 39.1685 22.0663 39.1666L21.5304 39.165V36.7073L21.5335 36.2389L21.994 36.1748C22.266 36.1368 22.6035 36.1536 22.8957 36.1686C23.2119 36.1849 23.5134 36.2024 23.7912 36.1897C24.0761 36.1765 24.2665 36.1328 24.379 36.0717C24.4516 36.0322 24.4902 35.9899 24.5074 35.889L24.4391 3.14209C24.2474 2.96795 23.9761 2.90628 23.5141 2.86917C20.3617 2.63354 17.0609 2.72469 13.7208 2.8307C10.4034 2.93598 7.04559 3.05502 3.81085 2.87123C3.48596 2.89026 3.21635 2.98864 3.03605 3.14824L2.98409 35.8726C3.00714 35.9752 3.05478 36.0248 3.13742 36.0686C3.26106 36.1341 3.46249 36.1783 3.75583 36.1912C4.04298 36.2038 4.35346 36.185 4.67887 36.1681C4.98073 36.1525 5.32634 36.1359 5.607 36.1748L6.07718 36.2399L6.07107 36.7175C6.06306 37.3469 6.06702 37.9854 6.07107 38.6218L5.55912 38.6248L5.58052 39.165C4.50468 39.252 3.26138 39.2479 2.2154 38.8531C1.68391 38.6525 1.1901 38.3461 0.798745 37.8892C0.405623 37.4302 0.13803 36.8454 0.0229232 36.1245L0.0163009 36.0819L0 3.3401L0.000509404 3.33189C0.0540687 1.53864 1.47917 0.201888 3.15677 0.00359096L3.18836 0L24.4218 0.0123118ZM3.25509 1.08242C2.05248 1.23686 1.1148 2.17941 1.07484 3.35498L1.09012 35.987C1.1798 36.5152 1.36887 36.8981 1.61226 37.1823C1.86273 37.4747 2.19291 37.6892 2.59235 37.84C3.27711 38.0984 4.1243 38.1539 4.99368 38.1159C4.99223 37.8241 4.99262 37.5305 4.99368 37.2372C4.91452 37.24 4.82822 37.2441 4.7344 37.249C4.42875 37.2648 4.05896 37.2875 3.70897 37.2721C3.36531 37.257 2.97266 37.204 2.63718 37.0263C2.26919 36.8314 1.99356 36.4969 1.91638 36.0096L1.90975 35.967V35.9234L1.96222 2.93586L1.96273 2.7558L2.06971 2.61216C2.50471 2.02808 3.19338 1.81818 3.7757 1.78932L3.80423 1.78778L3.83275 1.78932C6.22489 1.92711 8.6904 1.89558 11.1845 1.82626L14.9377 1.71083C17.8578 1.62524 20.7804 1.57967 23.5966 1.79035H23.5991C24.1615 1.83549 24.9006 1.9274 25.4075 2.6137L25.5135 2.75734L25.5828 35.9352V35.9706L25.5782 36.0055C25.5163 36.4895 25.2518 36.8271 24.8889 37.0243C24.561 37.2024 24.1751 37.2551 23.8406 37.2705C23.499 37.2863 23.1378 37.2643 22.8406 37.249C22.7557 37.2446 22.6774 37.2409 22.6053 37.2382C22.6051 37.5196 22.6047 37.8078 22.6053 38.0913C23.1061 38.1011 23.5684 38.1124 24.0296 38.0646C24.6257 38.0028 25.1459 37.8453 25.5975 37.4845L25.598 37.4839C26.1403 37.0522 26.3341 36.5443 26.3988 35.928C26.4324 35.6079 26.4297 35.2659 26.4197 34.8872C26.41 34.5188 26.3927 34.1075 26.4054 33.6991L26.4238 33.1137L27.002 33.1784C27.9987 33.2899 28.9268 33.1453 29.6182 32.7439C30.282 32.3585 30.7664 31.7161 30.8918 30.7145L30.9244 8.50544V8.48953L30.9254 8.47363C30.9494 8.06782 30.6834 7.44041 30.1929 6.87412C29.9583 6.60339 29.6956 6.37507 29.4384 6.218C29.1766 6.05809 28.9533 5.99125 28.7874 5.99125H26.3601L26.407 5.40695C26.498 4.27436 26.4984 3.28084 26.2098 2.52547C26.0706 2.16095 25.8664 1.8598 25.5731 1.62363C25.2851 1.39174 24.8851 1.20227 24.3205 1.09422L3.25509 1.08242ZM28.766 6.82897C29.1673 6.90221 29.4904 7.19571 29.6942 7.46149C29.9032 7.73419 30.0838 8.10349 30.1007 8.47312L30.1017 8.48543V30.7063L30.094 30.7509C30.0218 31.181 29.8514 31.5323 29.5831 31.7964C29.3191 32.0561 28.9987 32.1935 28.6886 32.2673C28.1082 32.4054 27.3987 32.3452 26.9383 32.3381L26.4095 32.3299V6.75356L27.0121 6.82846C27.214 6.85348 27.4629 6.83672 27.7849 6.81615C27.8921 6.8093 28.0103 6.803 28.1328 6.79922V6.71355L28.766 6.82897ZM28.5755 7.89805C28.4022 7.86683 28.1701 7.87575 27.8532 7.896C27.7403 7.90321 27.6146 7.91105 27.4838 7.91652V31.2695C27.8453 31.2794 28.1616 31.2807 28.4415 31.2141C28.6258 31.1703 28.7486 31.1046 28.8322 31.0223C28.9073 30.9484 28.984 30.8279 29.0268 30.6083V8.5198C29.0222 8.44422 28.9685 8.28591 28.8434 8.12274C28.7852 8.04672 28.7237 7.98623 28.6682 7.94525C28.641 7.92516 28.6183 7.91191 28.601 7.90369C28.5993 7.90288 28.5974 7.90234 28.5959 7.90164L28.5755 7.89805Z" fill="#C93131"/>
<path d="M21.8865 36.1891C21.8825 36.7839 21.8865 37.452 21.8865 38.0469C21.8865 38.8698 22.0443 41.1105 21.6438 41.6891C20.9318 42.7157 19.3297 40.8946 18.5853 40.6176C17.8936 40.8579 16.7972 42.0679 16.0771 41.9905C15.5836 41.9376 14.0867 40.5687 13.7833 40.6135C13.1684 40.9231 12.0316 42.0557 11.3519 41.9865C10.7653 41.9294 9.35342 40.5891 9.05405 40.6135C8.4715 40.9272 6.17767 42.9316 5.89044 41.4446C5.72457 40.5768 5.87022 39.0002 5.86213 38.0428C5.85808 37.4235 5.85404 36.8043 5.86213 36.185C5.87427 35.1421 5.41711 33.0195 6.83709 33.0439L21.1138 33.0765C22.2021 33.2802 21.8986 35.305 21.8906 36.185L21.8865 36.1891ZM7.58957 34.7958V39.4402C8.01435 39.2324 8.55645 38.6213 9.02978 38.6213C9.69325 38.6213 10.7896 39.7865 11.4531 40.0187C12.0761 39.8109 13.1684 38.6702 13.7671 38.6294C14.5398 38.5765 15.6807 39.9698 16.2025 39.9983C16.5302 40.0146 17.9017 38.6865 18.5004 38.6294C19.0991 38.5724 19.4551 39.2446 20.0458 39.3261V34.7958H7.58957Z" fill="#1E1E1E"/>
<path d="M12.395 21.6973C12.7834 21.6118 14.8426 21.6118 15.2269 21.6973C16.1007 21.8929 16.0926 23.1966 15.2269 23.3881C14.8385 23.4736 12.7834 23.4736 12.395 23.3881C11.5576 23.2007 11.5576 21.8848 12.395 21.6973Z" fill="#C93131"/>
<path d="M12.395 25.2995C12.7834 25.214 14.8426 25.214 15.2269 25.2995C16.1007 25.4951 16.0926 26.7988 15.2269 26.9903C14.8385 27.0758 12.7834 27.0758 12.395 26.9903C11.5576 26.8029 11.5576 25.4869 12.395 25.2995Z" fill="#C93131"/>
<path d="M12.395 28.8962C12.7834 28.8106 14.8426 28.8106 15.2269 28.8962C16.1007 29.0917 16.0926 30.3954 15.2269 30.5869C14.8385 30.6725 12.7834 30.6725 12.395 30.5869C11.5576 30.3995 11.5576 29.0836 12.395 28.8962Z" fill="#C93131"/>
<path d="M6.00744 23.1481C5.63525 22.6796 5.90226 21.7874 6.49291 21.6733C6.84083 21.6081 8.90405 21.6081 9.25601 21.6733C10.0368 21.8241 10.1784 23.197 9.34906 23.3885C8.93237 23.4863 7.06737 23.4781 6.60213 23.417C6.42818 23.3966 6.11262 23.2785 6.00744 23.1481Z" fill="#C93131"/>
<path d="M21.6189 25.5396C21.9506 25.9551 21.8171 26.8514 21.2265 26.9899C20.8745 27.0714 18.7385 27.0836 18.3703 27.0103C17.5167 26.8473 17.5127 25.4377 18.3703 25.2748C18.783 25.1973 20.5711 25.2096 21.0242 25.2666C21.1982 25.287 21.5137 25.4051 21.6189 25.5355V25.5396Z" fill="#C93131"/>
<path d="M21.6189 30.3513C21.5137 30.4816 21.1982 30.5998 21.0242 30.6201C20.5711 30.6772 18.783 30.6935 18.3703 30.612C17.5127 30.449 17.5167 29.0394 18.3703 28.8765C18.7385 28.8072 20.8705 28.8154 21.2265 28.8968C21.8171 29.0354 21.9506 29.9316 21.6189 30.3472V30.3513Z" fill="#C93131"/>
<path d="M21.6188 21.9383C21.9505 22.3539 21.817 23.2502 21.2264 23.3887C20.8744 23.4702 18.7383 23.4824 18.3702 23.4091C17.557 23.2542 17.4478 21.9098 18.3904 21.6939C18.8031 21.6002 20.5669 21.6083 21.0241 21.6654C21.198 21.6857 21.5136 21.8039 21.6188 21.9343V21.9383Z" fill="#C93131"/>
<path d="M9.74144 25.5395C10.1136 26.0039 9.91539 26.9002 9.25192 27.0102C8.83118 27.0795 6.89338 27.0917 6.49287 27.0143C5.63926 26.8513 5.63521 25.4417 6.49287 25.2787C6.90551 25.2013 8.69364 25.2135 9.14674 25.2706C9.3207 25.291 9.63625 25.4091 9.74144 25.5395Z" fill="#C93131"/>
<path d="M9.74144 29.1409C10.1136 29.6094 9.84661 30.5016 9.25597 30.6157C8.90805 30.6809 6.84483 30.6809 6.49287 30.6157C5.63926 30.4527 5.63521 29.0431 6.49287 28.8801C6.90551 28.8027 8.69364 28.815 9.14674 28.872C9.3207 28.8924 9.63625 29.0105 9.74144 29.1409Z" fill="#C93131"/>
<path d="M22.5818 5.2956V19.4733H5.0444V5.2956H22.5818ZM6.77994 7.04337V17.7255H20.8463V7.04337H6.77994Z" fill="#C93131"/>
<path d="M23.1033 4.77029V19.9985H4.52278V4.77029H23.1033ZM5.56603 18.9479H22.06V5.8209H5.56603V18.9479ZM21.3677 6.51806V18.2507H6.25831V6.51806H21.3677ZM7.30157 17.2001H20.3245V7.56867H7.30157V17.2001Z" fill="#C93131"/>
<path d="M16.5498 10.3227C16.9584 10.7098 16.7844 11.2761 16.5133 11.6794C16.307 11.9849 13.8028 14.466 13.5884 14.5394C13.374 14.6127 13.1677 14.6209 12.9573 14.5883C12.5042 14.519 10.9871 12.9586 10.8658 12.5023C10.6514 11.712 11.4362 11.2394 12.1684 11.545C12.5244 11.6916 12.9047 12.4698 13.2688 12.372C13.6532 12.2701 14.9882 10.4287 15.4251 10.2372C15.684 10.1231 16.3434 10.1272 16.5457 10.3227H16.5498Z" fill="#1E1E1E"/>
</svg>
