<svg width="38" height="43" viewBox="0 0 38 43" fill="none" xmlns="http://www.w3.org/2000/svg">
<path d="M24.4758 7.75021C26.2573 7.6267 29.1658 8.15345 30.6637 9.17429C31.6563 9.85 31.1945 11.0525 30.2165 10.9544C29.8093 10.9144 28.4314 10.1188 27.7443 9.93719C25.4865 9.33414 23.6759 9.49035 21.5018 10.2968C20.8183 10.5511 19.8984 11.4448 19.2804 10.5911C18.5751 9.6175 19.833 9.05804 20.542 8.73835C21.7599 8.18979 23.1415 7.84467 24.4758 7.75021Z" fill="#1E1E1E"/>
<path d="M24.4507 7.38764C25.383 7.32302 26.5904 7.42867 27.7523 7.67785C28.9099 7.9261 30.0638 8.3257 30.8686 8.87414L30.9783 8.95432C31.5035 9.36712 31.6825 9.94962 31.5268 10.4603C31.3623 11.0004 30.8404 11.3823 30.1801 11.316C30.0151 11.2996 29.8036 11.2189 29.6138 11.139C29.4084 11.0525 29.1693 10.94 28.9304 10.8275C28.4338 10.5937 27.9544 10.3684 27.6511 10.2883H27.6504C25.4736 9.70682 23.7401 9.85372 21.6284 10.637C21.4886 10.689 21.3293 10.7772 21.1292 10.8878C20.9411 10.9919 20.72 11.1143 20.4951 11.1993C20.2705 11.2842 20.0048 11.3474 19.7293 11.299C19.4754 11.2544 19.2508 11.122 19.0636 10.9031L18.9858 10.8041C18.7682 10.5037 18.6732 10.1916 18.721 9.88062C18.7673 9.57881 18.9391 9.33936 19.1293 9.15724C19.4983 8.80389 20.0544 8.55973 20.3925 8.40726L20.6304 8.30331C21.828 7.79726 23.1597 7.47935 24.45 7.388L24.4507 7.38764ZM27.5996 8.38845C26.4876 8.14997 25.3499 8.05392 24.5008 8.1128L24.5004 8.11244C23.2894 8.19829 22.0366 8.49811 20.9141 8.97241L20.6915 9.06962C20.3207 9.23683 19.8932 9.43227 19.6324 9.68195C19.5077 9.80131 19.4529 9.90416 19.4396 9.99096C19.4277 10.0687 19.4399 10.1917 19.5749 10.378C19.6823 10.5264 19.7775 10.5698 19.855 10.5834C19.947 10.5996 20.0698 10.5831 20.2377 10.5196C20.4054 10.4561 20.5812 10.3608 20.777 10.2524C20.961 10.1507 21.1731 10.0317 21.3749 9.95654L21.3753 9.95619C23.6118 9.12659 25.4996 8.96152 27.8382 9.58616C28.222 9.68775 28.7747 9.95087 29.2403 10.1701C29.4827 10.2842 29.7076 10.39 29.8964 10.4695C30.1006 10.5555 30.2138 10.5892 30.2522 10.593H30.2529C30.5706 10.6248 30.7686 10.4541 30.8313 10.2485C30.8924 10.0477 30.8416 9.735 30.4588 9.47441C29.7657 9.00202 28.7162 8.6279 27.5996 8.38845Z" fill="#1E1E1E"/>
<path d="M24.5956 11.4704C25.7881 11.3796 27.2097 11.6266 28.304 12.1352C29.093 12.5021 29.9946 13.1779 29.0057 13.9553C28.3113 14.5038 27.5733 13.7264 26.8061 13.5084C25.6936 13.196 24.6283 13.1924 23.5158 13.5084C22.7196 13.7337 21.8579 14.6165 21.1926 13.8427C19.9019 12.3387 23.6503 11.5431 24.5956 11.4704Z" fill="#1E1E1E"/>
<path d="M24.8054 11.0943C26.005 11.0459 27.377 11.3038 28.4574 11.806L28.6122 11.8812C28.9821 12.0687 29.3996 12.34 29.6277 12.695C29.7672 12.9123 29.848 13.1813 29.7779 13.478C29.71 13.7648 29.5147 14.0167 29.2307 14.2401L29.2311 14.2404C28.9937 14.4279 28.7386 14.5095 28.4787 14.5108C28.2299 14.5119 27.9964 14.4393 27.7931 14.3547C27.5933 14.2714 27.3866 14.16 27.2116 14.0715C27.0265 13.978 26.8633 13.9027 26.7078 13.8583L26.5118 13.8065C25.5341 13.5645 24.5967 13.5792 23.6153 13.858C23.4536 13.9037 23.2783 13.9861 23.0742 14.0889C22.8817 14.1859 22.6563 14.3049 22.4351 14.3894C22.2123 14.4746 21.9523 14.5421 21.6806 14.5093C21.3946 14.4748 21.1361 14.3343 20.9169 14.0794L20.9166 14.079C20.723 13.8534 20.5981 13.611 20.5683 13.3535C20.5379 13.091 20.6113 12.8533 20.7412 12.6514C20.9865 12.2699 21.4484 11.9912 21.9082 11.7875C22.8475 11.3715 24.0631 11.1469 24.5679 11.1081L24.8054 11.0943ZM28.1507 12.4648C27.1145 11.9832 25.7554 11.746 24.6233 11.8322L24.6236 11.8326C24.1831 11.8664 23.0515 12.0761 22.2029 12.452C21.7689 12.6443 21.477 12.8513 21.3529 13.0441C21.2981 13.1294 21.2828 13.2011 21.2908 13.2701C21.2994 13.3442 21.3397 13.4558 21.4687 13.6061C21.5821 13.738 21.6805 13.7772 21.768 13.7877C21.8699 13.8 22 13.7777 22.1752 13.7107C22.3521 13.6431 22.5332 13.5477 22.7469 13.4401C22.9238 13.3509 23.123 13.2538 23.3284 13.186L23.4168 13.1587C24.5213 12.845 25.5866 12.8292 26.6843 13.1005L26.9045 13.1587L26.9055 13.1591C27.1332 13.2238 27.3498 13.3269 27.54 13.423C27.7408 13.5245 27.906 13.6144 28.0733 13.6841C28.2372 13.7524 28.3665 13.7847 28.4752 13.7842C28.5729 13.7837 28.6704 13.757 28.7802 13.6703L28.7809 13.6699C28.9911 13.5047 29.0537 13.3808 29.0703 13.3109C29.0845 13.2508 29.0764 13.1821 29.0156 13.0874C28.8753 12.8692 28.5379 12.6449 28.1507 12.4648Z" fill="#1E1E1E"/>
<path d="M24.7151 15.1867C25.6641 15.085 28.449 15.5246 27.6091 16.9995C27.0456 17.9876 25.9476 16.9559 25.1623 16.9523C24.377 16.9486 23.29 18.0058 22.7155 16.9995C22.0466 15.8297 23.8717 15.2775 24.7151 15.1867Z" fill="#1E1E1E"/>
<path d="M24.6765 14.8254C25.2071 14.7686 26.1999 14.8601 26.9669 15.1642C27.3473 15.3151 27.732 15.5412 27.9511 15.8841C28.1935 16.2635 28.19 16.714 27.9252 17.179L27.9249 17.1793C27.7403 17.503 27.4856 17.6973 27.1768 17.7644C26.8904 17.8265 26.603 17.7682 26.363 17.6952C26.1298 17.6242 25.8657 17.5129 25.671 17.4412C25.4519 17.3605 25.2882 17.3162 25.1608 17.3156C25.0362 17.315 24.8748 17.3582 24.657 17.4397C24.4652 17.5116 24.1997 17.6264 23.9682 17.6987C23.7287 17.7736 23.4407 17.8339 23.1523 17.7711C22.8415 17.7034 22.586 17.5059 22.3996 17.1793L22.4 17.179C22.1867 16.8058 22.1513 16.4344 22.2913 16.0966C22.4228 15.7794 22.6861 15.5469 22.9567 15.3796C23.4972 15.0454 24.2235 14.8742 24.6765 14.8254ZM26.6989 15.8394C26.087 15.5967 25.2804 15.5135 24.8374 15.541L24.7539 15.5478C24.3635 15.5898 23.755 15.7403 23.3394 15.9972C23.132 16.1255 23.0121 16.2562 22.9631 16.3744C22.9278 16.4595 22.9138 16.5743 22.9918 16.7433L23.0312 16.8193C23.132 16.9958 23.228 17.044 23.3071 17.0612C23.4086 17.0833 23.5491 17.0683 23.7513 17.0052C23.9615 16.9394 24.1513 16.8532 24.4021 16.7593C24.6269 16.6751 24.896 16.5878 25.164 16.589C25.4293 16.5902 25.6972 16.6764 25.9224 16.7593C26.172 16.8512 26.3651 16.9363 26.575 17.0002C26.778 17.062 26.9199 17.0767 27.0223 17.0545C27.1023 17.0371 27.1961 16.9899 27.2932 16.8196C27.4482 16.5473 27.4115 16.3896 27.3383 16.275C27.2418 16.124 27.0283 15.97 26.6989 15.8394Z" fill="#1E1E1E"/>
<path d="M13.2157 16.473C10.7471 8.01204 17.3204 -0.169161 26.1297 0.3903C31.3833 0.724523 36.0988 4.7788 37.2913 9.87208C38.7601 16.1279 35.4298 22.4127 29.4164 24.5852L29.4273 39.6943C29.3073 41.2092 28.2748 42.4734 26.7187 42.6296L4.26104 42.6369C2.28686 42.5134 0.694417 41.0275 0.363569 39.0948L0.374487 18.8271C0.432658 17.908 1.81785 16.4766 2.70495 16.4766H13.2121L13.2157 16.473ZM32.743 5.36006C28.3184 0.873468 20.9416 1.31305 16.9387 6.10116C13.7066 9.97016 13.7138 16.2695 17.2332 19.9569C17.4986 20.233 17.6767 20.5091 18.0694 20.56C20.578 20.8942 25.3953 19.9823 27.5331 20.8215C28.3402 21.1376 28.9146 21.8242 29.2528 22.6016C36.2297 19.9206 37.9566 10.6459 32.7394 5.35642L32.743 5.36006ZM15.2554 20.5527L13.9974 18.3911L13.6411 18.2676L3.09398 18.3003C2.35593 18.4747 1.94874 19.2085 2.25777 19.9206C2.30867 20.0368 2.78495 20.5491 2.82858 20.5491H15.2554V20.5527ZM4.45008 22.4745C3.65386 22.5072 2.92674 22.489 2.17052 22.2347V38.9713C2.17052 39.796 3.63205 40.8531 4.45008 40.8313V22.4745ZM6.24975 22.4745V40.8313H26.6024C26.7696 40.8313 27.504 40.261 27.504 40.0503V36.2721H23.243C22.9812 36.2721 21.9414 35.847 21.6614 35.6945C18.422 33.9144 18.5566 28.9591 21.9414 27.4115C22.2213 27.2844 23.243 26.9138 23.4866 26.9138H27.5076V23.1357C27.5076 23.0521 26.955 22.4999 26.8459 22.4745H6.24975ZM27.624 34.4702V28.8901C27.624 28.8901 27.4567 28.7085 27.4422 28.7085H23.8392C21.167 28.7085 19.989 32.7918 22.6176 34.1287C22.774 34.2086 23.3666 34.4666 23.4793 34.4666H27.6203L27.624 34.4702Z" fill="#C93131"/>
<path d="M12.7409 16.1133C10.5675 7.57619 17.253 -0.537311 26.1528 0.0278993C31.5687 0.372465 36.4168 4.54236 37.6454 9.78909L37.7125 10.0906C39.0298 16.3375 35.7234 22.5579 29.78 24.8367L29.791 39.7084L29.7896 39.723C29.6581 41.3823 28.5149 42.8144 26.755 42.9911L26.7369 42.9929L4.24957 43L4.23821 42.9993C2.08973 42.8648 0.363552 41.2487 0.00532572 39.156L0 39.1255L0.0110065 18.8156L0.0117166 18.8042C0.0311511 18.4971 0.156867 18.1796 0.323449 17.8907C0.492715 17.5971 0.718597 17.3079 0.969281 17.0527C1.21978 16.7977 1.50328 16.5684 1.79193 16.4006C2.07494 16.2361 2.39301 16.1133 2.70511 16.1133H12.7409ZM26.1067 0.752698C17.5481 0.209162 11.1672 8.15284 13.565 16.3712L13.625 16.5777L13.473 16.7299L13.4691 16.7334L13.3626 16.8398H2.70511C2.57367 16.8398 2.38562 16.896 2.15763 17.0286C1.93523 17.1579 1.70232 17.344 1.48836 17.5618C1.27465 17.7793 1.08782 18.0203 0.953303 18.2536C0.818172 18.488 0.74903 18.6915 0.737789 18.8432L0.727138 39.061C1.04036 40.8172 2.4884 42.1571 4.27478 42.2731L26.6964 42.2663C28.0374 42.1248 28.9515 41.0369 29.0635 39.6761L29.0525 24.3301L29.2929 24.2436C35.1286 22.1353 38.3651 16.0358 36.9374 9.95513C35.7808 5.01544 31.1978 1.07661 26.1067 0.752698ZM2.28651 21.8904C2.97837 22.123 3.65162 22.1436 4.43526 22.1114L4.81374 22.0961V41.185L4.45976 41.1946C4.18218 41.202 3.88227 41.1195 3.60445 40.9994C3.3217 40.8772 3.03599 40.7048 2.78002 40.5052C2.52475 40.3062 2.28848 40.0717 2.11324 39.8205C1.94124 39.5739 1.80684 39.2805 1.80684 38.9712V21.7293L2.28651 21.8904ZM26.8878 22.111L26.9286 22.1206C27.0174 22.1413 27.0894 22.192 27.1129 22.2082C27.1516 22.235 27.1919 22.2669 27.23 22.2991C27.3071 22.3641 27.3939 22.4457 27.4747 22.5265C27.5553 22.607 27.6357 22.6929 27.6983 22.7677C27.7289 22.8042 27.7607 22.8444 27.7868 22.8837C27.7996 22.9031 27.8161 22.9296 27.8304 22.96C27.84 22.9802 27.8712 23.0474 27.8713 23.1356V27.2772H23.4864C23.4815 27.2778 23.4649 27.2797 23.4332 27.2861C23.3924 27.2943 23.3402 27.307 23.2776 27.324C23.1528 27.3582 23.0009 27.4062 22.8441 27.4592C22.528 27.5662 22.2165 27.6854 22.0925 27.7416C18.9853 29.1623 18.8538 33.7359 21.8354 35.3756L21.9576 35.4363C22.1101 35.5078 22.3459 35.6083 22.5889 35.7013C22.7483 35.7622 22.9032 35.8171 23.0309 35.856C23.0947 35.8754 23.1481 35.8897 23.1896 35.8989C23.2361 35.9092 23.2502 35.9088 23.2429 35.9088H27.8677V40.0504C27.8677 40.171 27.8192 40.2693 27.7878 40.3243C27.7519 40.3873 27.7068 40.4463 27.6625 40.4978C27.5732 40.6017 27.4594 40.7073 27.3476 40.7997C27.2349 40.8928 27.1136 40.9812 27.0042 41.0484C26.95 41.0818 26.8926 41.1137 26.8366 41.1385C26.7934 41.1577 26.7042 41.1946 26.6023 41.1946H5.88634V22.111H26.8878ZM6.61348 40.468H26.5544C26.5708 40.4599 26.5939 40.4474 26.6233 40.4293C26.6986 40.383 26.7924 40.3157 26.8842 40.2399C26.9768 40.1634 27.0571 40.0868 27.1107 40.0245C27.1236 40.0096 27.1333 39.9971 27.1406 39.9873V36.6354H23.2429C23.1155 36.6354 22.9518 36.5914 22.8189 36.551C22.6693 36.5054 22.4972 36.444 22.329 36.3796C21.9978 36.2529 21.6496 36.1018 21.4875 36.0135L21.4861 36.0128C17.9903 34.0916 18.1281 28.7554 21.79 27.081L21.7911 27.0807C21.9475 27.0096 22.2862 26.8808 22.6109 26.771C22.7749 26.7155 22.9419 26.6627 23.0859 26.6234C23.2138 26.5884 23.3692 26.5507 23.4864 26.5506H27.1441V23.2381C27.143 23.2368 27.1418 23.2353 27.1406 23.2339C27.0961 23.1808 27.0317 23.1113 26.9606 23.0402C26.8896 22.9693 26.8179 22.9025 26.7607 22.8543C26.7532 22.848 26.7458 22.8428 26.7394 22.8376H6.61348V40.468ZM23.8393 29.0717C22.7137 29.0717 21.8643 29.9328 21.5933 31.0062C21.3334 32.0356 21.6329 33.1578 22.679 33.7493L22.7827 33.805L22.7831 33.8054C22.8482 33.8387 23.025 33.9188 23.2027 33.9916C23.2905 34.0276 23.3729 34.0592 23.4374 34.0814C23.4684 34.0921 23.4916 34.0992 23.507 34.1034H27.2606V29.0717H23.8393ZM16.6596 5.86815C20.7944 0.922159 28.4178 0.460859 32.9985 5.10149L33.1235 5.23027C38.3597 10.7149 36.5636 20.1816 29.3834 22.9408L29.0582 23.0657L28.9194 22.7464C28.6075 22.0295 28.0925 21.4309 27.4005 21.1599L27.4001 21.1595C26.9214 20.9716 26.2666 20.8735 25.4878 20.8363C24.7142 20.7994 23.8472 20.8238 22.9567 20.8644C21.2007 20.9443 19.3177 21.0928 18.0212 20.9201C17.7382 20.8831 17.5317 20.7616 17.3654 20.6174C17.224 20.4949 17.0711 20.3126 16.9709 20.2084L16.9702 20.2077C13.3153 16.3783 13.3167 9.86985 16.6596 5.86815ZM32.282 5.41547C28.0614 1.36563 21.2477 1.76344 17.4016 6.12004L17.2177 6.33397C14.0965 10.0703 14.1127 16.1608 17.4964 19.706C17.6611 19.8774 17.7298 19.9715 17.8419 20.0686C17.9287 20.1439 18.0072 20.1854 18.116 20.1995L18.1174 20.1999C19.3294 20.3614 21.1095 20.2211 22.9237 20.1385C23.8182 20.0978 24.7133 20.0722 25.5226 20.1108C26.3266 20.1492 27.0759 20.2517 27.666 20.4833C28.4695 20.798 29.0538 21.4265 29.432 22.1373C35.8876 19.4045 37.4458 10.6532 32.4858 5.61698L32.484 5.6152L32.282 5.41547ZM14.1167 18.0478L14.2438 18.0922L15.4623 20.1857H15.6189V21.8999L15.0441 20.9123H2.82867C2.75058 20.9123 2.69274 20.887 2.67529 20.8793C2.65033 20.8681 2.63066 20.8565 2.61919 20.8491C2.59582 20.8341 2.57574 20.8182 2.56238 20.8072C2.53417 20.784 2.50382 20.756 2.47539 20.7285C2.41699 20.6721 2.34651 20.5988 2.27799 20.5241C2.20933 20.4493 2.13877 20.3688 2.08058 20.2974C2.05162 20.2619 2.0233 20.2256 1.99927 20.1921C1.97964 20.1646 1.94733 20.1178 1.92471 20.0661L1.92436 20.0651C1.51902 19.1311 2.06757 18.1695 3.01045 17.9467L3.05093 17.9371H3.09282L13.6399 17.9045L13.702 17.9041L14.1167 18.0478ZM3.14359 18.6634C2.63758 18.8014 2.388 19.2881 2.58688 19.7639C2.58801 19.7655 2.58927 19.7674 2.59078 19.7695C2.60272 19.7862 2.62053 19.8095 2.64404 19.8384C2.69079 19.8957 2.7516 19.9651 2.81375 20.0328C2.86702 20.0908 2.91896 20.1443 2.96074 20.1857H14.6212L13.751 18.69L13.5806 18.6311L3.14359 18.6634ZM2.53398 38.9712C2.53398 39.0742 2.58253 39.2223 2.71008 39.4051C2.83445 39.5834 3.01504 39.7667 3.22738 39.9323C3.439 40.0973 3.67182 40.2368 3.8931 40.3325C3.96101 40.3618 4.02588 40.3853 4.0866 40.4048V22.8479C3.5679 22.8561 3.05649 22.8304 2.53398 22.7127V38.9712ZM27.9877 35.3472L27.4697 34.83H23.4793C23.4143 34.83 23.3532 34.8144 23.3234 34.8065C23.2842 34.7962 23.2419 34.7828 23.2006 34.7686C23.1175 34.74 23.0208 34.702 22.9269 34.6636C22.7412 34.5875 22.5434 34.4988 22.4522 34.4521C20.954 33.6897 20.5567 32.1415 20.8882 30.8285C21.217 29.5261 22.2928 28.3451 23.8393 28.3451H27.4424C27.5234 28.3451 27.5824 28.3728 27.5968 28.3795C27.6199 28.3902 27.6375 28.4012 27.6465 28.4072C27.6652 28.4194 27.6798 28.4313 27.687 28.4373C27.7029 28.4506 27.7181 28.4646 27.7289 28.4749C27.7519 28.4971 27.7783 28.524 27.801 28.5477C27.8243 28.572 27.8469 28.5963 27.8634 28.614C27.8717 28.6229 27.8788 28.6304 27.8837 28.6356C27.8861 28.6382 27.888 28.6402 27.8894 28.6417C27.89 28.6424 27.8908 28.6434 27.8908 28.6434L27.8915 28.6438L27.9877 28.7485V35.3472Z" fill="#C93131"/>
</svg>
