<svg width="34" height="40" viewBox="0 0 34 40" fill="none" xmlns="http://www.w3.org/2000/svg">
<path d="M7.26696 21.7299C8.31117 21.4907 9.12998 21.9323 9.32778 22.9949L9.31858 38.3958C8.85858 40.0196 6.59076 39.9644 6.28716 38.29V22.9949C6.32396 22.5257 6.80696 21.8357 7.26696 21.7299Z" fill="#C93131"/>
<path d="M13.4337 16.1499C9.67544 20.1657 2.89498 18.9697 0.723763 13.9419C-0.729849 10.5792 0.530562 4.9994 0.098158 1.29176C0.29136 -0.318248 2.66498 -0.437846 3.11118 1.09397C3.34578 4.30939 2.88578 7.78702 3.13418 10.9656C3.59419 16.8905 12.0123 16.8905 12.4723 10.9656C12.7207 7.78242 12.2561 4.30479 12.4953 1.09397C12.9415 -0.442446 15.3151 -0.318248 15.5083 1.29176C14.9839 6.0482 16.9849 12.3503 13.4337 16.1453V16.1499Z" fill="#C93131"/>
<path d="M7.49476 0.0312762C8.26297 -0.102125 8.88858 0.261279 9.23358 0.937484C9.43138 4.32771 9.27498 7.77774 9.31638 11.1864C8.88398 12.6492 7.04396 12.7918 6.37235 11.4394C6.17455 8.04914 6.33095 4.59911 6.28955 1.19048C6.43676 0.633876 6.91516 0.127877 7.49016 0.0312762H7.49476Z" fill="#1E1E1E"/>
<path d="M25.8183 21.7299C26.8625 21.4907 27.6813 21.9323 27.8791 22.9949L27.8699 38.3958C27.4099 40.0196 25.1421 39.9644 24.8385 38.29V22.9949C24.8753 22.5257 25.3583 21.8357 25.8183 21.7299Z" fill="#C93131"/>
<path d="M25.606 0.0394252C36.2045 -0.972583 36.9037 17.8278 26.9216 18.5546C16.9395 19.2814 15.8493 0.968633 25.606 0.0394252ZM27.0872 15.2932C32.2346 14.4099 32.2485 4.14726 27.0872 3.26406C20.0077 2.04965 20.0123 16.5076 27.0872 15.2932Z" fill="#C93131"/>
</svg>
