<svg width="40" height="40" viewBox="0 0 40 40" fill="none" xmlns="http://www.w3.org/2000/svg">
<path d="M9.39814 17.0687C9.39814 19.6414 7.3132 21.7307 4.73617 21.7307C2.15914 21.7307 0.0742188 19.6457 0.0742188 17.0687C0.0742188 14.4917 2.15914 12.4067 4.73617 12.4067C7.3132 12.4067 9.39814 14.4917 9.39814 17.0687ZM6.29448 17.0773C6.29448 16.2226 5.59949 15.5277 4.7448 15.5277C3.89011 15.5277 3.19513 16.2226 3.19513 17.0773C3.19513 17.932 3.89011 18.627 4.7448 18.627C5.59949 18.627 6.29448 17.932 6.29448 17.0773Z" fill="#1E1E1E"/>
<path d="M15.3374 16.1917C15.7561 13.265 19.3174 11.6247 21.9721 12.8333C22.9649 13.2866 24.6095 15.0737 24.6095 16.1917V36.5489C24.6095 36.5489 24.7693 36.7172 24.7779 36.7172H30.4327C30.4327 36.7172 30.601 36.5575 30.601 36.5489V22.2997C30.601 21.8249 31.5679 20.2882 31.9564 19.9212C34.8313 17.1845 39.571 19.0536 39.8775 22.9731C40.2659 27.9156 39.5796 33.3632 39.8775 38.3575C39.8775 38.9144 39.2731 39.6007 38.7551 39.7216L1.70552 39.7734C0.898315 39.8338 0.138585 39.1432 0.0695185 38.3532C0.224917 35.3963 -0.142 32.2323 0.0651977 29.3013C0.345778 25.248 5.21062 23.2968 8.10708 26.2494C8.43514 26.5861 9.34595 28.1056 9.34595 28.5156V36.5446C9.34595 36.5446 9.50567 36.7129 9.5143 36.7129H15.1691C15.1691 36.7129 15.3374 36.5532 15.3374 36.5446V16.1874V16.1917ZM21.5577 36.7172V16.7571C21.5577 16.7097 21.139 15.9888 21.0526 15.9068C20.4742 15.3629 19.4771 15.3672 18.8986 15.9068C18.808 15.9888 18.3936 16.7097 18.3936 16.7571V36.7172H21.562H21.5577ZM33.6615 36.7172H36.6573C36.6573 36.7172 36.8256 36.5575 36.8256 36.5489V23.0896C36.8256 22.9731 36.4457 22.2436 36.3206 22.127C35.7896 21.6349 34.9479 21.5659 34.3435 21.9673C34.1665 22.0839 33.6572 22.7098 33.6572 22.8652V36.7172H33.6615ZM6.28978 36.7172V29.0854C6.28978 28.93 5.78042 28.3041 5.60344 28.1876C4.99911 27.7861 4.16168 27.8552 3.62641 28.3473C3.50123 28.4638 3.12138 29.1977 3.12138 29.3099V36.5489C3.12138 36.5489 3.28109 36.7172 3.28972 36.7172H6.28546H6.28978Z" fill="#C93131"/>
<path d="M24.6315 4.80964L31.5813 7.6543C31.8317 7.66293 32.7641 6.84709 33.1655 6.65284C37.7109 4.46863 42.0318 10.0543 38.7469 13.9307C35.8893 17.302 30.3985 14.9667 30.4719 10.6198L23.5351 7.77516C22.1754 8.95792 20.7811 9.57951 18.9552 9.1867C18.5235 9.09605 17.6429 8.63417 17.3753 8.71619L12.5925 12.5407C11.6471 13.0587 10.3478 12.6789 10.1665 11.5306C10.0327 10.6932 10.4341 10.3306 10.991 9.80829C12.355 8.53489 14.1421 7.47732 15.5148 6.18233C13.7666 -0.974639 24.3596 -2.54158 24.6315 4.80964ZM21.5365 4.62834C21.5365 3.76502 20.8372 3.06572 19.9739 3.06572C19.1106 3.06572 18.4113 3.76502 18.4113 4.62834C18.4113 5.49167 19.1106 6.19096 19.9739 6.19096C20.8372 6.19096 21.5365 5.49167 21.5365 4.62834ZM36.7656 10.8529C36.7656 9.99391 36.0706 9.29893 35.2116 9.29893C34.3526 9.29893 33.6576 9.99391 33.6576 10.8529C33.6576 11.7119 34.3526 12.4069 35.2116 12.4069C36.0706 12.4069 36.7656 11.7119 36.7656 10.8529Z" fill="#C93131"/>
</svg>
