<svg width="34" height="39" viewBox="0 0 34 39" fill="none" xmlns="http://www.w3.org/2000/svg">
<path d="M22.4795 1.57457H22.4547V1.55394L22.4795 1.57457Z" fill="#FEFEFE"/>
<path d="M28.5671 13.2859C29.339 14.0501 29.8484 15.0297 30.1423 16.072C31.5687 21.1309 32.0272 26.8403 33.3399 31.9657C33.7631 35.4258 31.2591 38.5646 27.7794 38.8467C20.5928 38.498 12.9516 39.317 5.81588 38.8546C2.18337 38.6195 -0.351947 35.5865 0.0399098 31.9657C1.35263 26.8403 1.8111 21.127 3.23746 16.072C3.89186 13.7522 5.66697 12.0712 8.0573 11.6205C13.2847 11.6441 19.0528 11.115 24.2488 11.4834C25.8554 11.597 27.4111 12.1378 28.571 13.2859H28.5671ZM7.08549 35.7589C13.3082 35.9509 20.4909 36.2135 26.6783 35.8765C28.9041 35.755 30.4049 34.8576 30.3383 32.4242C29.0099 27.4907 28.6494 21.8323 27.2465 16.9772C26.8507 15.6057 25.926 14.7084 24.4683 14.5673C19.6719 14.6692 14.856 14.4419 10.0636 14.5673C9.3034 14.5869 8.74696 14.4968 8.00243 14.7672C6.41541 15.3471 6.243 16.5109 5.90209 17.9647C4.74219 22.9295 3.96239 28.0433 3.01018 33.0394C3.25313 34.7205 4.45221 35.7746 6.14111 35.8686C6.50162 35.8882 6.9405 35.7511 7.08549 35.755V35.7589Z" fill="#C93131"/>
<path d="M15.8907 0.036786C18.9354 -0.261025 21.9253 1.26721 23.3634 3.97494C23.9041 4.98985 24.5899 7.11371 24.1589 8.19524C23.6259 9.5393 21.5765 9.35513 21.2552 7.9562C21.1729 7.58786 21.2552 7.25086 21.1964 6.90995C20.3383 1.80406 13.0301 1.80014 12.172 6.90995C12.1132 7.24694 12.1955 7.58786 12.1132 7.9562C11.7409 9.59024 9.24479 9.48053 9.07238 7.67407C8.71187 3.94359 12.313 0.385538 15.8907 0.036786Z" fill="#C93131"/>
<path d="M10.1459 29.8246L23.1359 29.805C24.8131 30.3105 24.6015 32.5872 22.8107 32.7792L10.4594 32.7675C8.80574 32.5402 8.60197 30.3654 10.142 29.8246H10.1459Z" fill="#1E1E1E"/>
</svg>
