<svg width="40" height="40" viewBox="0 0 40 40" fill="none" xmlns="http://www.w3.org/2000/svg">
<path d="M13.9748 3.51331C-0.479955 6.76698 -0.262155 27.7958 14.0904 30.8805C20.1977 32.1962 26.1316 29.5337 29.3275 24.2576C29.9587 23.2131 30.421 21.2262 32.1456 21.9685C33.8702 22.7108 32.759 24.5421 32.1634 25.6222C30.8566 28.0047 28.8875 29.9471 26.7006 31.525L26.7495 31.7873L30.8432 37.8057C31.3677 39.557 29.452 40.6726 28.1718 39.4547L23.7892 33.0541C22.7669 33.4008 21.7445 33.7964 20.6822 34.0097C17.993 34.552 15.3794 34.4365 12.7258 33.7786C12.268 33.663 10.8367 33.063 10.5301 33.1697L6.14294 39.4636C4.96949 40.7349 2.95595 39.437 3.52045 37.8635L7.73421 31.5162C0.0801015 26.5423 -2.28458 16.2657 2.41367 8.36269C8.59652 -2.04281 23.4691 -2.90068 30.8299 6.70474C31.4477 7.50927 33.0301 9.89617 33.0657 10.8385C33.1146 12.1675 31.7589 12.9054 30.6299 12.2431C30.0698 11.9142 29.8831 11.043 29.5542 10.4785C26.2516 4.89567 20.4555 2.05539 13.9748 3.51331Z" fill="#C93131"/>
<path d="M6.59611 20.2035C6.17385 17.9455 6.18718 16.4386 6.59611 14.1851C8.77856 7.12659 17.0238 3.89072 23.3045 8.09559C24.4068 8.83344 26.8737 10.7803 25.1669 12.1449C23.9445 13.1228 23.3311 12.0827 22.5488 11.4648C19.0596 8.70453 14.4636 8.48229 11.361 11.9715C5.45822 18.6078 13.5968 28.4888 21.2776 23.8216C22.4999 23.0793 23.6201 21.0658 25.1091 22.1948C26.7537 23.4438 24.8024 25.1329 23.7356 25.9374C18.2017 30.08 10.232 28.0309 7.29396 21.8436C7.0406 21.3103 6.93393 20.6924 6.59611 20.2124V20.2035Z" fill="#1E1E1E"/>
<path d="M38.6711 18.3414C39.1645 19.0037 40.0446 19.3148 39.9868 20.3727C39.9246 21.5417 38.6933 22.1684 37.671 21.6662C37.1776 21.4217 36.0442 20.106 35.733 19.6304C35.5419 19.3415 35.453 19.0037 35.2485 18.7281H17.0956C15.1176 18.5192 15.0687 15.7811 17.3223 15.5544H35.2441C35.8708 14.2165 38.2399 11.0784 39.6979 13.1631C41.1558 15.2477 36.7598 15.7767 38.6667 18.3458L38.6711 18.3414Z" fill="#C93131"/>
</svg>
