<svg width="72" height="74" viewBox="0 0 72 74" fill="none" xmlns="http://www.w3.org/2000/svg">
<path d="M33.781 73.6185C32.4241 73.4316 31.0596 73.2905 29.7124 73.0521C23.7548 72.0012 18.4088 69.5981 13.6802 65.8657C12.9409 65.2821 12.8228 64.5611 13.3686 64.0557C13.839 63.6209 14.3519 63.6552 15.0467 64.2045C17.532 66.1651 20.2379 67.7538 23.178 68.9515C27.3085 70.6356 31.6073 71.4672 36.152 71.471C36.0185 71.0228 35.883 70.6299 35.7862 70.2275C35.3604 68.4442 35.7707 66.9337 37.2688 65.7627C38.585 64.7347 38.7631 62.5319 37.6405 61.296C37.1411 60.7467 36.6146 60.2203 36.1094 59.6749C34.6462 58.0976 34.472 56.0778 35.641 54.287C35.7843 54.0676 35.9449 53.8559 36.0823 53.6328C36.8624 52.374 36.3727 50.9265 34.9597 50.4344C33.4384 49.9023 31.9015 49.4083 30.3608 48.9315C29.4357 48.6454 28.7563 48.1133 28.2763 47.2799C27.2756 45.5405 26.2478 43.8164 25.2239 42.0903C24.6606 41.1424 24.0258 41.1348 23.4316 42.056C23.2109 42.3974 23.0077 42.7502 22.7773 43.084C21.9083 44.3542 20.3927 44.8138 19.0301 44.2283C17.7043 43.66 16.9513 42.2467 17.3055 40.8106C17.861 38.5696 18.4727 36.3401 19.0785 34.1105C19.3166 33.2332 19.8953 32.6191 20.714 32.209C21.7883 31.6712 22.8606 31.1277 23.9271 30.5727C24.5987 30.2236 24.7342 29.8555 24.4535 29.167C24.1032 28.3107 23.4625 27.769 22.549 27.5707C21.9838 27.4486 21.4108 27.3628 20.8399 27.2732C19.5411 27.071 18.3159 26.6857 17.1933 25.982C15.7474 25.0761 14.2861 24.193 12.8054 23.3443C11.1214 22.3774 9.95238 21.027 9.40074 19.1713C9.36784 19.0626 9.30396 18.9615 9.1646 18.664C8.19876 20.2375 7.22518 21.6564 6.41805 23.1593C-0.0931464 35.3025 1.78047 50.2513 11.0614 60.4606C11.255 60.6742 11.4524 60.8821 11.6382 61.1034C12.1163 61.6717 12.1125 62.2668 11.6382 62.6921C11.1679 63.1136 10.5001 63.0964 10.0414 62.5299C8.62652 60.7848 7.10905 59.0951 5.89352 57.2164C1.69337 50.7243 -0.139599 43.5627 0.516553 35.9014C1.4882 24.5764 6.83033 15.6754 16.3378 9.24618C16.9242 8.84948 17.2649 8.46231 17.383 7.71659C17.9849 3.8869 20.5631 1.28356 24.4013 0.49969C24.4903 0.480618 24.5716 0.423402 24.6568 0.38335C25.3807 0.38335 26.1065 0.38335 26.8304 0.38335C27.8698 0.743814 28.9498 1.02036 29.937 1.48953C30.6376 1.82139 31.3073 2.33062 31.8183 2.91041C32.3216 3.48067 32.8384 3.56649 33.5235 3.51309C39.1366 3.07062 44.5272 4.00515 49.7203 6.12407C49.877 6.18701 50.0338 6.24994 50.1848 6.32432C50.8371 6.64092 51.0945 7.21499 50.8429 7.78716C50.599 8.34216 49.999 8.51762 49.3022 8.28303C47.5021 7.67463 45.7214 6.99948 43.8904 6.50551C40.867 5.69113 37.7643 5.45654 34.6365 5.56335C34.3732 5.57288 34.1119 5.6053 33.7829 5.63201C33.9358 6.30907 34.1274 6.94035 34.2165 7.58309C34.6016 10.3619 33.8216 12.9157 32.5771 15.3607C31.5744 17.3328 30.2583 19.0969 28.7466 20.7162C27.1362 22.4403 24.5968 22.5299 22.9593 20.8287C20.3792 18.151 18.4301 15.0899 17.5494 11.4414C17.5281 11.3537 17.4914 11.2716 17.441 11.1267C17.2262 11.2545 17.0288 11.3365 16.8739 11.47C15.0216 13.0625 13.177 14.6665 11.3227 16.259C10.984 16.5489 10.9937 16.8579 11.075 17.2717C11.5124 19.4593 12.7047 21.0385 14.7506 22.0112C15.4203 22.3297 16.061 22.7302 16.6687 23.1574C18.4978 24.4391 20.505 25.1733 22.7406 25.4422C24.7361 25.6826 26.3523 27.2598 26.693 29.0335C26.9717 30.4792 26.4104 31.6998 25.1039 32.396C24.0432 32.9624 22.9399 33.4506 21.9005 34.0533C21.5502 34.2574 21.2037 34.6636 21.0915 35.0451C20.5186 37.0114 20.025 38.9987 19.5005 40.9784C19.363 41.4991 19.3185 42.014 19.9224 42.2543C20.5147 42.4908 20.8689 42.1208 21.1418 41.6479C21.2967 41.3789 21.4631 41.1157 21.6315 40.8545C23.0328 38.665 25.6981 38.684 27.0336 40.904C28.0304 42.5633 29.0273 44.2226 29.9718 45.9105C30.3028 46.5017 30.7383 46.8278 31.3809 47.0186C32.7416 47.421 34.0887 47.8711 35.4378 48.3193C38.4902 49.332 39.5392 52.3893 37.7508 55.0441C36.7482 56.5337 36.812 57.287 38.0469 58.5839C38.2947 58.8433 38.5231 59.1275 38.796 59.3602C40.4683 60.7887 40.6812 62.6635 40.4199 64.6527C40.2806 65.7055 39.7134 66.5599 38.885 67.2465C37.6192 68.2974 37.4334 69.9051 38.4824 71.1487C38.6334 71.3279 39.0941 71.3298 39.3979 71.2993C42.2897 70.998 45.1059 70.3705 47.8176 69.3273C55.465 66.3844 61.2891 61.3685 65.2763 54.2812C65.3924 54.0772 65.495 53.8655 65.6344 53.6004C64.0627 52.4065 62.5026 51.224 61.0123 50.093C60.1297 51.6378 59.338 53.1865 58.3896 54.636C57.687 55.7117 56.8412 56.711 55.9566 57.6494C54.4507 59.2476 51.9423 59.3582 50.4403 57.8191C47.5989 54.9087 45.433 51.5959 44.7227 47.5164C44.682 47.2818 44.6646 47.0434 44.6375 46.8069C44.6104 46.5723 44.5872 46.3358 44.5562 46.0478C44.2484 46.0936 43.9736 46.1374 43.6968 46.1718C42.8723 46.2728 42.1135 46.1069 41.4341 45.6225C40.5922 45.0236 39.7405 44.4381 38.9141 43.8183C37.4566 42.7235 37.1856 40.9269 38.2637 39.4488C39.1386 38.2492 40.0135 37.0496 40.9561 35.9033C41.9684 34.6713 42.1774 33.1874 42.4793 31.7208C43.1316 28.5605 44.9491 26.4435 48.1737 25.6654C48.9073 25.488 49.7067 25.4766 50.4674 25.5281C52.1649 25.6425 52.8365 25.3259 53.6301 23.865C53.9823 23.2146 54.3249 22.5566 54.6966 21.9177C55.4166 20.6837 56.5024 19.9037 57.927 19.7511C59.0709 19.6271 59.7832 19.0569 60.2787 18.1052C60.511 17.6608 60.7529 17.2222 61.0103 16.7453C58.978 14.4376 56.6379 12.4675 54.0288 10.8025C53.7849 10.648 53.5314 10.5068 53.301 10.3352C52.7804 9.94613 52.6565 9.38922 52.9623 8.89144C53.2739 8.3803 53.9185 8.19721 54.4759 8.56149C55.7205 9.37778 56.9863 10.1788 58.1457 11.1038C65.0634 16.629 69.4823 23.7162 70.9262 32.375C73.0185 44.9225 69.3158 55.7307 59.9419 64.46C54.0578 69.9395 46.8576 72.7469 38.8308 73.5155C38.6431 73.5327 38.4573 73.5899 38.2715 73.6299H33.781V73.6185ZM62.5627 18.4752C62.2762 18.9615 62.0788 19.3144 61.862 19.6538C61.2097 20.6837 60.3464 21.5534 59.1038 21.6717C57.4605 21.8262 56.5295 22.6882 55.9527 24.1015C55.8637 24.3208 55.7185 24.5192 55.6198 24.7347C54.5688 27.0653 52.7145 27.8797 50.2196 27.6317C48.4718 27.4582 47.0066 28.1028 45.8433 29.4035C45.0091 30.3362 44.6936 31.4824 44.5039 32.6687C44.1981 34.5931 43.4974 36.3248 42.2064 37.8296C41.4593 38.7012 40.8012 39.6472 40.116 40.5684C39.6128 41.2454 39.6844 41.7032 40.3677 42.2029C41.1032 42.7426 41.8406 43.2823 42.5974 43.7935C43.4181 44.3504 44.7362 43.9136 45.0517 43.0039C46.4105 39.0693 50.3222 36.6891 54.4082 37.3108C58.4554 37.9269 61.5407 41.3923 61.6239 45.4241C61.6413 46.2347 61.3762 47.1864 61.7187 47.8196C62.0923 48.51 63.0233 48.9067 63.7124 49.4274C64.6627 50.1464 65.6131 50.8654 66.6602 51.6588C71.2707 39.8436 69.9216 28.8886 62.5627 18.4733V18.4752ZM19.454 9.04401C19.454 9.25762 19.4482 9.47314 19.4559 9.68674C19.4617 9.82979 19.4869 9.97092 19.5082 10.1121C20.0889 13.7682 22.0786 16.6862 24.5271 19.3468C25.2394 20.123 26.3717 20.0811 27.1014 19.2934C29.035 17.1993 30.6512 14.8992 31.559 12.1795C32.0777 10.627 32.3661 9.03257 31.977 7.4019C31.2377 4.30268 28.2627 2.20283 25.1465 2.55376C21.858 2.92376 19.4288 5.6835 19.4559 9.04401H19.454ZM59.458 45.283C59.5064 41.6078 55.6159 38.5372 51.5474 39.569C48.2125 40.4139 46.2053 43.7496 46.8885 47.3027C47.5602 50.7987 49.4783 53.6233 51.8513 56.1846C52.5946 56.9857 53.7114 56.9189 54.472 56.0893C55.9527 54.4758 57.2379 52.7269 58.1806 50.7472C58.9257 49.1813 59.4387 47.5564 59.46 45.283H59.458Z" fill="#C93131"/>
<path d="M38.314 73.9999L33.7287 73.9961C33.301 73.937 32.8732 73.8836 32.4454 73.8302C31.5261 73.7139 30.5757 73.5937 29.6447 73.4297C23.6619 72.3731 18.2094 69.9299 13.4383 66.167C12.9447 65.7779 12.6621 65.3011 12.6428 64.8281C12.6273 64.4353 12.786 64.0729 13.1035 63.7792C13.7209 63.207 14.4564 63.2509 15.2887 63.907C17.7527 65.8504 20.4566 67.4296 23.327 68.6006C27.2678 70.2084 31.2996 71.0228 35.6314 71.0876C35.5501 70.8263 35.4746 70.5746 35.4126 70.3171C34.9346 68.3126 35.4785 66.68 37.0308 65.4671C37.5708 65.0456 37.9172 64.3628 37.985 63.5923C38.0527 62.8122 37.8224 62.0684 37.354 61.5515C37.0753 61.2445 36.7811 60.9374 36.4985 60.6418C36.274 60.4072 36.0475 60.1726 35.8268 59.9323C34.2358 58.2177 34.0461 56.0302 35.3178 54.081C35.3817 53.9837 35.4475 53.8884 35.5152 53.793C35.5985 53.6747 35.6797 53.5565 35.7552 53.4344C36.0765 52.9157 36.154 52.353 35.9739 51.8514C35.7978 51.3651 35.3933 50.9894 34.8339 50.7929C33.4674 50.3161 32.0099 49.8393 30.2486 49.2939C29.2227 48.9754 28.4698 48.3784 27.9433 47.4668C27.0491 45.9143 26.1181 44.3447 25.2181 42.8284L24.8929 42.281C24.6974 41.953 24.4903 41.7547 24.3355 41.7508H24.3316C24.1787 41.7508 23.9658 41.9397 23.7606 42.2582C23.6754 42.3898 23.5942 42.5214 23.5109 42.6549C23.3812 42.8666 23.2458 43.084 23.1006 43.2957C22.1212 44.7261 20.4237 45.241 18.8772 44.5773C17.3578 43.9251 16.5391 42.302 16.932 40.719C17.4314 38.7069 17.983 36.6738 18.5172 34.7075L18.7069 34.0114C18.9624 33.0711 19.5779 32.3502 20.5399 31.8677C21.7786 31.2478 22.7986 30.7271 23.749 30.2332C24.2426 29.9776 24.3045 29.8117 24.0974 29.3082C23.7916 28.5605 23.2574 28.1143 22.4677 27.9407C21.9605 27.8301 21.4302 27.7481 20.9192 27.6699L20.7818 27.6489C19.3108 27.42 18.0701 26.9795 16.9881 26.3024C15.4416 25.3354 14.0112 24.4753 12.6118 23.6724C10.8389 22.6558 9.6872 21.2883 9.0988 19.4994C8.91879 19.7854 8.73878 20.0677 8.56458 20.3443C7.91617 21.3646 7.3026 22.3297 6.76258 23.3386C0.342354 35.3083 2.18694 50.1254 11.3498 60.207L11.5008 60.3729C11.646 60.5293 11.795 60.6914 11.9363 60.8611C12.5421 61.5821 12.5286 62.4117 11.8995 62.9743C11.586 63.2547 11.1969 63.3939 10.806 63.3615C10.4034 63.3291 10.024 63.1193 9.73946 62.7683C9.39494 62.343 9.04266 61.9215 8.69233 61.4981C7.61423 60.2012 6.49935 58.8605 5.56835 57.4224C1.30045 50.8273 -0.528646 43.576 0.131378 35.8709C1.10496 24.5115 6.48386 15.4484 16.119 8.93149C16.6126 8.59772 16.8991 8.29638 16.9997 7.65747C17.623 3.69428 20.2921 0.947886 24.32 0.123969C24.3258 0.122062 24.3606 0.10299 24.3839 0.0896391C24.4187 0.0705669 24.4516 0.053402 24.4864 0.0362371L24.5658 0H26.8923L26.9543 0.0209794C27.262 0.127783 27.5737 0.226959 27.8872 0.326134C28.6247 0.560721 29.3873 0.802938 30.1015 1.14433C30.8447 1.49716 31.557 2.035 32.1067 2.65866C32.5112 3.1183 32.8887 3.17742 33.4887 3.12974C38.9992 2.6968 44.5097 3.58366 49.8635 5.76933L49.9099 5.7884C50.0532 5.84752 50.2022 5.90664 50.3512 5.97912C51.1893 6.38726 51.5281 7.17303 51.1932 7.93401C50.87 8.66829 50.0764 8.94484 49.1725 8.63968C48.6809 8.47376 48.1912 8.30211 47.7015 8.13236C46.424 7.68608 45.102 7.22453 43.782 6.86979C41.0354 6.12979 38.0469 5.82463 34.6423 5.94097C34.5184 5.94479 34.3907 5.95623 34.2532 5.96768C34.2707 6.03634 34.2881 6.1069 34.3055 6.17556C34.4197 6.6352 34.53 7.07195 34.592 7.52968C34.9423 10.0529 34.41 12.5952 32.9158 15.5305C31.9557 17.4148 30.6841 19.1961 29.0253 20.9736C28.1524 21.9082 27.0065 22.4288 25.7987 22.4384C24.6335 22.4479 23.5187 21.9692 22.6728 21.0919C19.8469 18.1605 18.0585 15.0861 17.2088 11.695C17.1778 11.716 17.1488 11.737 17.1236 11.758C16.1945 12.5571 15.2693 13.3562 14.3422 14.1573C13.4209 14.9545 12.4976 15.7517 11.5744 16.5451C11.4098 16.6862 11.3731 16.7949 11.4524 17.1974C11.8705 19.2953 13.0047 20.7581 14.9171 21.666C15.5287 21.9559 16.1732 22.3411 16.8913 22.8446C18.6353 24.0691 20.565 24.7938 22.787 25.0608C24.8832 25.3145 26.6872 26.9547 27.0743 28.9611C27.3878 30.5841 26.7356 31.9592 25.2897 32.7297C24.8581 32.9605 24.4148 33.1798 23.9851 33.3934C23.358 33.7043 22.7077 34.0266 22.098 34.3814C21.8173 34.5435 21.5463 34.8734 21.465 35.1481C21.0547 36.5556 20.6792 38.0032 20.3134 39.4012C20.1682 39.9581 20.0231 40.5169 19.876 41.0738C19.7095 41.7051 19.8431 41.81 20.0695 41.8996C20.2844 41.9854 20.4895 42.0121 20.807 41.459C20.9657 41.1844 21.1321 40.9193 21.3063 40.6504C22.0418 39.5003 23.1451 38.8442 24.3355 38.8442C24.351 38.8442 24.3645 38.8442 24.38 38.8442C25.5762 38.8614 26.6659 39.5404 27.3685 40.7095C28.2898 42.241 29.3331 43.9766 30.3125 45.7255C30.5873 46.2175 30.9299 46.4846 31.4931 46.6524C32.7667 47.03 34.0461 47.4534 35.283 47.8635L35.5597 47.955C37.1469 48.4814 38.2869 49.5361 38.7689 50.9245C39.2566 52.3244 39.0089 53.8617 38.0721 55.252C37.174 56.5871 37.2224 57.1592 38.3276 58.3207C38.4069 58.4046 38.4844 58.4886 38.5618 58.5744C38.7244 58.7556 38.8792 58.9253 39.0495 59.0703C41.0606 60.7887 41.0141 63.1078 40.8032 64.7004C40.6599 65.7817 40.0986 66.7373 39.1347 67.5383C38.0334 68.4519 37.8843 69.827 38.767 70.8893C38.8328 70.9217 39.0534 70.9503 39.3573 70.9179C42.3206 70.6089 45.1194 69.9528 47.6763 68.9687C55.2056 66.0697 61.0142 61.0652 64.9376 54.0924C65.0072 53.9685 65.0711 53.8445 65.1427 53.7053L61.1303 50.6594C60.9406 50.9951 60.7548 51.3327 60.571 51.6665C59.9864 52.7211 59.3845 53.8121 58.7148 54.8362C58.0818 55.8032 57.2728 56.8064 56.2411 57.903C55.4205 58.7727 54.2765 59.2781 53.0997 59.2877C51.9771 59.2991 50.9338 58.8681 50.1635 58.0766C46.8943 54.7256 44.9898 51.2907 44.3433 47.5736C44.3104 47.3905 44.293 47.2074 44.2755 47.0319L44.2562 46.8431C44.2426 46.7249 44.231 46.6047 44.2175 46.4788C44.0588 46.5036 43.9039 46.5246 43.7491 46.5437C42.8045 46.66 41.9509 46.4521 41.2116 45.9257C40.9715 45.756 40.7315 45.5862 40.4915 45.4165C39.8954 44.9969 39.2779 44.5621 38.6837 44.1139C37.0482 42.8837 36.7482 40.8716 37.954 39.2181C38.8153 38.0375 39.7057 36.815 40.658 35.6535C41.5058 34.6217 41.7516 33.3896 42.0109 32.087C42.0419 31.9363 42.0709 31.7856 42.1019 31.635C42.8084 28.2096 44.8214 26.0716 48.0847 25.2859C48.7602 25.1218 49.5499 25.0742 50.4964 25.1371C52.0661 25.242 52.5887 24.9693 53.2913 23.6743C53.3881 23.495 53.4849 23.3157 53.5817 23.1364C53.8314 22.6692 54.0907 22.1866 54.3656 21.7175C55.1708 20.3385 56.3902 19.5242 57.8883 19.362C58.8406 19.2591 59.4716 18.8147 59.938 17.9202C60.0968 17.615 60.2613 17.3137 60.4316 16.999L60.5458 16.7873C58.6257 14.6436 56.3631 12.7345 53.8217 11.1114C53.7481 11.0638 53.6707 11.018 53.5952 10.9722C53.421 10.8654 53.243 10.7567 53.0707 10.627C52.3932 10.1197 52.2229 9.3568 52.6333 8.68164C52.8462 8.33262 53.1752 8.09422 53.5604 8.0084C53.9436 7.92448 54.3462 8.00267 54.6927 8.22963L55.1746 8.54432C56.2527 9.24808 57.3676 9.97473 58.3935 10.7929C65.5376 16.4993 69.8829 23.7353 71.3113 32.2987C73.4269 44.9855 69.6913 55.8928 60.2109 64.7232C54.5611 69.9852 47.3802 73.0673 38.8715 73.8798C38.7708 73.8893 38.6605 73.916 38.5444 73.9446C38.4805 73.9599 38.4186 73.9751 38.3547 73.9885L38.316 73.9961L38.314 73.9999ZM33.8081 73.2371H38.2308C38.2734 73.2275 38.316 73.218 38.3586 73.2065C38.496 73.1741 38.6392 73.1398 38.7941 73.1245C47.1285 72.3273 54.1546 69.3139 59.6767 64.1721C68.9596 55.5267 72.6159 44.8463 70.5449 32.4265C69.1493 24.0538 64.895 16.9761 57.9038 11.3899C56.9089 10.5946 55.8095 9.87747 54.7449 9.18324L54.2611 8.86855C54.0888 8.75602 53.903 8.71597 53.7268 8.75602C53.5488 8.79608 53.3959 8.9086 53.2933 9.07834C53.09 9.41211 53.1771 9.7554 53.5352 10.0224C53.6785 10.1292 53.8352 10.2246 53.9998 10.3257C54.0791 10.3752 54.1604 10.4229 54.2378 10.4744C56.9186 12.1871 59.2954 14.2087 61.3007 16.4879L61.4749 16.6862L61.109 17.3633C60.9406 17.6742 60.7781 17.9717 60.6213 18.273C60.0309 19.404 59.187 19.9933 57.9657 20.1249C56.7037 20.2603 55.7166 20.926 55.0295 22.1027C54.7624 22.5585 54.5069 23.0353 54.2591 23.4969C54.1623 23.6781 54.0656 23.8593 53.9668 24.0385C53.1133 25.612 52.3197 26.0297 50.4364 25.9019C49.5712 25.8428 48.8589 25.8847 48.2608 26.0297C45.2743 26.7506 43.5052 28.6349 42.8529 31.7914C42.8219 31.9401 42.7929 32.0889 42.7619 32.2396C42.4948 33.5765 42.218 34.9593 41.2503 36.1398C40.3115 37.2841 39.427 38.4952 38.5715 39.6682C37.625 40.967 37.8592 42.5481 39.1424 43.5112C39.727 43.9518 40.3406 44.3828 40.9309 44.7986C41.1728 44.9683 41.4129 45.1381 41.6548 45.3097C42.2393 45.7255 42.8897 45.8819 43.6426 45.7884C43.8265 45.7655 44.0104 45.7388 44.202 45.7083L44.893 45.6072L44.9607 46.2576C44.9801 46.4369 44.9956 46.599 45.0149 46.7592C45.0227 46.824 45.0285 46.8908 45.0362 46.9556C45.0536 47.1273 45.0691 47.2875 45.0981 47.4458C45.7175 51.0085 47.5544 54.3118 50.7132 57.5502C51.3345 58.1872 52.1765 58.5324 53.0862 58.5267C54.0501 58.5191 54.9908 58.1014 55.6663 57.3843C56.6669 56.322 57.4489 55.3531 58.0567 54.4243C58.7109 53.423 59.2799 52.3931 59.8838 51.3022C60.1413 50.8368 60.4006 50.3695 60.6677 49.9004L60.8865 49.517L66.1183 53.4878L65.9712 53.7701C65.9247 53.8578 65.8821 53.9399 65.8434 54.018C65.7602 54.1783 65.6866 54.3213 65.6092 54.4605C61.5949 61.5935 55.6547 66.7125 47.9512 69.6763C45.3304 70.6852 42.4639 71.3565 39.4308 71.6731C39.005 71.717 38.4437 71.7036 38.1766 71.3871C37.0075 70.0024 37.1972 68.1353 38.6276 66.949C39.4386 66.2757 39.9109 65.4842 40.027 64.5974C40.3289 62.3106 39.8683 60.7829 38.5347 59.6405C38.3276 59.4631 38.1495 59.2667 37.9773 59.0779C37.9037 58.9978 37.8321 58.9158 37.7566 58.8376C36.392 57.4072 36.3127 56.4688 37.4198 54.8248C38.2211 53.6366 38.436 52.3359 38.0295 51.1668C37.6269 50.0072 36.6591 49.1203 35.3062 48.6721L35.0275 48.5806C33.7965 48.1724 32.5229 47.749 31.2609 47.3771C30.5021 47.154 29.9989 46.7554 29.6253 46.0878C28.6518 44.3485 27.6104 42.6186 26.693 41.0909C26.1317 40.1564 25.28 39.6129 24.3587 39.6014C24.3471 39.6014 24.3374 39.6014 24.3258 39.6014C23.4064 39.6014 22.5431 40.1278 21.9509 41.0528C21.7825 41.3141 21.6199 41.5716 21.4709 41.8309C21.0199 42.6129 20.4469 42.8723 19.7695 42.6034C18.7669 42.2029 19.0301 41.2054 19.1172 40.8773C19.2643 40.3204 19.4095 39.7654 19.5547 39.2085C19.9205 37.8048 20.2979 36.3534 20.7121 34.9345C20.8476 34.471 21.2425 33.9828 21.6954 33.7196C22.3264 33.3534 22.9883 33.0253 23.6271 32.7087C24.0509 32.4989 24.4884 32.2815 24.9103 32.0565C26.0581 31.4443 26.5517 30.3953 26.3039 29.1003C25.9788 27.4105 24.4555 26.0297 22.6844 25.8161C20.3308 25.5319 18.2869 24.7633 16.4345 23.4626C15.7532 22.9858 15.1455 22.6215 14.5725 22.3487C12.455 21.3436 11.1466 19.6577 10.684 17.3404C10.5969 16.9056 10.5466 16.404 11.0556 15.9672C11.9789 15.1738 12.9002 14.3766 13.8235 13.5794C14.7506 12.7783 15.6777 11.9773 16.6068 11.1782C16.7423 11.0618 16.8913 10.9817 17.0346 10.9035C17.0965 10.8711 17.1604 10.8349 17.2262 10.7967L17.6365 10.5526L17.7933 10.9989C17.8107 11.0466 17.8243 11.0866 17.8378 11.1229C17.8669 11.2011 17.892 11.2697 17.9114 11.3479C18.7127 14.6684 20.4508 17.6818 23.2245 20.5598C23.9155 21.2769 24.8136 21.6698 25.7562 21.6698C25.7658 21.6698 25.7736 21.6698 25.7833 21.6698C26.7743 21.6621 27.7208 21.2292 28.4466 20.4511C30.055 18.7269 31.288 17.0047 32.2151 15.1833C33.6358 12.3931 34.1449 9.9919 33.8158 7.62886C33.7577 7.21118 33.6532 6.79541 33.5448 6.35484C33.4926 6.14314 33.4384 5.92953 33.3881 5.7102L33.2913 5.28299L33.7326 5.24675C33.839 5.23721 33.9397 5.22768 34.0345 5.22005C34.232 5.20098 34.4178 5.18381 34.6055 5.17809C38.0876 5.06175 41.1535 5.37262 43.9755 6.1336C45.3227 6.49597 46.6582 6.96324 47.9492 7.41334C48.437 7.58309 48.9228 7.75283 49.4125 7.91876C49.6564 8.00077 50.2506 8.13809 50.4712 7.63267C50.6377 7.25123 50.4616 6.89077 49.997 6.66381C49.8732 6.60278 49.7415 6.54938 49.6041 6.49407L49.5557 6.47499C44.3142 4.33701 38.9257 3.46732 33.5371 3.89072C32.8674 3.94412 32.157 3.89072 31.5086 3.15835C31.0267 2.61098 30.4015 2.1399 29.7511 1.83093C29.0834 1.51433 28.3479 1.27974 27.6356 1.05278C27.3394 0.957422 27.0414 0.863968 26.7472 0.762886H24.7361C24.6684 0.80103 24.5755 0.848711 24.4632 0.871597C20.7682 1.62685 18.3198 4.14247 17.7488 7.77381C17.6075 8.67401 17.1642 9.13747 16.541 9.55896C7.1226 15.9405 1.85596 24.8148 0.903664 35.9338C0.257189 43.4692 2.04758 50.5603 6.22256 57.0124C7.1284 58.4123 8.2278 59.734 9.29235 61.0137C9.64656 61.439 9.99883 61.8624 10.3453 62.2915C10.4963 62.4785 10.6782 62.5853 10.8679 62.6005C11.0402 62.6139 11.226 62.5471 11.3789 62.4098C11.7815 62.0493 11.5802 61.6316 11.3402 61.3475C11.2085 61.1911 11.0731 61.0423 10.9279 60.884L10.773 60.7162C1.39529 50.3962 -0.49187 35.2339 6.0774 22.9819C6.63097 21.9482 7.25228 20.9736 7.90843 19.9399C8.21231 19.4631 8.52587 18.9711 8.83556 18.4657L9.21299 17.8515L9.51881 18.5038C9.57107 18.6144 9.61172 18.6964 9.64462 18.7632C9.70462 18.8852 9.74527 18.9653 9.7743 19.0645C10.2814 20.7677 11.3363 22.0608 13.0028 23.0163C14.41 23.823 15.85 24.6889 17.4043 25.6616C18.3953 26.2814 19.5411 26.6877 20.9037 26.8994L21.0412 26.9203C21.5638 27.0004 22.1057 27.0844 22.6361 27.2007C23.6638 27.4238 24.4187 28.057 24.8155 29.0259C25.1697 29.8918 24.9529 30.4735 24.1109 30.9121C23.1567 31.408 22.1347 31.9287 20.8921 32.5523C20.1237 32.9376 19.6534 33.4812 19.4559 34.2116L19.2663 34.9078C18.734 36.8703 18.1823 38.8996 17.6849 40.904C17.383 42.1247 18.014 43.3777 19.1869 43.8812C20.3811 44.3923 21.6954 43.988 22.458 42.8723C22.5935 42.6758 22.7232 42.4641 22.849 42.2601C22.9341 42.1227 23.0193 41.9873 23.1064 41.8519C23.48 41.2721 23.9019 40.9803 24.349 40.9918C24.8 40.9994 25.2084 41.3046 25.5607 41.8996L25.8858 42.4451C26.7878 43.9632 27.7208 45.5348 28.6169 47.0929C29.0466 47.8387 29.6389 48.3078 30.4809 48.5691C32.2519 49.1184 33.7171 49.5971 35.0933 50.0758C35.8772 50.3486 36.4482 50.8902 36.7037 51.5978C36.9611 52.3092 36.8546 53.1236 36.4172 53.8331C36.332 53.9704 36.2411 54.1001 36.154 54.2259C36.092 54.3156 36.0301 54.4033 35.9701 54.4949C34.8997 56.1351 35.0584 57.9755 36.3978 59.4174C36.6166 59.652 36.8391 59.8846 37.0617 60.1173C37.3501 60.4168 37.6463 60.7276 37.9327 61.0423C38.5424 61.7137 38.8424 62.6673 38.7573 63.6552C38.6721 64.6336 38.2192 65.5109 37.5127 66.0621C36.1965 67.0901 35.7572 68.4252 36.1656 70.1397C36.2275 70.3991 36.3088 70.6623 36.3959 70.9389C36.4385 71.0762 36.483 71.2173 36.5256 71.3642L36.6708 71.8524H36.154C31.5183 71.8467 27.2272 71.0132 23.0309 69.3025C20.0947 68.1047 17.3268 66.4893 14.8048 64.5001C14.1312 63.968 13.8564 64.1263 13.6338 64.3323C13.4828 64.4715 13.4093 64.6279 13.417 64.7938C13.4267 65.0418 13.6067 65.3164 13.9222 65.5662C18.5907 69.2491 23.9271 71.6407 29.7802 72.6744C30.6918 72.8346 31.6344 72.9548 32.5441 73.0692C32.9661 73.1226 33.3881 73.176 33.8081 73.2332V73.2371ZM53.0842 57.1325C52.5171 57.1325 51.9771 56.8884 51.5648 56.444C48.7099 53.3658 47.1034 50.484 46.5072 47.3752C45.7853 43.6142 47.9105 40.0992 51.4506 39.2009C53.5275 38.6745 55.6895 39.1246 57.385 40.4368C58.9722 41.6669 59.8703 43.4349 59.8451 45.2868C59.8219 47.8539 59.1677 49.5704 58.5309 50.9093C57.6483 52.7631 56.4134 54.5425 54.7585 56.3448C54.294 56.8503 53.7017 57.1306 53.09 57.1306H53.0842V57.1325ZM53.1636 39.7502C52.6584 39.7502 52.1474 39.8131 51.6442 39.9409C48.5047 40.7362 46.6234 43.8717 47.2698 47.2341C47.8389 50.1979 49.3854 52.9595 52.1378 55.9291C52.4049 56.2171 52.732 56.3696 53.0842 56.3696H53.0881C53.4791 56.3696 53.8701 56.1789 54.1856 55.8337C55.7882 54.0867 56.9805 52.3702 57.8302 50.5851C58.4322 49.3206 59.0515 47.7014 59.0728 45.2792C59.0941 43.6638 58.3064 42.117 56.9089 41.0356C55.8172 40.1907 54.5069 39.7483 53.1655 39.7483L53.1636 39.7502ZM66.8363 52.2768L65.5221 51.2812C64.8176 50.7491 64.1479 50.2418 63.4782 49.7325C63.2827 49.5857 63.0659 49.4465 62.8375 49.3015C62.2723 48.943 61.6878 48.571 61.38 48.0008C61.0916 47.4687 61.1458 46.8202 61.2 46.1927C61.2232 45.9238 61.2445 45.6702 61.2387 45.4318C61.1574 41.6021 58.196 38.2721 54.3501 37.6866C50.4674 37.0953 46.7124 39.3821 45.4195 43.1259C45.2336 43.6657 44.7536 44.1082 44.1401 44.3103C43.5226 44.5125 42.8645 44.4362 42.3806 44.1082C41.6142 43.5894 40.8651 43.0401 40.1393 42.508C39.2799 41.8786 39.1754 41.1901 39.8083 40.3414C39.9747 40.1183 40.1393 39.8932 40.3038 39.6682C40.8128 38.972 41.3412 38.2511 41.9161 37.5817C43.089 36.2161 43.811 34.5892 44.1265 32.6077C44.3046 31.4881 44.6143 30.2027 45.5569 29.1499C46.8479 27.7061 48.4312 27.0672 50.2622 27.2503C52.7455 27.4963 54.3365 26.6495 55.2695 24.5783C55.3217 24.4619 55.3837 24.3551 55.4417 24.2541C55.5017 24.1511 55.5579 24.0519 55.5966 23.9565C56.274 22.2972 57.3773 21.4504 59.069 21.2902C60 21.2025 60.8071 20.5998 61.5349 19.4498C61.6742 19.2285 61.8097 18.9978 61.9646 18.7308C62.0459 18.5915 62.131 18.4428 62.2278 18.2807L62.5336 17.7638L62.8801 18.254C66.5789 23.4893 68.8009 28.9534 69.4842 34.4939C70.1674 40.0343 69.339 45.8552 67.0222 51.7942L66.8363 52.271V52.2768ZM53.1268 36.834C53.5701 36.834 54.0172 36.8665 54.4662 36.9351C58.678 37.5759 61.922 41.2225 62.011 45.4184C62.0168 45.695 61.9917 45.981 61.9684 46.2576C61.922 46.7973 61.8794 47.3085 62.0594 47.6422C62.2723 48.037 62.7485 48.3403 63.2536 48.6607C63.4859 48.8075 63.7259 48.962 63.9466 49.1279C64.6163 49.6353 65.286 50.1426 65.9905 50.6747L66.4821 51.0466C70.7733 39.6758 69.4997 29.2452 62.5897 19.1904C62.4484 19.4326 62.3226 19.6462 62.1891 19.856C61.3258 21.2216 60.3271 21.9387 59.1406 22.0512C57.7489 22.1828 56.876 22.858 56.3127 24.2426C56.2547 24.3837 56.1831 24.5096 56.1134 24.6298C56.0611 24.7194 56.0127 24.8052 55.974 24.8892C54.9153 27.2369 52.9662 28.2878 50.1809 28.0094C48.6112 27.853 47.2505 28.4061 46.1337 29.6534C45.3207 30.5612 45.0478 31.7151 44.8872 32.7259C44.5485 34.8505 43.7684 36.5995 42.5026 38.0737C41.9471 38.7222 41.4283 39.4298 40.927 40.1145C40.7606 40.3414 40.5961 40.5684 40.4277 40.7934C40.0483 41.3026 40.0812 41.5201 40.598 41.8958C41.318 42.4222 42.0613 42.9676 42.8161 43.4788C43.1007 43.6733 43.5033 43.7115 43.8942 43.5856C44.2794 43.4597 44.5756 43.1965 44.6839 42.8799C45.9479 39.2181 49.3738 36.8302 53.1249 36.8302L53.1268 36.834ZM25.7678 20.289H25.7658C25.189 20.289 24.6471 20.0448 24.2406 19.6043C21.2173 16.3143 19.6398 13.4058 19.1269 10.1712L19.1211 10.1311C19.0998 9.99381 19.0766 9.85267 19.0708 9.702C19.065 9.54561 19.065 9.38731 19.0669 9.23092V9.04401C19.0417 5.51567 21.6354 2.5633 25.1019 2.17422C28.4447 1.7985 31.5648 4.00897 32.3545 7.31417C32.7067 8.78845 32.5712 10.3714 31.9267 12.2996C31.0925 14.7962 29.6505 17.1001 27.3878 19.5509C26.9485 20.0277 26.3717 20.289 25.7678 20.289ZM25.8142 2.89706C25.6071 2.89706 25.4 2.9085 25.191 2.93139C22.1173 3.2766 19.8198 5.90283 19.8431 9.0402V9.23664C19.8411 9.38159 19.8392 9.52654 19.845 9.66958C19.8489 9.77638 19.8682 9.89082 19.8876 10.011L19.8934 10.051C20.3811 13.1293 21.8986 15.9176 24.8155 19.0893C25.0729 19.3697 25.4116 19.5242 25.7678 19.5242C26.153 19.5242 26.5246 19.3506 26.8169 19.0359C29.004 16.6671 30.3957 14.451 31.1931 12.0612C31.797 10.2494 31.9248 8.83994 31.6015 7.48963C30.9628 4.81381 28.4911 2.89706 25.8142 2.89706Z" fill="#C93131"/>
</svg>
