<svg width="67" height="72" viewBox="0 0 67 72" fill="none" xmlns="http://www.w3.org/2000/svg">
<path d="M21.1514 51.0026C21.3978 48.4943 21.6397 46.0439 21.889 43.5104H20.9198C15.6093 43.5104 10.2988 43.5118 4.98679 43.5104C1.61166 43.5104 -0.229328 41.4659 0.0229223 38.073C0.716241 28.7311 1.38743 19.3863 2.06748 10.0429C2.20909 8.0907 2.34923 6.13698 2.50264 4.18475C2.69146 1.79242 4.62095 0.00819965 7.05347 0.00522596C15.3394 -0.00220828 23.6253 0.000765418 31.9112 0.00373911C33.0219 0.00373911 33.702 0.601451 33.6843 1.53668C33.6666 2.44514 33.0116 3.00271 31.9259 3.00271C23.8126 3.00568 15.6978 3.0042 7.58452 3.00568C5.95301 3.00568 5.5444 3.40862 5.42638 5.02482C4.71536 14.838 3.99549 24.6512 3.27857 34.4629C3.18121 35.7981 3.09713 37.1333 2.98797 38.467C2.87291 39.8735 3.42018 40.4921 4.8378 40.4921C14.7714 40.495 24.7036 40.4921 34.6372 40.4921C41.153 40.4921 47.6687 40.4935 54.1844 40.4906C55.5268 40.4906 56.1286 39.8274 56.0239 38.5027C55.841 36.1832 55.6522 33.8637 55.4825 31.5427C54.8246 22.5696 54.1756 13.598 53.5206 4.62486C53.4424 3.55135 52.8818 3.00866 51.8079 3.0042C49.2515 2.99379 46.6936 3.00866 44.1372 2.9923C43.2403 2.98635 42.6178 2.35296 42.6134 1.51884C42.6089 0.689175 43.2359 0.0557787 44.1136 0.00373911C44.2109 -0.00220827 44.3098 0.00225226 44.4086 0.00225226C46.8913 0.00225226 49.3754 -0.00369512 51.8581 0.00373911C54.4544 0.0111733 56.3293 1.80877 56.4989 4.40629C56.6272 6.36001 56.788 8.31075 56.9355 10.2645C56.9385 10.312 56.9636 10.3581 57.0137 10.5143C57.2409 10.5143 57.502 10.5143 57.7631 10.5143C59.2132 10.5143 60.6647 10.5038 62.1148 10.5187C63.0515 10.5291 63.6135 11.0213 63.705 11.9282C64.2006 16.8348 64.6933 21.7399 65.1683 26.648C65.2864 27.8658 64.6756 28.5096 63.4468 28.517C61.7534 28.5289 60.0614 28.52 58.275 28.52C58.3001 28.9407 58.3192 29.2991 58.3443 29.6559C58.5553 32.5969 58.7898 35.5379 58.9742 38.4818C59.1601 41.4555 57.2321 43.4999 54.2537 43.5044C48.8694 43.5148 43.4852 43.5074 38.0994 43.5074H37.0993C37.294 45.5235 37.4828 47.4787 37.679 49.5083C38.0345 49.5083 38.3428 49.5083 38.6511 49.5083C46.4458 49.5083 54.239 49.5425 62.0337 49.4875C64.3216 49.4711 66.7807 51.1632 66.704 54.1919C66.5933 58.5022 66.6774 62.8185 66.6759 67.1319C66.6745 70.1487 64.8409 71.9998 61.8537 71.9998C42.308 71.9998 22.7608 71.9998 3.21514 71.9998C1.70016 71.9998 1.21632 71.5211 1.21042 70.0149C1.20894 69.5198 1.2591 69.0172 1.20304 68.528C0.621832 63.4371 2.30645 58.7431 3.73734 54.0164C4.22414 52.4047 5.44409 51.4457 7.0815 51.0888C7.48421 51.0011 7.91201 51.0056 8.328 51.0056C12.3109 50.9996 16.2938 51.0011 20.2767 51.0011C20.5422 51.0011 20.8077 51.0011 21.147 51.0011L21.1514 51.0026ZM50.4361 52.5043C46.5018 52.5043 42.5691 52.4983 38.6349 52.5073C37.4105 52.5102 36.9355 53.0039 36.9355 54.2112C36.9355 58.4993 36.9326 62.7873 36.9355 67.0769C36.9355 68.4879 37.4489 68.9994 38.8503 68.9994C46.4959 69.0009 54.1416 69.0009 61.7888 68.9994C63.1975 68.9994 63.7079 68.4894 63.7079 67.0784C63.7109 62.8646 63.7079 58.6509 63.7079 54.4357C63.7079 52.9072 63.3111 52.5043 61.7932 52.5028C58.0065 52.5013 54.2213 52.5028 50.4346 52.5028L50.4361 52.5043ZM4.71389 61.4447H33.8879V58.4963C33.5412 58.4963 33.2506 58.4963 32.96 58.4963C29.396 58.4963 25.8306 58.5022 22.2667 58.4933C21.0674 58.4903 20.5142 57.8718 20.6027 56.6675C20.6661 55.8081 20.7517 54.9516 20.824 54.122C20.7178 54.0655 20.6764 54.0224 20.6337 54.0224C16.3808 54.0164 12.1294 54.0045 7.8766 54.0179C7.22901 54.0194 6.73484 54.397 6.54897 55.023C5.92498 57.1314 5.33787 59.2516 4.71389 61.4462V61.4447ZM34.0014 64.5641H4.27872V68.9399H34.0014V64.5641ZM23.7108 55.4527H33.9469C33.9469 54.9412 33.8923 54.4684 33.9601 54.012C34.0678 53.2879 34.1327 52.5102 34.4514 51.8768C34.7508 51.2791 34.8379 50.7394 34.7641 50.1134C34.6594 49.2288 34.5841 48.3411 34.4927 47.4535C34.3599 46.1569 34.2227 44.8619 34.087 43.555H24.8954C24.5 47.5248 24.1091 51.4576 23.7123 55.4512L23.7108 55.4527ZM57.1716 13.5534C57.4504 17.443 57.7203 21.2448 58.008 25.0452C58.0198 25.1984 58.1938 25.4615 58.2956 25.4645C59.5362 25.4942 60.7768 25.4838 62.0558 25.4838C61.6531 21.4337 61.2607 17.501 60.8683 13.5549H57.1716V13.5534Z" fill="#C93131"/>
<path d="M29.3238 36.039C25.8424 36.039 22.3611 36.0434 18.8797 36.039C15.5429 36.033 12.2076 36.0315 8.87085 35.9973C7.65533 35.9839 7.13608 35.3966 7.20098 34.167C7.51519 28.2776 7.84267 22.3897 8.16721 16.5018C8.328 13.5831 8.49469 10.6629 8.65695 7.74426C8.72629 6.50721 9.23226 6.00465 10.4625 6.00465C23.1458 6.00168 35.8277 6.00168 48.511 6.00465C49.7501 6.00465 50.2546 6.48342 50.3239 7.73237C50.7635 15.6245 51.1972 23.5167 51.6339 31.4074C51.687 32.3724 51.7357 33.3373 51.7976 34.3008C51.8596 35.2792 51.3551 35.9185 50.3711 35.9884C49.6395 36.0404 48.9004 36.0107 48.1658 36.0107C43.258 36.0107 38.3517 36.0107 33.4438 36.0092C32.0705 36.0092 30.6971 36.0092 29.3238 36.0092V36.0404V36.039ZM48.6747 32.9656C48.6747 32.5508 48.6924 32.1836 48.6718 31.8193C48.275 24.5218 47.859 17.2259 47.4931 9.92695C47.4548 9.16123 47.2217 9.00362 46.5077 9.00511C35.155 9.02741 23.8023 9.02146 12.4481 9.02146H11.5659C11.1249 17.0371 10.6882 24.9828 10.2486 32.9656H48.6747Z" fill="#C93131"/>
<path d="M38.1245 2.99825C37.2851 2.98487 36.6479 2.30835 36.6744 1.45936C36.6995 0.649031 37.3471 0.0111733 38.1466 0.00373911C38.9638 -0.00369512 39.6498 0.690662 39.6439 1.51586C39.638 2.35147 38.9609 3.01163 38.1245 2.99825Z" fill="#C93131"/>
<path d="M24.9839 21.0054C22.1088 21.0054 19.2323 21.0337 16.3587 20.9787C15.8763 20.9698 15.27 20.7334 14.9485 20.3884C14.1991 19.581 14.7375 18.2518 15.8262 18.0347C16.0165 17.9961 16.2171 18.0005 16.4133 18.0005C22.1634 17.999 27.9135 17.9976 33.6651 18.0005C34.6785 18.0005 35.2819 18.4392 35.4087 19.2376C35.5725 20.2605 34.9013 20.9965 33.7566 21.001C30.8328 21.0114 27.9076 21.004 24.9839 21.0054Z" fill="#C93131"/>
<path d="M25.009 15.0135C22.1088 15.0135 19.2102 15.0224 16.31 15.0105C15.0325 15.0045 14.264 13.9504 14.7508 12.8962C15.0724 12.1989 15.6609 12.0026 16.3882 12.0056C19.902 12.0189 23.4158 12.0115 26.9296 12.0115C29.2397 12.0115 31.5497 12.0145 33.8598 12.0115C34.5089 12.0115 35.1019 12.2435 35.2627 12.8694C35.3851 13.3408 35.3586 14.0188 35.0945 14.3756C34.8275 14.7354 34.1888 14.9763 33.7064 14.9852C30.8078 15.0402 27.9076 15.012 25.0075 15.012L25.009 15.0135Z" fill="#C93131"/>
<path d="M40.7016 27.0019C41.8802 27.0019 43.0588 26.987 44.236 27.0078C45.2332 27.0242 45.8734 27.6502 45.8557 28.5393C45.8395 29.3883 45.1919 30.0098 44.2449 30.0157C41.8389 30.0306 39.4329 30.0321 37.0284 30.0128C36.0917 30.0053 35.4412 29.3571 35.4382 28.511C35.4353 27.6635 36.0726 27.0287 37.0196 27.0078C38.2469 26.9811 39.4742 27.0019 40.7016 27.0019Z" fill="#C93131"/>
<path d="M17.673 24.0014C18.1628 24.0014 18.6555 23.9702 19.1438 24.0089C19.989 24.0743 20.5688 24.7092 20.5673 25.5136C20.5643 26.3165 19.9787 26.9647 19.129 26.9974C18.1008 27.0376 17.0697 27.0391 16.0415 26.9974C15.2022 26.9647 14.6121 26.3001 14.6136 25.5002C14.6151 24.7404 15.183 24.0907 15.9825 24.0178C16.5416 23.9672 17.1095 24.0074 17.673 24.0074V24.0014Z" fill="#C93131"/>
</svg>
