<svg width="74" height="74" viewBox="0 0 74 74" fill="none" xmlns="http://www.w3.org/2000/svg">
<path d="M56.1839 42.6004C60.8792 42.1417 65.0021 43.3009 68.5301 46.3312C71.1814 48.608 72.8711 51.4826 73.6298 54.8882C75.1444 61.6868 71.9095 68.7342 65.7747 72.0925C59.7217 75.4064 51.3802 74.5668 46.0291 68.2755C45.1717 68.844 44.306 69.4167 43.4431 69.9908C41.6325 71.1973 39.815 72.3942 38.0169 73.6188C37.3151 74.0969 36.6746 74.1025 35.9687 73.6257C33.5133 71.9674 31.0357 70.3411 28.5832 68.6814C28.2191 68.4354 27.9745 68.4326 27.6091 68.68C25.1746 70.3272 22.7137 71.9354 20.282 73.5882C19.5274 74.1011 18.8688 74.0969 18.1156 73.5854C15.7034 71.9466 13.2605 70.3536 10.8483 68.7134C10.4342 68.4326 10.1577 68.4507 9.75608 68.7231C7.34242 70.3592 4.90374 71.9605 2.48592 73.591C1.92592 73.9691 1.36871 74.1595 0.737854 73.8301C0.0917107 73.4923 0 72.9001 0 72.2343C0.00694778 48.7443 0.00694778 25.2542 0 1.76421C0 1.097 0.0917108 0.506237 0.739244 0.168461C1.3701 -0.159585 1.92592 0.0308484 2.48592 0.407545C4.90374 2.03804 7.34242 3.63935 9.75608 5.27541C10.1577 5.54786 10.4342 5.56732 10.8483 5.28514C13.2605 3.64491 15.7034 2.05194 18.1156 0.413105C18.8688 -0.0984239 19.5274 -0.102594 20.282 0.410325C22.7137 2.06167 25.1746 3.66993 27.6091 5.3185C27.9745 5.56593 28.2191 5.56315 28.5832 5.3185C31.0177 3.67132 33.4786 2.06307 35.9103 0.410325C36.6662 -0.102594 37.3249 -0.0942539 38.0766 0.415885C40.4889 2.05472 42.9331 3.64769 45.344 5.28792C45.7595 5.57149 46.036 5.54647 46.4362 5.27541C48.7929 3.67688 51.1718 2.1145 53.5327 0.521527C54.1357 0.11425 54.7277 -0.212406 55.4558 0.169851C56.2034 0.561838 56.1909 1.26102 56.1909 1.97688C56.1853 15.2044 56.1867 28.4318 56.1867 41.6593C56.1867 41.9331 56.1867 42.207 56.1867 42.6017L56.1839 42.6004ZM44.4297 65.9027C44.3394 65.7109 44.2907 65.6067 44.2407 65.5038C39.9497 56.8092 43.7933 46.9442 52.8587 43.4483C53.3673 43.2523 53.3687 42.9632 53.3687 42.5587C53.3659 30.0026 53.3659 17.4479 53.3645 4.89177C53.3645 4.67214 53.3451 4.45113 53.3284 4.11057C53.0282 4.30518 52.8212 4.43584 52.6183 4.57067C50.7299 5.82864 48.8318 7.06854 46.9614 8.35293C46.2069 8.87002 45.5497 8.86029 44.7965 8.34876C42.3856 6.70853 39.94 5.11695 37.5305 3.47533C37.1095 3.18899 36.8344 3.2154 36.4314 3.48923C34.0747 5.08637 31.6999 6.6571 29.3308 8.23617C28.233 8.96732 27.9648 8.9701 26.8921 8.25424C24.5229 6.67517 22.1467 5.10722 19.7914 3.5073C19.3676 3.21957 19.0717 3.19594 18.6326 3.49479C16.2217 5.13641 13.7788 6.72938 11.3652 8.36683C10.6357 8.86168 9.99091 8.87141 9.26139 8.371C7.37021 7.07827 5.45401 5.8203 3.54615 4.55121C3.34605 4.41777 3.13762 4.29961 2.8875 4.14671V69.8768C3.18486 69.6822 3.39469 69.546 3.60312 69.407C5.47207 68.1615 7.33825 66.9161 9.2072 65.6706C10.1285 65.0576 10.4911 65.0576 11.418 65.6748C13.8261 67.2789 16.2411 68.8732 18.6312 70.5023C19.0689 70.8012 19.3649 70.779 19.7901 70.4912C22.1454 68.8913 24.5215 67.3233 26.8907 65.7443C27.9648 65.0284 28.233 65.0298 29.3294 65.761C31.6986 67.34 34.0733 68.9094 36.43 70.5079C36.8316 70.7803 37.1137 70.822 37.5291 70.5232C38.5241 69.8073 39.5621 69.1512 40.5834 68.4701C41.8507 67.625 43.1193 66.7785 44.4297 65.9027ZM58.2641 45.3415C51.1774 45.3304 45.3551 51.0962 45.3287 58.1492C45.3023 65.3161 51.0731 71.1515 58.2016 71.1654C65.2994 71.1793 71.1314 65.3731 71.1439 58.2798C71.1564 51.174 65.3606 45.3512 58.2627 45.3401L58.2641 45.3415Z" fill="#C93131"/>
<path d="M28.0538 38.408C22.2204 38.408 16.387 38.408 10.5523 38.408C9.4601 38.408 8.85425 37.8493 8.90289 36.9068C8.93763 36.2215 9.4337 35.6836 10.1132 35.603C10.273 35.5835 10.437 35.5905 10.5981 35.5905C22.2649 35.5905 33.933 35.5905 45.5997 35.5905C46.5988 35.5905 47.174 36.0047 47.2755 36.7803C47.3964 37.7019 46.7989 38.3941 45.8317 38.4053C44.3963 38.4219 42.9609 38.4108 41.5255 38.4108C37.0345 38.4108 32.5434 38.4108 28.0524 38.4108L28.0538 38.408Z" fill="#C93131"/>
<path d="M28.0593 29.5119C22.226 29.5119 16.3912 29.5119 10.5578 29.5119C9.48789 29.5119 8.89177 28.9906 8.90011 28.0857C8.90706 27.3323 9.42536 26.768 10.1757 26.7013C10.3133 26.6887 10.4536 26.6943 10.5926 26.6943C22.2607 26.6943 33.9274 26.6943 45.5955 26.6943C46.596 26.6943 47.1727 27.1058 47.2755 27.8786C47.395 28.7738 46.8197 29.4869 45.9068 29.5049C44.6339 29.53 43.3611 29.5133 42.0869 29.5133C37.411 29.5133 32.7338 29.5133 28.0579 29.5133L28.0593 29.5119Z" fill="#C93131"/>
<path d="M28.1288 17.7968C33.9621 17.7968 39.7955 17.7968 45.6303 17.7968C46.703 17.7968 47.2977 18.3152 47.2894 19.2215C47.2824 19.9749 46.7641 20.5407 46.0152 20.6074C45.8776 20.6199 45.7372 20.6143 45.5983 20.6143C33.9316 20.6143 22.2635 20.6143 10.5968 20.6143C9.59489 20.6143 9.01961 20.2057 8.91539 19.4314C8.7945 18.5363 9.36978 17.8218 10.2813 17.8023C11.5083 17.7773 12.7353 17.794 13.9623 17.794C18.6854 17.794 23.4071 17.794 28.1302 17.794L28.1288 17.7968Z" fill="#C93131"/>
<path d="M24.4506 44.4852C29.1015 44.4852 33.7509 44.4825 38.4018 44.488C39.5218 44.488 40.2082 45.2928 39.9331 46.2645C39.7566 46.8844 39.3411 47.2389 38.6922 47.2986C38.5546 47.3112 38.4143 47.3056 38.2753 47.3056C29.0445 47.3056 19.8137 47.3056 10.5815 47.3056C9.58794 47.3056 9.01127 46.8872 8.91261 46.1102C8.79311 45.1636 9.40591 44.4922 10.43 44.4894C13.2063 44.4811 15.9827 44.4866 18.759 44.4866C20.6558 44.4866 22.5539 44.4866 24.4506 44.4866V44.4852Z" fill="#C93131"/>
<path d="M22.811 56.2004C18.7159 56.2004 14.6209 56.1934 10.5259 56.2073C9.80054 56.2101 9.24611 55.9807 8.97792 55.2871C8.61108 54.3405 9.28502 53.3967 10.3466 53.387C12.3365 53.3689 14.3263 53.3814 16.3162 53.3814C22.5622 53.3814 28.8097 53.4078 35.0557 53.3578C36.2049 53.348 37.0748 54.4156 36.5356 55.4372C36.2174 56.0419 35.6838 56.2087 35.0265 56.2073C30.9551 56.1934 26.8824 56.2004 22.811 56.2004Z" fill="#C93131"/>
<path d="M60.1011 62.0162V59.6671C58.8963 59.6671 57.743 59.6699 56.5897 59.6671C54.686 59.6601 53.5076 58.4967 53.4924 56.609C53.4868 55.9835 53.4882 55.358 53.4924 54.7325C53.5049 52.9171 54.5429 51.7898 56.3521 51.6244C56.4869 51.6119 56.6216 51.591 56.8287 51.566C56.8287 51.0698 56.8148 50.5874 56.8315 50.1065C56.8606 49.26 57.4234 48.6859 58.2141 48.6748C59.027 48.6623 59.6203 49.2558 59.6481 50.1315C59.6634 50.5916 59.6509 51.0517 59.6509 51.623C60.2442 51.623 60.7889 51.6161 61.3336 51.6244C62.3688 51.6397 62.9983 52.204 62.9816 53.0909C62.9664 53.9444 62.3411 54.4879 61.3447 54.4934C59.7468 54.5031 58.1502 54.5004 56.5522 54.5059C56.5077 54.5059 56.4646 54.5296 56.3687 54.5574V56.8356C57.4721 56.8356 58.5754 56.8203 59.6773 56.8426C60.1344 56.8523 60.6124 56.8745 61.0432 57.0107C62.1924 57.3735 62.94 58.4147 62.9761 59.6268C62.9969 60.344 62.9858 61.0627 62.9816 61.7799C62.9705 63.5619 61.9339 64.6948 60.1733 64.8574C60.0163 64.8713 59.8607 64.9005 59.6467 64.9297C59.6467 65.4343 59.6606 65.9166 59.6439 66.399C59.6134 67.2205 59.0172 67.8251 58.2502 67.8363C57.4776 67.8474 56.8662 67.258 56.8259 66.4365C56.8023 65.9528 56.8217 65.4677 56.8217 64.8602C56.227 64.8602 55.6823 64.8658 55.1362 64.8602C54.0788 64.8449 53.4729 64.3098 53.4868 63.4118C53.5007 62.5431 54.1038 62.0232 55.1209 62.019C56.762 62.0134 58.4044 62.0176 60.0983 62.0176L60.1011 62.0162Z" fill="#C93131"/>
</svg>
