<svg width="74" height="74" viewBox="0 0 74 74" fill="none" xmlns="http://www.w3.org/2000/svg">
<path d="M0 34.5477C0.438268 33.424 1.25881 32.8641 2.46164 32.7579C3.29763 32.6845 4.12203 32.476 4.95416 32.3582C5.40788 32.2945 5.61639 32.1188 5.73416 31.6264C6.1956 29.713 6.71303 27.8111 7.26134 25.9209C7.38105 25.5115 7.29803 25.3185 6.99491 25.079C6.21877 24.4689 5.4658 23.8298 4.70703 23.1965C3.60268 22.2736 3.39802 21.2329 4.09114 19.9991C4.65684 18.9931 5.23411 17.991 5.82298 16.9986C6.52961 15.8073 7.53357 15.4482 8.83872 15.9174C9.78862 16.2572 10.7405 16.6028 11.673 16.987C12.0784 17.1531 12.3429 17.1029 12.5804 16.7341C12.7078 16.5352 12.8797 16.3537 13.0612 16.1993C13.5091 15.8208 13.9937 15.8247 14.4455 16.1838C14.905 16.5487 14.9803 17.0256 14.7138 17.5392C13.8663 19.1727 12.5843 19.6593 10.866 19.0105C9.87937 18.6398 8.89085 18.2749 7.84055 17.8829C7.17639 19.0356 6.53154 20.1516 5.86159 21.312C6.75164 22.0457 7.60501 22.7466 8.45645 23.4514C9.61872 24.4129 9.76546 25.1891 9.32526 26.6391C8.75956 28.4985 8.26917 30.3849 7.8309 32.2771C7.5413 33.5263 6.97753 34.1963 5.72837 34.4222C4.57189 34.6308 3.41154 34.8219 2.21837 35.0266V38.977C3.41154 39.1817 4.59312 39.3767 5.77085 39.5891C6.93892 39.7995 7.54516 40.4888 7.81739 41.6261C8.28848 43.5858 8.79625 45.5398 9.36773 47.4726C9.75387 48.7797 9.58976 49.6061 8.53367 50.4885C7.77684 51.1218 7.02001 51.757 6.24194 52.3652C5.9311 52.6085 5.90214 52.8132 6.10486 53.1453C6.61842 53.9871 7.11461 54.8405 7.5857 55.7075C7.77877 56.0627 7.97956 56.0955 8.33674 55.9507C9.29437 55.5626 10.2674 55.2093 11.2405 54.8598C12.3873 54.4486 13.1905 54.7131 14.0284 55.5877C15.4436 57.0629 16.8839 58.5129 18.359 59.9263C19.3108 60.8376 19.5637 61.5926 19.1197 62.8264C18.7355 63.8883 18.3397 64.9464 17.9497 66.0064C17.9419 66.0276 17.9497 66.0547 17.9497 66.1917C19.0116 66.8057 20.1256 67.4506 21.3033 68.1322C22.0254 67.2537 22.7243 66.4022 23.4271 65.5526C24.4098 64.3633 25.1879 64.2204 26.6764 64.678C28.5106 65.2418 30.3737 65.7264 32.2426 66.1589C33.5478 66.4601 34.1945 67.0104 34.4224 68.304C34.6212 69.4413 34.8143 70.5785 35.019 71.7641H38.9614C39.1622 70.5978 39.3611 69.4201 39.5677 68.2442C39.7781 67.0471 40.4635 66.4524 41.6567 66.1705C43.5951 65.711 45.5239 65.207 47.4314 64.6374C48.7867 64.232 49.586 64.3922 50.4993 65.4909C51.2213 66.3578 51.9376 67.2286 52.6829 68.1284C53.8297 67.4661 54.9302 66.8328 56.0963 66.1589C55.7006 65.1008 55.3144 64.0736 54.9302 63.0465C54.3684 61.5385 54.6155 60.8569 55.8222 59.7448C57.1833 58.4917 58.4923 57.1749 59.7473 55.8156C60.8265 54.6436 61.5177 54.3926 62.9909 54.9371C64.0238 55.3174 65.0548 55.7055 66.1398 56.111C66.7963 54.9776 67.4315 53.8809 68.113 52.7031C67.2712 52.0061 66.4449 51.3207 65.6166 50.6372C64.3308 49.5752 64.1956 48.8666 64.6802 47.2853C65.2421 45.451 65.717 43.5858 66.1475 41.7149C66.441 40.4425 67.0164 39.7957 68.3292 39.5717C69.4626 39.3786 70.5978 39.1797 71.7601 38.9789V35.0401C70.6055 34.8412 69.4297 34.6365 68.2559 34.4338C67.0569 34.2291 66.4333 33.5418 66.1553 32.3698C65.6938 30.4332 65.1957 28.5024 64.6242 26.5947C64.2072 25.2045 64.3694 24.411 65.5066 23.4707C66.358 22.7659 67.2094 22.0631 68.1111 21.3159C67.4488 20.169 66.8059 19.0549 66.1418 17.9042C65.0528 18.3116 64.0219 18.7016 62.9889 19.0781C61.537 19.6071 60.8246 19.3503 59.7917 18.2382C58.5001 16.8461 57.1466 15.508 55.7604 14.2125C54.6329 13.1582 54.3935 12.4516 54.9263 11.017C55.3106 9.98398 55.6986 8.95293 56.1099 7.85623C54.9592 7.19203 53.8432 6.54714 52.6809 5.87522C51.9338 6.78077 51.2175 7.6535 50.4954 8.52043C49.5841 9.61713 48.7867 9.77352 47.4256 9.36806C45.5181 8.79847 43.5874 8.29646 41.649 7.83885C40.4674 7.55889 39.7839 6.95648 39.5735 5.74972C39.3707 4.59123 39.1757 3.43082 38.9711 2.23565H35.0132C34.8124 3.398 34.6154 4.55262 34.4146 5.70724C34.1926 6.97192 33.5304 7.55309 32.3044 7.84272C30.3891 8.2926 28.4816 8.79267 26.5992 9.36226C25.2091 9.78318 24.4001 9.62292 23.4676 8.49919C22.8536 7.75776 22.2571 6.99895 21.618 6.27876C21.4906 6.13395 21.1392 6.00845 21.0002 6.08182C19.9634 6.6321 18.9517 7.23644 17.8763 7.85623C18.2895 8.97031 18.6949 10.0419 19.0869 11.1193C19.585 12.4824 19.2548 13.5019 18.0655 14.309C17.5056 14.6894 16.8781 14.6276 16.5171 14.1584C16.1541 13.6873 16.1927 13.0115 16.714 12.6176C17.1465 12.2913 17.0963 11.9978 16.9283 11.575C16.5519 10.6385 16.2043 9.68857 15.8742 8.73475C15.4668 7.56082 15.8027 6.57224 16.853 5.93122C17.9419 5.26702 19.0482 4.63178 20.1661 4.01972C21.199 3.45592 22.2648 3.65479 23.0351 4.54103C23.7282 5.34039 24.404 6.15905 25.0566 6.99509C25.3172 7.32912 25.5334 7.38705 25.9621 7.26154C27.829 6.71706 29.7076 6.21118 31.5978 5.75165C32.0727 5.6358 32.2832 5.46396 32.3469 4.98705C32.4762 4.01006 32.6481 3.03693 32.8141 2.06574C33.0381 0.752788 33.8837 0.0229422 35.2024 0.00942657C36.4071 -0.00215828 37.6119 -0.00408908 38.8147 0.00942657C40.0928 0.024873 40.95 0.750857 41.1721 2.00781C41.3439 2.97901 41.5022 3.95214 41.6393 4.92913C41.7069 5.40797 41.8961 5.62808 42.4154 5.75165C44.3075 6.1996 46.1861 6.70933 48.0511 7.25768C48.4913 7.38705 48.696 7.2905 48.9489 6.96999C49.5745 6.1745 50.2193 5.39638 50.8738 4.62406C51.7137 3.63162 52.7736 3.4231 53.9089 4.04868C55.0036 4.65302 56.0886 5.2786 57.1563 5.92929C58.1641 6.54328 58.5155 7.5473 58.1313 8.67682C57.7896 9.67698 57.4208 10.6694 57.0269 11.6522C56.8706 12.0403 56.915 12.2662 57.2374 12.5732C58.6603 13.9383 60.0543 15.3343 61.4193 16.7573C61.7263 17.0778 61.9483 17.1318 62.3383 16.9754C63.2978 16.5893 64.269 16.2321 65.244 15.8923C66.4507 15.4694 67.4469 15.815 68.0995 16.8982C68.7463 17.9679 69.3738 19.053 69.9723 20.1497C70.5553 21.2174 70.3545 22.2794 69.4317 23.0749C68.6111 23.7815 67.7481 24.4399 66.9391 25.1621C66.7827 25.3011 66.6939 25.6544 66.748 25.8649C67.2442 27.8208 67.7964 29.7613 68.2829 31.7172C68.3833 32.1188 68.5416 32.2732 68.922 32.3292C69.9221 32.476 70.9183 32.644 71.9145 32.8158C73.2699 33.0494 73.9804 33.8816 73.992 35.2505C74.0016 36.4303 74.0035 37.6119 73.992 38.7916C73.9784 40.1143 73.2583 40.9542 71.9493 41.1839C70.9299 41.3635 69.9085 41.5295 68.8872 41.684C68.5358 41.7381 68.3891 41.8867 68.2964 42.2555C67.7983 44.2346 67.2384 46.1982 66.7383 48.1773C66.6862 48.38 66.8117 48.7237 66.9739 48.8685C67.7269 49.5424 68.5262 50.1641 69.3023 50.8148C70.397 51.7319 70.5939 52.7842 69.897 54.0199C69.3293 55.0259 68.754 56.028 68.1613 57.0185C67.4566 58.2001 66.4449 58.5535 65.1378 58.0824C64.1879 57.7406 63.2419 57.3853 62.3055 57.0088C61.9406 56.8621 61.7282 56.9258 61.4424 57.2212C60.0562 58.6558 58.6429 60.0672 57.2084 61.4535C56.9072 61.7432 56.8744 61.9613 57.0173 62.3205C57.3976 63.282 57.7606 64.2513 58.1023 65.2263C58.5368 66.4601 58.1815 67.4603 57.0617 68.1341C56.0307 68.7539 54.9901 69.3583 53.9378 69.9414C52.7736 70.5863 51.7117 70.3758 50.8468 69.3467C50.1961 68.5724 49.5455 67.7982 48.9238 67.0008C48.6825 66.6918 48.4836 66.6242 48.082 66.7401C46.19 67.2865 44.2901 67.804 42.3768 68.2635C41.8845 68.3813 41.7107 68.5917 41.647 69.0455C41.5312 69.8796 41.3304 70.704 41.2532 71.5401C41.1412 72.7391 40.5774 73.5616 39.4576 73.9999H34.544C33.4223 73.5616 32.8585 72.741 32.7484 71.542C32.6712 70.706 32.4724 69.8835 32.3546 69.0493C32.2909 68.5995 32.1248 68.3832 31.6287 68.2654C29.7173 67.8059 27.8175 67.2865 25.9273 66.7401C25.5238 66.6242 25.3249 66.6899 25.0836 66.9969C24.4445 67.8098 23.7842 68.6072 23.1124 69.395C22.2764 70.3758 21.2048 70.5747 20.0734 69.9452C19.0231 69.3621 17.9825 68.7597 16.9515 68.1419C15.8047 67.4545 15.4571 66.4505 15.9109 65.1761C16.2507 64.2262 16.5963 63.2782 16.9747 62.3417C17.1311 61.9536 17.0828 61.7335 16.7584 61.4226C15.3355 60.0614 13.9416 58.6655 12.5785 57.2444C12.2715 56.9239 12.0533 56.8698 11.6614 57.0301C10.7501 57.4027 9.82145 57.7348 8.89471 58.0688C7.54709 58.5554 6.53927 58.204 5.81912 56.9876C5.23218 55.9951 4.65491 54.995 4.08921 53.989C3.41154 52.7823 3.6104 51.73 4.66649 50.8457C5.46001 50.1815 6.27669 49.5424 7.04511 48.8531C7.20342 48.7121 7.30382 48.3607 7.25169 48.1541C6.75743 46.2002 6.19753 44.2636 5.72065 42.3057C5.61253 41.8597 5.40981 41.7265 5.02367 41.6666C4.16837 41.5334 3.3208 41.3287 2.46164 41.2496C1.26074 41.1395 0.440199 40.5815 0.0019307 39.4597V34.5458L0 34.5477Z" fill="#C93131"/>
<path d="M38.1293 64.0967C24.0738 64.0368 13.0515 55.018 10.4373 42.3886C7.42738 27.8438 17.0731 13.3183 31.6557 10.4356C46.3193 7.5375 60.6702 17.0139 63.543 31.6379C65.1822 39.977 63.2361 47.5323 57.9247 54.1955C57.8494 54.2901 57.7761 54.3847 57.695 54.4735C57.2181 54.989 56.6196 55.0894 56.1562 54.7303C55.6407 54.3306 55.5944 53.6606 56.0133 53.0602C56.9208 51.7607 57.9305 50.5154 58.7009 49.1368C67.0666 34.1556 58.1699 15.4557 41.2821 12.4669C27.4506 10.0186 14.1848 19.7248 12.314 33.6594C10.4856 47.2697 20.0812 59.9049 33.6675 61.6754C40.4152 62.5559 46.5626 60.9417 52.0264 56.8426C52.0844 56.8001 52.1404 56.7538 52.1983 56.7113C52.9686 56.1321 53.5787 56.1263 54.0382 56.6959C54.4649 57.2249 54.2776 57.8872 53.5266 58.4626C48.64 62.2006 43.1202 64.087 38.1293 64.0967Z" fill="#C93131"/>
<path d="M16.9264 36.963C16.9573 25.9033 26.0354 16.8787 37.0751 16.9347C48.1149 16.9907 57.1003 26.0308 57.0675 37.048C57.0347 48.1076 47.9507 57.138 36.9188 57.0782C25.879 57.0183 16.8974 47.9802 16.9264 36.963ZM36.9902 19.1474C27.1803 19.161 19.1718 27.1622 19.139 36.9843C19.1081 46.7908 27.2228 54.8848 37.0307 54.8326C46.8947 54.7805 54.8607 46.787 54.8221 36.9804C54.7835 27.1294 46.7885 19.1339 36.9902 19.1474Z" fill="#C93131"/>
<path d="M33.8991 37.9883C34.8008 37.0673 35.548 36.2834 36.3183 35.5207C36.8686 34.9743 37.5501 34.9202 37.9787 35.3508C38.4614 35.8354 38.4382 36.5112 37.8841 37.075C36.8724 38.1061 35.8511 39.1294 34.8201 40.1411C34.1907 40.7571 33.654 40.7455 33.0052 40.1102C32.0592 39.1835 31.1344 38.2354 30.1922 37.3048C29.0705 36.1946 27.6031 36.1328 26.603 37.1426C25.5914 38.164 25.6628 39.5909 26.7981 40.732C28.5473 42.4909 30.3003 44.246 32.0611 45.9934C33.2543 47.1789 34.6058 47.1828 35.8086 45.9838C39.6468 42.1588 43.4754 38.3262 47.302 34.4877C48.3794 33.4065 48.4431 31.9294 47.4835 30.9466C46.4873 29.9252 45.0122 29.9774 43.8944 31.0798C43.1742 31.7904 42.4695 32.5144 41.7455 33.2211C41.1393 33.8139 40.4732 33.837 39.9712 33.3099C39.5542 32.8716 39.6275 32.219 40.1855 31.6514C40.9616 30.8617 41.7358 30.0681 42.5409 29.3074C44.4214 27.5291 47.2538 27.5619 49.0397 29.3614C50.8468 31.1822 50.897 34.007 49.0725 35.8528C45.1261 39.8419 41.1605 43.8116 37.1697 47.7562C35.3452 49.5596 32.5631 49.5615 30.7251 47.7813C28.7886 45.9046 26.8811 43.997 25.0044 42.0584C23.1934 40.1894 23.2378 37.3646 25.0411 35.5632C26.8367 33.7695 29.6613 33.7347 31.5418 35.5246C32.3411 36.2834 33.0689 37.1175 33.9011 37.9921L33.8991 37.9883Z" fill="#C93131"/>
</svg>
