<svg width="71" height="72" viewBox="0 0 71 72" fill="none" xmlns="http://www.w3.org/2000/svg">
<ellipse cx="35.5" cy="36" rx="35.5" ry="36" fill="#C93131"/>
<path d="M24.7144 50.7815C24.3402 50.7815 23.9813 50.64 23.7167 50.388C23.4521 50.136 23.3034 49.7942 23.3034 49.4378V42.2655C22.5294 42.6172 21.6715 42.7678 20.8167 42.7022C20.0928 42.6516 19.3896 42.4496 18.7571 42.1107C18.1246 41.7718 17.5782 41.3042 17.157 40.7413C16.7358 40.1784 16.45 39.534 16.3201 38.854C16.1901 38.174 16.2191 37.475 16.405 36.8069C16.591 36.1387 16.9293 35.5178 17.3958 34.9884C17.8624 34.4589 18.4458 34.0339 19.1044 33.7436C19.7631 33.4533 20.4808 33.3048 21.2066 33.3087C21.9324 33.3126 22.6483 33.4689 23.3034 33.7663V26.594C23.3034 26.2377 23.4521 25.8959 23.7167 25.6439C23.9813 25.3919 24.3402 25.2503 24.7144 25.2503H32.9507C32.5815 24.5131 32.4233 23.6961 32.4922 22.8819C32.5453 22.1926 32.7574 21.5229 33.1133 20.9204C33.4692 20.318 33.9601 19.7977 34.5511 19.3966C35.1422 18.9954 35.8188 18.7233 36.5328 18.5995C37.2469 18.4757 37.9808 18.5033 38.6823 18.6804C39.3839 18.8575 40.0358 19.1797 40.5917 19.624C41.1477 20.0684 41.5939 20.6239 41.8988 21.2512C42.2036 21.8785 42.3595 22.5621 42.3554 23.2533C42.3512 23.9445 42.1872 24.6263 41.8749 25.2503H50.1112C50.4854 25.2503 50.8443 25.3919 51.1089 25.6439C51.3735 25.8959 51.5222 26.2377 51.5222 26.594V33.7663C50.7481 33.4146 49.8903 33.264 49.0354 33.3296C48.3116 33.3802 47.6084 33.5822 46.9758 33.9211C46.3433 34.2601 45.797 34.7276 45.3758 35.2905C44.9546 35.8534 44.6688 36.4978 44.5388 37.1778C44.4088 37.8579 44.4379 38.5568 44.6238 39.225C44.8097 39.8931 45.148 40.514 45.6146 41.0435C46.0811 41.5729 46.6645 41.998 47.3232 42.2883C47.9818 42.5786 48.6996 42.7271 49.4253 42.7231C50.1511 42.7192 50.867 42.563 51.5222 42.2655V49.4378C51.5222 49.7942 51.3735 50.136 51.1089 50.388C50.8443 50.64 50.4854 50.7815 50.1112 50.7815H24.7144Z" stroke="white" stroke-width="2" stroke-linecap="round" stroke-linejoin="round"/>
</svg>
