<svg width="70" height="72" viewBox="0 0 70 72" fill="none" xmlns="http://www.w3.org/2000/svg">
<ellipse cx="35" cy="36" rx="35" ry="36" fill="#C93131"/>
<path d="M55.2798 36.4412L51.0586 38.5433L45.5898 28.0843L49.8623 25.948C50.1798 25.7862 50.5484 25.7564 50.8878 25.8653C51.2271 25.9741 51.5097 26.2128 51.6738 26.5291L55.8779 34.5784C55.9632 34.7395 56.0153 34.9161 56.0314 35.0977C56.0474 35.2793 56.0269 35.4622 55.9712 35.6358C55.9155 35.8093 55.8256 35.97 55.7068 36.1083C55.5881 36.2466 55.4429 36.3598 55.2798 36.4412V36.4412Z" stroke="white" stroke-width="2" stroke-linecap="round" stroke-linejoin="round"/>
<path d="M20.981 38.3714L16.7598 36.2523C16.5973 36.1726 16.4525 36.0611 16.3339 35.9244C16.2153 35.7876 16.1255 35.6284 16.0697 35.4562C16.0139 35.284 15.9933 35.1024 16.0091 34.922C16.0249 34.7417 16.0768 34.5664 16.1617 34.4066L20.3658 26.3573C20.5303 26.0412 20.8116 25.8018 21.15 25.69C21.4884 25.5783 21.857 25.6031 22.1773 25.7591L26.4498 27.8954L20.981 38.3714Z" stroke="white" stroke-width="2" stroke-linecap="round" stroke-linejoin="round"/>
<path d="M51.0586 38.542L48.3242 41.7549L42.0352 48.0439C41.8638 48.2042 41.6561 48.3206 41.4299 48.3831C41.2037 48.4456 40.9657 48.4524 40.7363 48.4028L30.8242 45.9248C30.6432 45.8743 30.4744 45.7871 30.3286 45.6685L20.9805 38.3711" stroke="white" stroke-width="2" stroke-linecap="round" stroke-linejoin="round"/>
<path d="M48.3248 41.7559L40.8053 36.2871L38.6178 37.9277C37.6701 38.6351 36.5191 39.0172 35.3365 39.0172C34.1539 39.0172 33.003 38.6351 32.0553 37.9277L31.1324 37.2271C30.9764 37.1084 30.8473 36.958 30.7537 36.7857C30.6602 36.6134 30.6043 36.4233 30.5898 36.2278C30.5752 36.0323 30.6024 35.8359 30.6694 35.6517C30.7364 35.4675 30.8418 35.2996 30.9786 35.1592L37.6778 28.4771C37.8037 28.3518 37.953 28.2527 38.1172 28.1852C38.2814 28.1178 38.4573 28.0834 38.6349 28.084H45.5904" stroke="white" stroke-width="2" stroke-linecap="round" stroke-linejoin="round"/>
<path d="M26.5508 27.8957L35.3179 25.3323C35.6294 25.2429 35.9625 25.2672 36.2578 25.4006L42.1709 28.0837" stroke="white" stroke-width="2" stroke-linecap="round" stroke-linejoin="round"/>
<path d="M33.2852 52.0093L28.1411 50.7104C27.9315 50.6631 27.7374 50.5631 27.5771 50.4199L23.7148 47.0703" stroke="white" stroke-width="2" stroke-linecap="round" stroke-linejoin="round"/>
</svg>
