<svg width="190" height="52" viewBox="0 0 190 52" fill="none" xmlns="http://www.w3.org/2000/svg">
<path d="M78.6539 26.0225H77.9293V22.3319C76.9503 24.753 74.8155 26.2562 72.0734 26.2562C68.3717 26.2562 65.3555 23.0923 65.3555 19.1893C65.3555 15.303 68.3717 12.1406 72.0734 12.1406C75.0896 12.1406 77.42 13.8403 78.3806 16.6502H77.5964C76.6954 14.2876 74.6788 12.8629 72.0734 12.8629C68.7634 12.8629 66.0801 15.7132 66.0801 19.1892C66.0801 22.7026 68.7633 25.5331 72.0734 25.5331C75.2858 25.5331 77.6162 23.1911 77.9095 19.7935H72.2094V19.0713H78.6539V26.0225Z" fill="#0F0F0F"/>
<path d="M90.9121 26.0228H90.1676C89.9912 25.6506 89.8927 25.1834 89.8927 24.5576V22.5863C89.8927 20.4393 88.3266 19.9695 87.0141 19.9695H81.9805V26.0227H81.2559V12.4727H86.975C89.4819 12.4727 91.0289 13.918 91.0289 16.2212C91.0289 17.8423 90.1476 19.0716 88.7579 19.6174C89.9514 20.068 90.618 21.0826 90.618 22.5864V24.3819C90.6181 24.8903 90.7556 25.6317 90.9121 26.0228ZM90.2852 16.2212C90.2852 14.3077 89.091 13.195 86.9751 13.195H81.9805V19.2673H87.0529C88.6596 19.2672 90.2852 18.3104 90.2852 16.2212Z" fill="#0F0F0F"/>
<path d="M103.679 21.1805C103.679 24.168 101.545 26.2748 98.4703 26.2748C95.4137 26.2748 93.2598 24.168 93.2598 21.1805V12.4727H93.9843V21.1805C93.9843 23.7768 95.8062 25.5334 98.4703 25.5334C101.154 25.5334 102.956 23.7768 102.956 21.1805V12.4727H103.679V21.1805Z" fill="#0F0F0F"/>
<path d="M112.198 19.9894H107.44V26.0228H106.715V12.4727H112.139C114.629 12.4727 116.175 13.918 116.175 16.2212C116.175 18.4467 114.549 19.9894 112.198 19.9894ZM112.139 13.195H107.44V19.2673H112.198C113.825 19.2673 115.45 18.3105 115.45 16.2213C115.45 14.3077 114.236 13.195 112.139 13.195Z" fill="#0F0F0F"/>
<path d="M130.706 19.1893C130.706 23.0923 127.69 26.2562 123.988 26.2562C120.286 26.2562 117.27 23.0923 117.27 19.1893C117.27 15.303 120.286 12.1406 123.988 12.1406C127.769 12.1405 130.706 15.2254 130.706 19.1893ZM129.962 19.1893C129.962 15.6349 127.338 12.863 123.988 12.863C120.678 12.863 117.995 15.7133 117.995 19.1893C117.995 22.7027 120.678 25.5333 123.988 25.5333C127.298 25.5333 129.962 22.6843 129.962 19.1893Z" fill="#0F0F0F"/>
<path d="M138.322 21.1807H135.13V26.0229H132.545V12.4727H138.264C141.104 12.4727 142.75 14.1905 142.75 16.8468C142.75 19.3639 141.006 21.1807 138.322 21.1807ZM135.13 14.874V18.8181H138.245C139.439 18.8181 140.164 18.2122 140.164 16.8468C140.164 15.4799 139.439 14.8739 138.245 14.8739H135.13V14.874Z" fill="#0F0F0F"/>
<path d="M147.134 26.0228H144.549V12.4727H147.134V26.0228Z" fill="#0F0F0F"/>
<path d="M159.747 26.0228H149.68V12.4727H159.61V14.8739H152.264V17.7646H158.533V20.1653H152.264V23.62H159.747V26.0228Z" fill="#0F0F0F"/>
<path d="M71.5075 38.0872H68.4279V42.756H65.9355V29.6914H71.45C74.1882 29.6914 75.7742 31.3477 75.7742 33.9088C75.7743 36.3359 74.0936 38.0872 71.5075 38.0872ZM68.4279 32.0074V35.8092H71.4311C72.5826 35.8092 73.2819 35.2255 73.2819 33.9087C73.2819 32.5904 72.5826 32.0074 71.4311 32.0074H68.4279Z" fill="#0F0F0F"/>
<path d="M89.6918 36.1664C89.6918 39.9697 86.9926 42.9807 83.29 42.9807C79.5699 42.9807 76.8691 39.9697 76.8691 36.1664C76.8691 32.3836 79.5699 29.3711 83.29 29.3711C86.9926 29.371 89.6918 32.3835 89.6918 36.1664ZM87.1804 36.1664C87.1804 33.7384 85.4432 31.7245 83.2899 31.7245C81.1176 31.7245 79.3812 33.7384 79.3812 36.1664C79.3812 38.6149 81.1176 40.6272 83.2899 40.6272C85.4432 40.6272 87.1804 38.6149 87.1804 36.1664Z" fill="#0F0F0F"/>
<path d="M101.91 42.7561H99.3799C99.2287 42.3976 99.115 41.9272 99.115 41.3244V39.3287C99.115 38.2199 98.5865 37.7098 97.4153 37.7098H94.0174V42.756H91.5234V29.6914H97.5099C100.249 29.6914 102.004 31.1406 102.004 33.5875C102.004 35.0748 101.306 36.0353 100.173 36.5627C101.098 37.0703 101.608 37.9746 101.608 39.3484V41.1743C101.608 41.6434 101.76 42.3786 101.91 42.7561ZM97.5664 35.4707C97.8879 35.4707 99.5128 35.3383 99.5128 33.7194C99.5128 33.2878 99.5128 32.0077 97.5099 32.0077H94.0173V35.4707H97.5664Z" fill="#0F0F0F"/>
<path d="M109.03 32.0076V42.7561H106.536V32.0076H103.025V29.6914H112.542V32.0076H109.03Z" fill="#0F0F0F"/>
<path d="M124.042 37.5796C124.042 40.9102 122.285 42.9805 118.981 42.9805C115.677 42.9805 113.939 40.9103 113.939 37.5796V29.6914H116.432V37.6549C116.432 39.5936 117.281 40.5715 118.981 40.5715C120.681 40.5715 121.531 39.5936 121.531 37.6549V29.6914H124.042V37.5796H124.042Z" fill="#0F0F0F"/>
<path d="M138.296 42.7562H135.992V41.3435C135.123 42.3786 133.727 42.9807 132.103 42.9807C128.533 42.9807 125.738 40.007 125.738 36.1854C125.738 32.3646 128.533 29.3711 132.103 29.3711C135.01 29.3711 137.239 31.0098 138.05 33.7194H135.371C134.859 32.5725 133.613 31.631 132.103 31.631C129.931 31.631 128.231 33.7012 128.231 36.1856C128.231 38.6516 129.987 40.7211 132.215 40.7211C134.085 40.7211 135.54 39.4424 136.011 37.8045H132.461V35.4892H138.296V42.7562H138.296Z" fill="#0F0F0F"/>
<path d="M142.886 40.1393L141.999 42.756H139.355L143.925 29.6914H147.08L151.649 42.756H149.006L148.118 40.1393H142.886ZM145.493 32.4581L143.661 37.824H147.325L145.493 32.4581Z" fill="#0F0F0F"/>
<path d="M155.559 40.4391H162.074V42.756H153.047V29.6914H155.559V40.4391Z" fill="#0F0F0F"/>
<path d="M172.402 33.2113H171.704C171.704 31.2902 170.249 30.0298 168.002 30.0298C165.756 30.0298 164.264 31.1585 164.264 32.8346C164.264 34.2647 165.359 35.0358 168.153 35.6019C171.1 36.2032 172.799 36.9941 172.799 39.2523C172.799 41.5303 170.891 42.9993 167.945 42.9993C165.661 42.9993 163.205 41.6613 163.205 38.7828H163.904C163.904 41.1917 165.943 42.2831 167.945 42.2831C170.514 42.2831 172.1 41.1353 172.1 39.2523C172.1 37.6333 171.081 36.9005 168.021 36.2785C165.698 35.828 163.565 35.0737 163.565 32.8345C163.565 30.7436 165.34 29.3516 168.002 29.3516C171.043 29.3517 172.402 31.2902 172.402 33.2113Z" fill="#0F0F0F"/>
<path d="M175.288 42.756H174.59V41.0039H175.288V42.756Z" fill="#0F0F0F"/>
<path d="M179.369 38.2562L177.631 42.756H176.877L181.9 29.6914H182.674L187.697 42.756H186.942L185.205 38.2562H179.369ZM182.277 30.6512L179.634 37.5591H184.939L182.277 30.6512Z" fill="#0F0F0F"/>
<path d="M189.999 42.756H189.301V41.0039H189.999V42.756Z" fill="#0F0F0F"/>
<path d="M28.015 50.6778C26.8323 51.8575 24.8958 51.8575 23.7122 50.6778L0.888203 27.9264C-0.296068 26.7467 -0.296068 24.8157 0.888203 23.6367L23.7122 0.88544C24.8958 -0.295147 26.8323 -0.295147 28.015 0.88544L50.8398 23.6368C52.0234 24.8158 52.0234 26.7467 50.8398 27.9265L28.015 50.6778Z" fill="#C3161C"/>
<path d="M11.7832 28.5179C11.7832 25.9347 13.441 24.544 16.0776 24.544H18.9532C19.8466 24.544 20.5239 23.8256 20.5239 22.935C20.5239 22.0886 19.8282 21.3488 18.9776 21.3488H11.7832V18.959H18.605C21.6363 18.959 22.9207 20.7834 22.9207 22.9807C22.9207 24.8904 21.7447 26.9317 18.605 26.9317H15.6637C14.8132 26.9317 14.1816 27.6936 14.1816 28.5636V32.6042H11.7832V28.5179ZM24.6647 18.959H27.0622V32.6044H24.6647V18.959ZM32.751 21.349H39.9438V18.959H33.1213C30.1563 18.959 28.8063 20.6327 28.8063 22.9807V28.5636C28.8063 30.5622 29.9395 32.6042 33.1213 32.6042H39.9438V30.2136H32.7716C31.8347 30.2136 31.2024 29.518 31.2024 28.5178C31.2024 27.6707 31.9003 26.9317 32.751 26.9317H39.9438V24.5441H32.7716C31.8347 24.5441 31.2024 23.8258 31.2024 22.9351C31.2024 22.0888 31.9003 21.349 32.751 21.349Z" fill="white"/>
</svg>
