<svg width="60" height="60" viewBox="0 0 60 60" fill="none" xmlns="http://www.w3.org/2000/svg">
<path d="M51.7935 29.6473C51.143 29.6207 50.598 30.1296 50.5737 30.7788C50.5675 30.9469 50.5591 31.1143 50.5488 31.2813C50.5088 31.9298 51.002 32.488 51.6505 32.5282C51.6752 32.5298 51.6998 32.5305 51.7241 32.5305C52.3407 32.5305 52.8587 32.0504 52.8973 31.4266C52.9088 31.2408 52.918 31.0542 52.925 30.8671C52.9494 30.2178 52.4428 29.6716 51.7935 29.6473Z" fill="#C93131"/>
<path d="M58.2025 19.7296C58.3835 19.3809 58.3828 18.9559 58.1793 18.6015C58.0341 18.3488 57.8055 18.1671 57.5441 18.0765C56.0611 14.6527 53.9309 11.5045 51.2131 8.78672C45.5469 3.12047 38.0133 0 30 0C21.9867 0 14.4531 3.12047 8.78684 8.78684C3.12059 14.4532 0 21.9867 0 30C0 34.2641 0.887227 38.3909 2.56805 42.1741C1.9841 42.8228 1.66441 43.6529 1.66441 44.5324C1.66441 45.4752 2.03156 46.3615 2.69813 47.028C3.38625 47.7162 4.29 48.06 5.19375 48.06C5.45602 48.06 5.71805 48.0301 5.97516 47.9721C6.82746 49.1077 7.76508 50.1913 8.78684 51.2131C10.2403 52.6665 11.8187 53.9494 13.4947 55.058C13.0853 56.2869 13.3682 57.6977 14.3446 58.6744C15.0327 59.3625 15.9364 59.7063 16.8402 59.7063C17.7439 59.7063 18.6478 59.3624 19.3358 58.6744L19.7877 58.2225C23.0189 59.3898 26.4623 60 30 60C38.0133 60 45.5469 56.8795 51.2132 51.2132C56.8794 45.5468 60 38.0133 60 30C60 26.4411 59.3831 22.9775 58.2025 19.7296ZM30 2.35289C31.787 2.35289 33.5336 2.52691 35.2267 2.85293L31.113 6.96644C30.6529 7.00687 30.2261 7.05879 30 7.05879C17.3502 7.05879 7.05879 17.3502 7.05879 30C7.05879 32.3235 7.40754 34.5667 8.05289 36.6819L4.37168 40.3631C3.07172 37.1609 2.35289 33.6632 2.35289 30C2.35289 14.7554 14.7553 2.35289 30 2.35289ZM25.8544 15.8389L25.8866 16.3591C25.9789 17.8487 25.4266 19.3082 24.3714 20.3634L9.96961 34.7651C9.60551 33.2351 9.41168 31.6399 9.41168 30C9.41168 19.1113 17.9089 10.1713 28.6205 9.45902L28.0542 10.0253C26.5222 11.5573 25.7204 13.6764 25.8544 15.8389ZM4.36184 45.3642C4.13965 45.142 4.0173 44.8467 4.0173 44.5324C4.0173 44.2181 4.13965 43.9227 4.36184 43.7005L26.0351 22.0274C27.5671 20.4953 28.369 18.3762 28.2349 16.2137L28.2027 15.6935C28.1105 14.2039 28.6627 12.7445 29.718 11.6892L37.8802 3.52734C37.9146 3.49301 37.9455 3.45645 37.9748 3.41906L38.1988 3.59402C38.9346 3.82301 39.6572 4.08199 40.3652 4.36957L32.0084 12.7266C31.549 13.1859 31.549 13.9309 32.0084 14.3904C32.238 14.6201 32.5392 14.7349 32.8403 14.7349C33.1413 14.7349 33.4425 14.62 33.6722 14.3904L42.4348 5.62781C42.504 5.55855 42.5616 5.48215 42.61 5.40188C43.3457 5.78063 44.0616 6.19184 44.7573 6.63281L35.336 16.0541C34.8766 16.5135 34.8766 17.2584 35.336 17.7179C35.5657 17.9476 35.8669 18.0625 36.1679 18.0625C36.469 18.0625 36.7702 17.9475 36.9998 17.7179L46.7195 7.99816C50.3204 10.7412 53.2301 14.346 55.1389 18.5029L51.7726 19.389C46.0354 20.8993 40.7855 23.915 36.5905 28.11L31.7849 32.9157C30.8446 33.8561 30.3613 35.1561 30.4589 36.4823C30.5064 37.1257 30.2719 37.7563 29.8158 38.2125L20.027 48.0012C17.2424 46.4525 14.8529 44.2787 13.0498 41.6681L29.363 25.3549C30.4182 24.2995 31.8779 23.7486 33.3674 23.8395L33.8875 23.8716C36.0499 24.0063 38.169 23.2037 39.7011 21.6717L49.0902 12.2827C49.5496 11.8233 49.5496 11.0783 49.0902 10.6188C48.6308 10.1596 47.8859 10.1596 47.4264 10.6188L38.0373 20.0079C36.9821 21.0633 35.5229 21.6148 34.0329 21.5234L33.5128 21.4913C31.3509 21.3563 29.2312 22.1591 27.6991 23.6911L6.02566 45.3642C5.56711 45.823 4.82074 45.8228 4.36184 45.3642ZM7.99934 46.7182L11.3614 43.3562C13.209 45.9268 15.574 48.1001 18.3033 49.7245L14.8894 53.1384C12.2434 51.4043 9.91195 49.2293 7.99934 46.7182ZM16.0084 57.0107C15.5497 56.5521 15.5497 55.8056 16.0084 55.347L31.4794 39.8761C32.4197 38.9357 32.9031 37.6356 32.8054 36.3094C32.7579 35.6661 32.9924 35.0354 33.4486 34.5792L38.2541 29.7736C42.1549 25.8728 47.0366 23.0686 52.3714 21.6643L53.2499 21.433L17.6722 57.0105C17.2134 57.4696 16.4671 57.4693 16.0084 57.0107ZM30 57.6471C27.0916 57.6471 24.2873 57.1946 21.6525 56.3579L25.5114 52.4991C26.9634 52.7884 28.4641 52.9412 30.0001 52.9412C34.4435 52.9412 38.7572 51.6633 42.4748 49.2458C46.0944 46.8921 48.9716 43.5863 50.795 39.6857C51.0702 39.097 50.8163 38.3968 50.2276 38.1217C49.6388 37.8463 48.9387 38.1005 48.6636 38.6891C45.2839 45.9176 37.9581 50.5882 30 50.5882C29.1768 50.5882 28.365 50.5385 27.567 50.4435L56.3575 21.6531C57.1939 24.2879 57.6471 27.0918 57.6471 29.9999C57.6471 45.2446 45.2447 57.6471 30 57.6471Z" fill="#C93131"/>
</svg>
